<svg width="16" height="16" viewBox="0 0 16 16" fill="none" xmlns="http://www.w3.org/2000/svg">
<path d="M8.00008 11.8335L7.64653 12.187L8.00008 12.5406L8.35363 12.187L8.00008 11.8335ZM8.50008 2C8.50008 1.72386 8.27622 1.5 8.00008 1.5C7.72394 1.5 7.50008 1.72386 7.50008 2L8.50008 2ZM4.31319 8.85372L7.64653 12.187L8.35363 11.4799L5.0203 8.14661L4.31319 8.85372ZM8.35363 12.187L11.687 8.85372L10.9799 8.14661L7.64653 11.4799L8.35363 12.187ZM8.50008 11.8335L8.50008 2L7.50008 2L7.50008 11.8335L8.50008 11.8335Z" fill="#0094fd"/>
<path d="M2 12.5L2 13.1667C2 13.903 2.76751 14.5 3.71429 14.5L12.2857 14.5C13.2325 14.5 14 13.903 14 13.1667V12.5" stroke="#0094fd"/>
</svg>
