<?xml version="1.0" encoding="utf-8"?>
<!-- Generator: Adobe Illustrator 16.0.0, SVG Export Plug-In . SVG Version: 6.00 Build 0)  -->
<!DOCTYPE svg PUBLIC "-//W3C//DTD SVG 1.1//EN" "http://www.w3.org/Graphics/SVG/1.1/DTD/svg11.dtd">
<svg version="1.1" id="Layer_1" xmlns="http://www.w3.org/2000/svg" xmlns:xlink="http://www.w3.org/1999/xlink" x="0px" y="0px"
	 width="192.5px" height="39px" viewBox="42.5 0 192.5 39" enable-background="new 42.5 0 192.5 39" xml:space="preserve">
<path fill="#122B5A" d="M42.95,8.539h9.723c2.61,0,4.665,0.756,5.971,2.038c0.476,0.484,0.851,1.06,1.103,1.692
	c0.252,0.633,0.376,1.31,0.365,1.991v0.066c0,2.992-1.827,4.537-3.621,5.326c2.708,0.822,4.893,2.4,4.893,5.556v0.065
	c0,3.946-3.295,6.28-8.287,6.28H42.95V8.539z M57.501,14.621c0-2.269-1.794-3.749-5.057-3.749h-6.95v7.923h6.754
	c3.1,0,5.252-1.414,5.252-4.109V14.621z M52.705,21.098h-7.211v8.121h7.667c3.459,0,5.612-1.546,5.612-4.11v-0.065
	C58.774,22.545,56.686,21.098,52.705,21.098"/>
<path fill="#122B5A" d="M64.059,8.539h2.578v20.614h12.855v2.4H64.059V8.539z"/>
<path fill="#122B5A" d="M80.797,21.92V8.539h2.578v13.217c0,4.965,2.642,7.759,6.983,7.759c4.208,0,6.884-2.564,6.884-7.595V8.539
	h2.578v13.184c0,6.707-3.818,10.192-9.527,10.192C84.647,31.915,80.797,28.43,80.797,21.92z"/>
<path fill="#122B5A" d="M103.473,8.539h16.509v2.367H106.05v7.858h12.464v2.367H106.05v8.056h14.095v2.366h-16.671V8.539z"/>
<path fill="#058FE7" d="M126.281,8.357h4.633l9.787,23.178h-5.252l-2.088-5.162h-9.658l-2.088,5.162h-5.122L126.281,8.357z
	 M131.566,21.902l-3.035-7.463l-3.034,7.463H131.566z"/>
<path fill="#058FE7" d="M141.779,8.521h10.439c2.904,0,5.155,0.822,6.656,2.335c1.271,1.282,1.957,3.09,1.957,5.26v0.066
	c0,3.715-1.99,6.049-4.893,7.135l5.578,8.219h-5.873l-4.894-7.364h-3.948v7.364h-5.023V8.521z M151.893,19.7
	c2.447,0,3.851-1.316,3.851-3.255v-0.066c0-2.169-1.501-3.287-3.948-3.287h-4.992V19.7H151.893z"/>
<path fill="#058FE7" d="M163.193,9.42l3.631,3.598l8.681,6.428l8.681-6.428l3.631-3.598l0.894,16.718l-4.993,5.396l-1.783-8.729
	l-6.429,6.233l-6.491-6.135l-1.785,8.631l-4.928-5.396L163.193,9.42z"/>
<path fill="#058FE7" d="M188.947,20.094v-0.065c0-6.543,5.123-11.901,12.17-11.901c7.048,0,12.105,5.292,12.105,11.835v0.066
	c0,6.543-5.123,11.901-12.171,11.901C194.005,31.93,188.947,26.637,188.947,20.094z M207.969,20.094v-0.065
	c0-3.946-2.871-7.233-6.917-7.233c-4.045,0-6.851,3.222-6.851,7.167v0.066c0,3.944,2.871,7.233,6.916,7.233
	C205.163,27.262,207.969,24.039,207.969,20.094z"/>
<path fill="#058FE7" d="M215.246,8.521h10.439c2.904,0,5.155,0.822,6.656,2.335c1.273,1.282,1.957,3.09,1.957,5.26v0.066
	c0,3.715-1.988,6.049-4.893,7.135l5.578,8.219h-5.873l-4.894-7.364h-3.948v7.364h-5.024L215.246,8.521L215.246,8.521z M225.359,19.7
	c2.447,0,3.851-1.316,3.851-3.255v-0.066c0-2.169-1.501-3.287-3.948-3.287h-4.992V19.7H225.359z"/>
<path fill="#058FE7" d="M181.585,5.964V4.793l-0.021-0.004c-0.109-1.258-0.67-2.432-1.578-3.302
	c-0.45-0.438-0.975-0.791-1.547-1.044c0,0-3.424-0.996-5.867,0c-0.573,0.253-1.098,0.607-1.549,1.044
	c-0.906,0.871-1.467,2.044-1.578,3.302v0.002c-0.002,0.015-0.129,1.282-0.021,1.173l-0.892,4.938
	c-0.001,0.036,0.008,0.07,0.025,0.101c0.018,0.031,0.041,0.057,0.071,0.075l5.364,3.688c0.031,0.021,0.068,0.031,0.107,0.031
	c0.055,0,0.105-0.021,0.145-0.059c0.038-0.038,0.061-0.09,0.061-0.145l0.064-3.968c0.001-0.034-0.006-1.515-0.021-2.609h-1.797
	c-0.088,0-0.174-0.016-0.256-0.05c-0.081-0.033-0.154-0.083-0.217-0.145s-0.111-0.136-0.145-0.218s-0.052-0.169-0.052-0.257
	c0-0.088,0.019-0.176,0.052-0.257s0.082-0.155,0.145-0.218c0.063-0.062,0.136-0.111,0.217-0.145c0.082-0.033,0.168-0.05,0.256-0.05
	h5.861c0.087,0,0.174,0.017,0.255,0.05s0.155,0.083,0.218,0.145c0.062,0.063,0.111,0.136,0.145,0.218s0.051,0.169,0.051,0.257
	c0,0.088-0.018,0.175-0.051,0.257s-0.083,0.156-0.145,0.218c-0.063,0.062-0.137,0.111-0.218,0.145
	c-0.081,0.034-0.168,0.05-0.255,0.05h-1.753c-0.015,1.094-0.022,2.575-0.022,2.609l0.064,3.968c0.001,0.037,0.011,0.072,0.029,0.104
	c0.02,0.031,0.045,0.057,0.078,0.075c0.031,0.018,0.067,0.026,0.104,0.025s0.072-0.012,0.104-0.031l5.362-3.688
	c0.03-0.019,0.056-0.044,0.072-0.075c0.017-0.031,0.026-0.065,0.026-0.101L181.585,5.964z"/>
</svg>
