<svg width="235" height="39" viewBox="0 0 235 39" fill="none" xmlns="http://www.w3.org/2000/svg">
<path d="M42.9496 8.53842H52.6729C55.2829 8.53842 57.3379 9.29435 58.6435 10.5768C59.1194 11.061 59.4943 11.6363 59.7464 12.2687C59.9984 12.9011 60.1225 13.5779 60.1112 14.2593V14.325C60.1112 17.3172 58.2844 18.8619 56.49 19.6513C59.1977 20.4734 61.3834 22.0517 61.3834 25.2074V25.2727C61.3834 29.2186 58.0884 31.5524 53.0962 31.5524H42.9495L42.9496 8.53842ZM57.5011 14.6211C57.5011 12.3525 55.7067 10.8725 52.4445 10.8725H45.4941V18.7959H52.2485C55.3484 18.7959 57.5011 17.3818 57.5011 14.6866V14.6211ZM52.7051 21.0976H45.4941V29.2186H53.1618C56.6208 29.2186 58.7741 27.6729 58.7741 25.1086V25.0429C58.7741 22.5443 56.6861 21.0976 52.705 21.0976" fill="#122B5A"/>
<path d="M64.059 8.53839H66.6368V29.1528H79.4917V31.5532H64.059V8.53839Z" fill="#122B5A"/>
<path d="M80.7972 21.92V8.53842H83.375V21.7555C83.375 26.7203 86.0173 29.5149 90.3577 29.5149C94.5661 29.5149 97.2416 26.9502 97.2416 21.92V8.53842H99.8194V21.7222C99.8194 28.4294 96.001 31.9151 90.2921 31.9151C84.6475 31.9151 80.7972 28.4293 80.7972 21.92Z" fill="#122B5A"/>
<path d="M103.473 8.53839H119.983V10.9053H106.05V18.7634H118.514V21.1303H106.05V29.1863H120.145V31.5532H103.473V8.53839Z" fill="#122B5A"/>
<path d="M126.281 8.35675H130.914L140.701 31.5356H135.449L133.361 26.3734H123.703L121.615 31.5356H116.493L126.281 8.35675ZM131.567 21.9022L128.531 14.4393L125.497 21.9022L131.567 21.9022Z" fill="#058FE7"/>
<path d="M141.779 8.52078H152.219C155.123 8.52078 157.374 9.34302 158.875 10.8552C160.147 12.1374 160.832 13.9457 160.832 16.1156V16.1817C160.832 19.8964 158.842 22.2308 155.939 23.3162L161.517 31.5356H155.645L150.751 24.1709H146.803V31.5356H141.779V8.52078ZM151.892 19.6996C154.34 19.6996 155.743 18.384 155.743 16.4443V16.3782C155.743 14.2083 154.242 13.0912 151.795 13.0912H146.803V19.6996H151.892Z" fill="#058FE7"/>
<path d="M163.194 9.42029L166.824 13.0179L175.505 19.4463L184.186 13.0179L187.817 9.42029L188.71 26.1393L183.717 31.5356L181.933 22.8056L175.505 29.0394L169.013 22.9044L167.228 31.5356L162.301 26.1393L163.194 9.42029Z" fill="#058FE7"/>
<path d="M188.947 20.0942V20.0282C188.947 13.4854 194.07 8.12672 201.117 8.12672C208.165 8.12672 213.222 13.4195 213.222 19.9624V20.0282C213.222 26.5711 208.099 31.9299 201.052 31.9299C194.005 31.9299 188.947 26.6368 188.947 20.0942ZM207.969 20.0942V20.0282C207.969 16.0821 205.098 12.7951 201.052 12.7951C197.007 12.7951 194.201 16.0166 194.201 19.9624V20.0282C194.201 23.9731 197.072 27.2614 201.117 27.2614C205.163 27.2614 207.969 24.0387 207.969 20.0942Z" fill="#058FE7"/>
<path d="M215.246 8.52078H225.686C228.59 8.52078 230.841 9.34302 232.342 10.8552C233.615 12.1374 234.299 13.9457 234.299 16.1156V16.1817C234.299 19.8964 232.31 22.2308 229.406 23.3162L234.984 31.5356H229.112L224.218 24.1709H220.27V31.5356H215.245V8.52078H215.246ZM225.36 19.6996C227.806 19.6996 229.21 18.384 229.21 16.4443V16.3782C229.21 14.2083 227.709 13.0912 225.262 13.0912H220.27V19.6996H225.36Z" fill="#058FE7"/>
<path d="M181.585 5.96454V4.79295L181.565 4.7889C181.455 3.53143 180.894 2.35739 179.987 1.48667C179.536 1.04924 179.012 0.695768 178.439 0.442656C178.439 0.442656 175.016 -0.553285 172.572 0.442656C171.999 0.695936 171.474 1.04939 171.024 1.48667C170.117 2.35737 169.556 3.5314 169.446 4.7889V4.79116C169.444 4.80541 169.317 6.07332 169.425 5.96454L168.533 10.903C168.532 10.9384 168.541 10.9732 168.558 11.004C168.576 11.0349 168.6 11.0608 168.63 11.0792L173.994 14.7673C174.026 14.7877 174.063 14.7985 174.102 14.7984C174.156 14.7985 174.207 14.7772 174.246 14.7391C174.284 14.7009 174.306 14.649 174.307 14.5946L174.371 10.6265C174.372 10.5924 174.365 9.11107 174.35 8.01703H172.553C172.465 8.01765 172.379 8.0008 172.297 7.96746C172.216 7.93411 172.143 7.88493 172.08 7.82273C172.018 7.76054 171.969 7.68657 171.935 7.60509C171.902 7.5236 171.884 7.43621 171.884 7.34795C171.884 7.25968 171.902 7.17229 171.935 7.09081C171.969 7.00932 172.018 6.93535 172.08 6.87316C172.143 6.81097 172.216 6.76178 172.297 6.72844C172.379 6.69509 172.465 6.67824 172.553 6.67886H178.414C178.501 6.67824 178.588 6.69509 178.669 6.72844C178.75 6.76178 178.824 6.81097 178.886 6.87316C178.948 6.93535 178.998 7.00932 179.031 7.09081C179.065 7.17229 179.082 7.25968 179.082 7.34795C179.082 7.43621 179.065 7.5236 179.031 7.60509C178.998 7.68657 178.948 7.76054 178.886 7.82273C178.824 7.88493 178.75 7.93411 178.669 7.96746C178.588 8.0008 178.501 8.01765 178.414 8.01703H176.661C176.646 9.11114 176.639 10.5924 176.639 10.6265L176.703 14.5949C176.704 14.6315 176.714 14.6672 176.733 14.6984C176.752 14.7297 176.778 14.7554 176.81 14.773C176.842 14.7905 176.878 14.7993 176.914 14.7983C176.95 14.7974 176.986 14.7868 177.017 14.7677L182.38 11.0792C182.41 11.0608 182.435 11.0349 182.452 11.0041C182.469 10.9732 182.478 10.9384 182.478 10.903L181.585 5.96454Z" fill="#058FE7"/>
</svg>
