<svg width="235" height="39" viewBox="0 0 235 39" fill="none" xmlns="http://www.w3.org/2000/svg">
<path d="M42.9496 8.53842H52.6729C55.2829 8.53842 57.3379 9.29435 58.6435 10.5768C59.1194 11.061 59.4943 11.6363 59.7464 12.2687C59.9984 12.9011 60.1225 13.5779 60.1112 14.2593V14.325C60.1112 17.3172 58.2844 18.8619 56.49 19.6513C59.1977 20.4734 61.3834 22.0517 61.3834 25.2074V25.2727C61.3834 29.2186 58.0884 31.5524 53.0962 31.5524H42.9495L42.9496 8.53842ZM57.5011 14.6211C57.5011 12.3525 55.7067 10.8725 52.4445 10.8725H45.4941V18.7959H52.2485C55.3484 18.7959 57.5011 17.3818 57.5011 14.6866V14.6211ZM52.7051 21.0976H45.4941V29.2186H53.1618C56.6208 29.2186 58.7741 27.6729 58.7741 25.1086V25.0429C58.7741 22.5443 56.6861 21.0976 52.705 21.0976" fill="#122B5A"/>
<path d="M64.059 8.53839H66.6368V29.1528H79.4917V31.5532H64.059V8.53839Z" fill="#122B5A"/>
<path d="M80.7972 21.92V8.53842H83.375V21.7555C83.375 26.7203 86.0173 29.5149 90.3577 29.5149C94.5661 29.5149 97.2416 26.9502 97.2416 21.92V8.53842H99.8194V21.7222C99.8194 28.4294 96.001 31.9151 90.2921 31.9151C84.6475 31.9151 80.7972 28.4293 80.7972 21.92Z" fill="#122B5A"/>
<path d="M103.473 8.53839H119.983V10.9053H106.05V18.7634H118.514V21.1303H106.05V29.1863H120.145V31.5532H103.473V8.53839Z" fill="#122B5A"/>
<path d="M126.281 8.35675H130.914L140.701 31.5356H135.449L133.361 26.3734H123.703L121.615 31.5356H116.493L126.281 8.35675ZM131.567 21.9022L128.531 14.4393L125.497 21.9022L131.567 21.9022Z" fill="#058FE7"/>
<path d="M141.779 8.52078H152.219C155.123 8.52078 157.374 9.34302 158.875 10.8552C160.147 12.1374 160.832 13.9457 160.832 16.1156V16.1817C160.832 19.8964 158.842 22.2308 155.939 23.3162L161.517 31.5356H155.645L150.751 24.1709H146.803V31.5356H141.779V8.52078ZM151.892 19.6996C154.34 19.6996 155.743 18.384 155.743 16.4443V16.3782C155.743 14.2083 154.242 13.0912 151.795 13.0912H146.803V19.6996H151.892Z" fill="#058FE7"/>
<path d="M163.194 9.42029L166.824 13.0179L175.505 19.4463L184.186 13.0179L187.817 9.42029L188.71 26.1393L183.717 31.5356L181.933 22.8056L175.505 29.0394L169.013 22.9044L167.228 31.5356L162.301 26.1393L163.194 9.42029Z" fill="#058FE7"/>
<path d="M188.947 20.0942V20.0282C188.947 13.4854 194.07 8.12672 201.117 8.12672C208.165 8.12672 213.222 13.4195 213.222 19.9624V20.0282C213.222 26.5711 208.099 31.9299 201.052 31.9299C194.005 31.9299 188.947 26.6368 188.947 20.0942ZM207.969 20.0942V20.0282C207.969 16.0821 205.098 12.7951 201.052 12.7951C197.007 12.7951 194.201 16.0166 194.201 19.9624V20.0282C194.201 23.9731 197.072 27.2614 201.117 27.2614C205.163 27.2614 207.969 24.0387 207.969 20.0942Z" fill="#058FE7"/>
<path d="M215.246 8.52078H225.686C228.59 8.52078 230.841 9.34302 232.342 10.8552C233.615 12.1374 234.299 13.9457 234.299 16.1156V16.1817C234.299 19.8964 232.31 22.2308 229.406 23.3162L234.984 31.5356H229.112L224.218 24.1709H220.27V31.5356H215.245V8.52078H215.246ZM225.36 19.6996C227.806 19.6996 229.21 18.384 229.21 16.4443V16.3782C229.21 14.2083 227.709 13.0912 225.262 13.0912H220.27V19.6996H225.36Z" fill="#058FE7"/>
<path d="M181.585 5.96454V4.79295L181.565 4.7889C181.455 3.53143 180.894 2.35739 179.987 1.48667C179.536 1.04924 179.012 0.695768 178.439 0.442656C178.439 0.442656 175.016 -0.553285 172.572 0.442656C171.999 0.695936 171.474 1.04939 171.024 1.48667C170.117 2.35737 169.556 3.5314 169.446 4.7889V4.79116C169.444 4.80541 169.317 6.07332 169.425 5.96454L168.533 10.903C168.532 10.9384 168.541 10.9732 168.558 11.004C168.576 11.0349 168.6 11.0608 168.63 11.0792L173.994 14.7673C174.026 14.7877 174.063 14.7985 174.102 14.7984C174.156 14.7985 174.207 14.7772 174.246 14.7391C174.284 14.7009 174.306 14.649 174.307 14.5946L174.371 10.6265C174.372 10.5924 174.365 9.11107 174.35 8.01703H172.553C172.465 8.01765 172.379 8.0008 172.297 7.96746C172.216 7.93411 172.143 7.88493 172.08 7.82273C172.018 7.76054 171.969 7.68657 171.935 7.60509C171.902 7.5236 171.884 7.43621 171.884 7.34795C171.884 7.25968 171.902 7.17229 171.935 7.09081C171.969 7.00932 172.018 6.93535 172.08 6.87316C172.143 6.81097 172.216 6.76178 172.297 6.72844C172.379 6.69509 172.465 6.67824 172.553 6.67886H178.414C178.501 6.67824 178.588 6.69509 178.669 6.72844C178.75 6.76178 178.824 6.81097 178.886 6.87316C178.948 6.93535 178.998 7.00932 179.031 7.09081C179.065 7.17229 179.082 7.25968 179.082 7.34795C179.082 7.43621 179.065 7.5236 179.031 7.60509C178.998 7.68657 178.948 7.76054 178.886 7.82273C178.824 7.88493 178.75 7.93411 178.669 7.96746C178.588 8.0008 178.501 8.01765 178.414 8.01703H176.661C176.646 9.11114 176.639 10.5924 176.639 10.6265L176.703 14.5949C176.704 14.6315 176.714 14.6672 176.733 14.6984C176.752 14.7297 176.778 14.7554 176.81 14.773C176.842 14.7905 176.878 14.7993 176.914 14.7983C176.95 14.7974 176.986 14.7868 177.017 14.7677L182.38 11.0792C182.41 11.0608 182.435 11.0349 182.452 11.0041C182.469 10.9732 182.478 10.9384 182.478 10.903L181.585 5.96454Z" fill="#058FE7"/>
<path d="M32.1754 4.87939V2.75946H26.3963V4.87939H22.9699V1.33247H17.3491V4.87939L15.831 4.8774V1.33977L10.1516 1.34209V4.87939H6.71573V2.77206H1.0021V4.87939V8.07817V9.99751H32.1849V4.87939H32.1754Z" fill="#0094FD"/>
<path d="M32.1767 4.87044V2.76875H26.3973V4.87044H22.9713V1.35337H17.3504V4.87044L15.832 4.86846V1.33083L10.1526 1.33348V4.87044H6.71706V2.76345H1.00311V4.87044V8.06923V9.9889H32.1859V4.87044H32.1767Z" fill="#0094FD"/>
<path d="M10.6804 27.6742C10.7576 27.3255 10.7305 26.9616 10.6024 26.6284C10.4744 26.2952 10.2512 26.0078 9.96105 25.8025C9.67091 25.5972 9.32687 25.4832 8.97242 25.4749C8.61798 25.4666 8.26906 25.5644 7.96978 25.7559C7.67051 25.9475 7.43432 26.2242 7.29109 26.551C7.14786 26.8778 7.10401 27.2401 7.1651 27.592C7.22619 27.9439 7.38947 28.2697 7.63429 28.5281C7.87911 28.7865 8.19448 28.966 8.54051 29.0438C9.00449 29.148 9.49053 29.0622 9.89179 28.8054C10.2931 28.5486 10.5767 28.1417 10.6804 27.6742Z" fill="#0094FD"/>
<path d="M15.8173 25.3598L13.1762 22.4468L15.8205 19.5922L15.8337 11.5437L1.05478 11.5359C0.945223 11.659 0.99293 13.5613 1.00579 16.4585L5.67912 16.464C5.89033 15.7958 6.31017 15.2142 6.87608 14.8059C7.442 14.3977 8.12367 14.1846 8.81951 14.1986C9.68928 14.2013 10.5225 14.5515 11.1365 15.1722C11.7506 15.7929 12.0954 16.6337 12.0954 17.5102C12.0954 18.3866 11.7506 19.2274 11.1365 19.8481C10.5225 20.4688 9.68928 20.819 8.81951 20.8217C8.09755 20.8348 7.39209 20.6036 6.81588 20.165C6.23967 19.7265 5.82597 19.106 5.64089 18.4027L1.01168 18.4112C1.02679 20.4339 0.986646 22.5517 1.01168 24.5141C3.06304 25.3479 6.07749 25.6364 6.07749 25.6364C6.47017 24.9397 7.09969 24.4097 7.84984 24.1442C8.6 23.8787 9.42014 23.8956 10.1589 24.1919C10.8976 24.4881 11.5051 25.0436 11.8691 25.7559C12.2331 26.4682 12.3292 27.2892 12.1395 28.0672C11.9498 28.8453 11.4873 29.528 10.8371 29.9892C10.187 30.4504 9.39328 30.6591 8.60242 30.5767C7.81156 30.4943 7.07698 30.1263 6.53429 29.5408C5.9916 28.9553 5.67743 28.1916 5.64977 27.3909C5.64977 27.3909 3.01142 27.2093 1.00083 26.418C1.03346 28.7751 0.986711 30.5332 0.986711 30.5332C7.33527 35.7768 15.8261 39 15.8261 39L15.8173 25.3598Z" fill="#0094FD"/>
<path d="M10.6116 17.5105C10.6116 17.1532 10.5064 16.804 10.3094 16.5069C10.1124 16.2099 9.83246 15.9784 9.5049 15.8417C9.17735 15.705 8.81693 15.6693 8.46922 15.739C8.12151 15.8088 7.80214 15.9809 7.55148 16.2335C7.30083 16.4862 7.13015 16.8081 7.06104 17.1585C6.99193 17.5089 7.02749 17.8721 7.16322 18.2021C7.29895 18.5321 7.52876 18.8142 7.82358 19.0126C8.1184 19.2111 8.46499 19.3169 8.81951 19.3168C9.29486 19.3168 9.7507 19.1264 10.0868 18.7876C10.4228 18.4489 10.6116 17.9895 10.6116 17.5105Z" fill="#0094FD"/>
<path d="M32.1204 11.5433H17.3452L17.3544 19.3198L17.3465 25.0834L17.3491 38.9236C19.5408 37.9899 21.684 36.9446 23.7705 35.7917V24.4844C23.1888 24.3046 22.6681 23.9657 22.2663 23.5054C21.8645 23.0451 21.5974 22.4814 21.4948 21.8771C21.3921 21.2728 21.4579 20.6517 21.6849 20.0829C21.9118 19.5141 22.291 19.02 22.7802 18.6555C23.2694 18.291 23.8494 18.0706 24.4556 18.0187C25.0618 17.9668 25.6704 18.0855 26.2136 18.3616C26.7568 18.6376 27.2133 19.0602 27.5322 19.5823C27.8512 20.1044 28.02 20.7054 28.02 21.3185C28.0447 22.0357 27.8266 22.74 27.4014 23.3158C26.9762 23.8915 26.3693 24.3043 25.6804 24.4863L25.6876 34.8174C27.9686 33.5249 30.1459 32.055 32.1998 30.421C32.1998 30.421 32.2968 11.536 32.1204 11.5431" fill="#0094FD"/>
<path d="M26.5259 21.3184C26.526 20.9612 26.4209 20.612 26.224 20.3149C26.0271 20.0178 25.7472 19.7863 25.4197 19.6495C25.0922 19.5127 24.7318 19.4769 24.3841 19.5465C24.0364 19.6162 23.717 19.7882 23.4662 20.0407C23.2155 20.2933 23.0448 20.6151 22.9755 20.9655C22.9063 21.3158 22.9417 21.679 23.0773 22.0091C23.2129 22.3392 23.4426 22.6213 23.7373 22.8198C24.032 23.0184 24.3786 23.1244 24.7331 23.1245C24.9685 23.1245 25.2016 23.0779 25.4191 22.9871C25.6366 22.8964 25.8342 22.7634 26.0007 22.5957C26.1672 22.428 26.2993 22.2288 26.3894 22.0097C26.4795 21.7906 26.5259 21.5557 26.5259 21.3184Z" fill="#0094FD"/>
</svg>
