<?xml version="1.0" encoding="utf-8"?>
<!-- Generator: Adobe Illustrator 16.0.0, SVG Export Plug-In . SVG Version: 6.00 Build 0)  -->
<!DOCTYPE svg PUBLIC "-//W3C//DTD SVG 1.0//EN" "http://www.w3.org/TR/2001/REC-SVG-20010904/DTD/svg10.dtd">
<svg version="1.0" id="Layer_1" xmlns="http://www.w3.org/2000/svg" xmlns:xlink="http://www.w3.org/1999/xlink" x="0px" y="0px"
	 width="120px" height="139px" viewBox="31.5 0 120 139" enable-background="new 31.5 0 120 139" xml:space="preserve">
<g>
	<polygon fill="#0094FD" points="139.191,25.902 139.191,19.508 121.626,19.508 121.626,25.902 111.212,25.902 111.212,15.204 
		94.128,15.204 94.128,25.902 89.514,25.896 89.514,15.226 72.252,15.233 72.252,25.902 61.809,25.902 61.809,19.546 44.443,19.546 
		44.443,25.902 44.443,35.55 44.443,41.339 139.22,41.339 139.22,25.902 	"/>
	<polygon fill="#0094FD" points="139.195,25.875 139.195,19.536 121.629,19.536 121.629,25.875 111.216,25.875 111.216,15.267 
		94.132,15.267 94.132,25.875 89.517,25.869 89.517,15.199 72.255,15.207 72.255,25.875 61.813,25.875 61.813,19.52 44.446,19.52 
		44.446,25.875 44.446,35.523 44.446,41.313 139.223,41.313 139.223,25.875 	"/>
	<path fill="#0094FD" d="M73.86,94.654c0.655-2.938-1.194-5.85-4.13-6.506c-2.937-0.654-5.849,1.194-6.505,4.132
		c-0.656,2.937,1.194,5.849,4.131,6.505C70.292,99.439,73.204,97.592,73.86,94.654"/>
	<path fill="#0094FD" d="M89.473,87.674l-8.027-8.786l8.037-8.61l0.04-24.275l-44.919-0.023c-0.333,0.371-0.188,6.109-0.149,14.847
		l14.204,0.017c1.258-4.076,5.055-6.833,9.545-6.833c5.516,0,9.988,4.473,9.988,9.989s-4.472,9.987-9.988,9.987
		c-4.653,0-8.551-2.991-9.661-7.296l-14.07,0.026c0.046,6.101-0.076,12.488,0,18.407c6.235,2.515,15.397,3.385,15.397,3.385
		c2.116-3.704,6.467-5.767,10.849-4.789c5.383,1.202,8.774,6.541,7.572,11.926c-1.202,5.383-6.541,8.773-11.925,7.571
		c-4.54-1.014-7.652-4.973-7.796-9.416c0,0-8.019-0.548-14.13-2.935c0.099,7.109-0.043,12.412-0.043,12.412
		C63.693,119.093,89.5,128.814,89.5,128.814L89.473,87.674z"/>
	<path fill="#0094FD" d="M73.651,63.999c0-3.009-2.439-5.448-5.447-5.448c-3.01,0-5.449,2.439-5.449,5.448s2.439,5.448,5.449,5.448
		C71.212,69.447,73.651,67.008,73.651,63.999"/>
	<path fill="#0094FD" d="M139.025,46.001H94.117l0.028,23.455L94.121,86.84l0.008,41.744c0,0,8.119-3.277,19.517-9.446V85.033
		c-4.076-1.26-7.061-5.061-7.061-9.549c0-5.517,4.472-9.988,9.988-9.988c5.516,0,9.989,4.472,9.989,9.988
		c0,4.651-2.805,8.443-7.111,9.555l0.022,31.16c6.399-3.715,13.65-8.225,19.793-13.26
		C139.266,102.939,139.561,45.979,139.025,46.001"/>
	<path fill="#0094FD" d="M122.021,75.484c0-3.01-2.439-5.448-5.449-5.448c-3.008,0-5.447,2.438-5.447,5.448s2.439,5.447,5.447,5.447
		C119.583,80.934,122.021,78.494,122.021,75.484"/>
</g>
</svg>
