<?xml version="1.0" encoding="utf-8"?>
<!-- Generator: Adobe Illustrator 16.0.0, SVG Export Plug-In . SVG Version: 6.00 Build 0)  -->
<!DOCTYPE svg PUBLIC "-//W3C//DTD SVG 1.0//EN" "http://www.w3.org/TR/2001/REC-SVG-20010904/DTD/svg10.dtd">
<svg version="1.0" id="Layer_1" xmlns="http://www.w3.org/2000/svg" xmlns:xlink="http://www.w3.org/1999/xlink" x="0px" y="0px"
	 width="800px" height="139px" viewBox="0 0 800 139" enable-background="new 0 0 800 139" xml:space="preserve">
<g>
	<path fill="#FFFFFF" d="M171.939,36.938h29.553c7.933,0,14.179,2.28,18.147,6.148c2.874,2.974,4.461,6.643,4.461,11.107v0.198
		c0,9.025-5.552,13.684-11.006,16.065c8.23,2.479,14.873,7.24,14.873,16.758v0.197c0,11.901-10.015,18.94-25.188,18.94h-30.84
		V36.938z M216.167,55.284c0-6.842-5.454-11.306-15.369-11.306h-21.125v23.898h20.529c9.422,0,15.965-4.265,15.965-12.394V55.284
		L216.167,55.284z M201.59,74.818h-21.917v24.494h23.305c10.513,0,17.058-4.662,17.058-12.396v-0.198
		C220.036,79.182,213.69,74.818,201.59,74.818"/>
	<polygon fill="#FFFFFF" points="236.099,36.938 243.934,36.938 243.934,99.114 283.005,99.114 283.005,106.354 236.099,106.354 	
		"/>
	<path fill="#FFFFFF" d="M286.973,77.299V36.938h7.835v39.865c0,14.975,8.031,23.403,21.223,23.403
		c12.791,0,20.923-7.735,20.923-22.907V36.938h7.835v39.764c0,20.229-11.605,30.743-28.957,30.743
		C298.676,107.445,286.973,96.932,286.973,77.299"/>
	<polygon fill="#FFFFFF" points="355.893,36.938 406.073,36.938 406.073,44.077 363.728,44.077 363.728,67.778 401.609,67.778 
		401.609,74.917 363.728,74.917 363.728,99.215 406.568,99.215 406.568,106.354 355.893,106.354 	"/>
	<path fill="#058FE7" d="M425.216,36.39h14.081l29.749,69.911h-15.964l-6.347-15.57h-29.354l-6.347,15.57h-15.567L425.216,36.39z
		 M441.281,77.245l-9.225-22.509l-9.223,22.509H441.281z"/>
	<path fill="#058FE7" d="M472.32,36.885h31.732c8.825,0,15.668,2.479,20.229,7.041c3.868,3.867,5.948,9.321,5.948,15.866v0.199
		c0,11.204-6.047,18.245-14.872,21.519l16.954,24.791h-17.848L499.59,84.088h-0.198h-11.801v22.213H472.32V36.885z M503.061,70.602
		c7.438,0,11.702-3.968,11.702-9.818v-0.199c0-6.545-4.562-9.914-11.999-9.914h-15.173v19.932H503.061z"/>
	<polygon fill="#058FE7" points="537.409,39.598 548.443,50.449 574.829,69.838 601.212,50.449 612.249,39.598 614.962,90.025 
		599.789,106.301 594.364,79.97 574.829,98.771 555.095,80.268 549.67,106.301 534.696,90.025 	"/>
	<path fill="#058FE7" d="M615.685,71.792v-0.199c0-19.734,15.57-35.896,36.988-35.896c21.422,0,36.793,15.964,36.793,35.698v0.198
		c0,19.734-15.571,35.897-36.989,35.897C631.056,107.49,615.685,91.525,615.685,71.792 M673.498,71.792v-0.199
		c0-11.902-8.725-21.816-21.021-21.816c-12.298,0-20.823,9.716-20.823,21.618v0.198c0,11.898,8.725,21.816,21.021,21.816
		C664.972,93.409,673.498,83.689,673.498,71.792"/>
	<path fill="#058FE7" d="M695.616,36.885h31.732c8.825,0,15.668,2.479,20.229,7.041c3.868,3.867,5.949,9.321,5.949,15.866v0.199
		c0,11.204-6.047,18.245-14.873,21.519l16.955,24.791h-17.849l-14.876-22.213h-0.197h-11.802v22.213h-15.271L695.616,36.885
		L695.616,36.885z M726.356,70.602c7.437,0,11.701-3.968,11.701-9.818v-0.199c0-6.545-4.562-9.914-11.999-9.914h-15.173v19.932
		H726.356z"/>
	<path fill="#058FE7" d="M593.309,29.175v-3.534l-0.063-0.012c-0.332-3.781-2.012-7.287-4.795-9.96
		c-1.391-1.336-2.982-2.395-4.706-3.149c0,0-10.404-3.004-17.833,0c-1.722,0.754-3.314,1.813-4.705,3.149
		c-2.783,2.673-4.464,6.179-4.796,9.96c-0.001,0.002,0,0.005,0,0.007c-0.004,0.043-0.39,3.867-0.063,3.539l-2.713,14.895
		c0,0.218,0.111,0.417,0.297,0.531l16.302,11.124c0.099,0.062,0.213,0.094,0.328,0.094c0.104,0,0.209-0.026,0.301-0.077
		c0.195-0.107,0.32-0.313,0.323-0.538l0.195-11.968c0.002-0.103-0.021-4.571-0.065-7.871h-5.461c-1.113,0-2.019-0.903-2.019-2.018
		c0-1.114,0.904-2.018,2.019-2.018h17.813c1.114,0,2.019,0.904,2.019,2.018c0,1.115-0.903,2.018-2.019,2.018h-5.329
		c-0.044,3.3-0.066,7.768-0.065,7.871l0.194,11.969c0.004,0.224,0.129,0.43,0.325,0.537c0.092,0.051,0.195,0.077,0.3,0.077
		c0.116,0,0.23-0.032,0.329-0.093l16.302-11.125c0.187-0.114,0.297-0.313,0.297-0.531L593.309,29.175z"/>
	<polygon fill="#0094FD" points="139.191,25.902 139.191,19.508 121.626,19.508 121.626,25.902 111.212,25.902 111.212,15.204 
		94.128,15.204 94.128,25.902 89.514,25.896 89.514,15.226 72.252,15.233 72.252,25.902 61.809,25.902 61.809,19.546 44.443,19.546 
		44.443,25.902 44.443,35.55 44.443,41.339 139.22,41.339 139.22,25.902 	"/>
	<polygon fill="#0094FD" points="139.195,25.875 139.195,19.536 121.629,19.536 121.629,25.875 111.216,25.875 111.216,15.267 
		94.132,15.267 94.132,25.875 89.517,25.869 89.517,15.199 72.255,15.207 72.255,25.875 61.813,25.875 61.813,19.52 44.446,19.52 
		44.446,25.875 44.446,35.523 44.446,41.313 139.223,41.313 139.223,25.875 	"/>
	<path fill="#0094FD" d="M73.86,94.654c0.655-2.938-1.194-5.85-4.13-6.506c-2.937-0.654-5.849,1.194-6.505,4.132
		c-0.656,2.937,1.194,5.849,4.131,6.505C70.292,99.439,73.204,97.592,73.86,94.654"/>
	<path fill="#0094FD" d="M89.473,87.674l-8.027-8.786l8.037-8.61l0.04-24.275l-44.919-0.023c-0.333,0.371-0.188,6.109-0.149,14.847
		l14.204,0.017c1.258-4.076,5.055-6.833,9.545-6.833c5.516,0,9.988,4.473,9.988,9.989s-4.472,9.987-9.988,9.987
		c-4.653,0-8.551-2.991-9.661-7.296l-14.07,0.026c0.046,6.101-0.076,12.488,0,18.407c6.235,2.515,15.397,3.385,15.397,3.385
		c2.116-3.704,6.467-5.767,10.849-4.789c5.383,1.202,8.774,6.541,7.572,11.926c-1.202,5.383-6.541,8.773-11.925,7.571
		c-4.54-1.014-7.652-4.973-7.796-9.416c0,0-8.019-0.548-14.13-2.935c0.099,7.109-0.043,12.412-0.043,12.412
		C63.693,119.093,89.5,128.814,89.5,128.814L89.473,87.674z"/>
	<path fill="#0094FD" d="M73.651,63.999c0-3.009-2.439-5.448-5.447-5.448c-3.01,0-5.449,2.439-5.449,5.448s2.439,5.448,5.449,5.448
		C71.212,69.447,73.651,67.008,73.651,63.999"/>
	<path fill="#0094FD" d="M139.025,46.001H94.117l0.028,23.455L94.121,86.84l0.008,41.744c0,0,8.119-3.277,19.517-9.446V85.033
		c-4.076-1.26-7.061-5.061-7.061-9.549c0-5.517,4.472-9.988,9.988-9.988c5.516,0,9.989,4.472,9.989,9.988
		c0,4.651-2.805,8.443-7.111,9.555l0.022,31.16c6.399-3.715,13.65-8.225,19.793-13.26
		C139.266,102.939,139.561,45.979,139.025,46.001"/>
	<path fill="#0094FD" d="M122.021,75.484c0-3.01-2.439-5.448-5.449-5.448c-3.008,0-5.447,2.438-5.447,5.448s2.439,5.447,5.447,5.447
		C119.583,80.934,122.021,78.494,122.021,75.484"/>
</g>
</svg>
