<?xml version="1.0" encoding="utf-8"?>
<!-- Generator: Adobe Illustrator 25.4.1, SVG Export Plug-In . SVG Version: 6.00 Build 0)  -->
<svg version="1.1" id="Layer_1" xmlns="http://www.w3.org/2000/svg" xmlns:xlink="http://www.w3.org/1999/xlink" x="0px" y="0px"
	 viewBox="0 0 40.7 39" style="enable-background:new 0 0 40.7 39;" xml:space="preserve">
<style type="text/css">
	.st0{fill:url(#SVGID_1_);}
	.st1{fill:url(#SVGID_00000124871867783990166900000005962958281295292337_);}
	.st2{fill:url(#SVGID_00000098900848994394396790000010338165736323989420_);}
	.st3{fill:#FFFFFF;}
	.st4{fill:url(#SVGID_00000080172758725864427460000007109544732575606926_);}
	.st5{fill:url(#SVGID_00000029044773904459690360000013694618130839181997_);}
</style>
<g>
	<linearGradient id="SVGID_1_" gradientUnits="userSpaceOnUse" x1="4.585" y1="8.6383" x2="21.8935" y2="38.6174">
		<stop  offset="9.007110e-02" style="stop-color:#263081"/>
		<stop  offset="0.6511" style="stop-color:#1B75BB"/>
		<stop  offset="0.9984" style="stop-color:#26A9E0"/>
	</linearGradient>
	<path class="st0" d="M10.7,5.1C6.1,8.2,3,13.5,3,19.5c0,9.6,7.8,17.3,17.3,17.3c3.5,0,6.7-1,9.4-2.8c-2.4,0.4-4.7,0-6.2-0.3
		c-1.4-0.3-2.3-0.8-3.1-1.1c-1.7-0.8-2.4-1.4-3.7-2.3c-1.9-1.2-4.2-4.3-5.4-7.2c-1.2-2.9-1.1-6.6-1.1-9.8C10.3,10.9,10.6,7,10.7,5.1
		z"/>
	
		<linearGradient id="SVGID_00000078013904974229904160000002399796664140992687_" gradientUnits="userSpaceOnUse" x1="36.7813" y1="10.1956" x2="3.0745" y2="10.1956">
		<stop  offset="0.12" style="stop-color:#263081"/>
		<stop  offset="0.6511" style="stop-color:#1B75BB"/>
		<stop  offset="0.9984" style="stop-color:#26A9E0"/>
	</linearGradient>
	<path style="fill:url(#SVGID_00000078013904974229904160000002399796664140992687_);" d="M6,12.9c1.7-1.7,4.7-4.4,13.9-4.5
		c7.9-0.1,14.4,4,16.9,5.6C34.5,7.1,28,2.2,20.4,2.2C12,2.2,5.1,8,3.4,15.9c-0.1,0.4-0.3,1.9-0.3,2.3C3.5,16.5,4.1,14.7,6,12.9z"/>
	
		<linearGradient id="SVGID_00000108993896442995126250000009547583929727058826_" gradientUnits="userSpaceOnUse" x1="28.5747" y1="34.2144" x2="28.5747" y2="2.2127">
		<stop  offset="0" style="stop-color:#263081"/>
		<stop  offset="0.4566" style="stop-color:#1B75BB"/>
		<stop  offset="0.9984" style="stop-color:#26A9E0"/>
	</linearGradient>
	<path style="fill:url(#SVGID_00000108993896442995126250000009547583929727058826_);" d="M21.5,2.2c0.2,0,0,0,0.2,0
		c6.6,0.8,9.1,5.5,9.6,8.1c0,0,0,0,0,0c-0.1,5.8-0.1,15.1-11.8,21.8c0.3,0.2,0.6,0.3,1,0.5c0.8,0.3,1.7,0.8,3.1,1.1
		c1.5,0.4,3.8,0.7,6.2,0.3c4.8-3.1,7.9-8.4,7.9-14.5C37.7,10.3,30.5,2.8,21.5,2.2z"/>
	<g>
		<path class="st3" d="M9.5,10.3c0,0,3.6-2,10.9-2s10.8,2,10.8,2s0.3,8.7-1.5,13.2c-2.3,6.1-9.3,9-9.3,9s-7.4-3-9.7-9.5
			C9.2,18.5,9.5,10.3,9.5,10.3z"/>
		
			<linearGradient id="SVGID_00000137122466675885104400000015789770286904887228_" gradientUnits="userSpaceOnUse" x1="15.3661" y1="9.442" x2="26.6516" y2="25.5593">
			<stop  offset="0" style="stop-color:#4E4F51"/>
			<stop  offset="0.478" style="stop-color:#7E8081"/>
			<stop  offset="0.6742" style="stop-color:#A4A5A7"/>
			<stop  offset="0.8845" style="stop-color:#C6C7C9"/>
			<stop  offset="0.9984" style="stop-color:#D3D4D6"/>
		</linearGradient>
		<path style="fill:url(#SVGID_00000137122466675885104400000015789770286904887228_);" d="M11.9,11.9c0,0,2.7-1.1,8.5-1.1
			s8.4,1.1,8.4,1.1s0.3,6.9-1.3,10.7c-1.8,4.5-7.2,7.2-7.2,7.2s-5.7-2.9-7.1-7.2C11.6,17.9,11.9,11.9,11.9,11.9z"/>
		
			<linearGradient id="SVGID_00000165917431472405583980000003876640796201064088_" gradientUnits="userSpaceOnUse" x1="15.3644" y1="9.3752" x2="26.773" y2="25.6684">
			<stop  offset="0" style="stop-color:#FFFFFF;stop-opacity:0.8"/>
			<stop  offset="0.7447" style="stop-color:#FFFFFF;stop-opacity:0"/>
		</linearGradient>
		<path style="fill:url(#SVGID_00000165917431472405583980000003876640796201064088_);" d="M21.6,28.7c0,0.2-0.1,0.2-0.3,0.2
			c-0.3,0-0.4,0-0.4-0.2c0-0.3,0.1-0.3,0.4-0.3C21.6,28.4,21.6,28.4,21.6,28.7z M16,10.9c-0.4,0-0.4,0-0.4,0.3
			c0,0.2,0.1,0.2,0.4,0.2c0.3,0,0.3,0,0.3-0.2C16.4,10.9,16.3,10.9,16,10.9z M21.2,18.4c0.3,0,0.4,0,0.4-0.3c0-0.2,0-0.2-0.4-0.2
			c-0.3,0-0.4,0-0.4,0.3C20.9,18.4,21,18.4,21.2,18.4z M21.2,19.5c0.4,0,0.4-0.1,0.4-0.3c0-0.3,0-0.3-0.4-0.3c-0.3,0-0.4,0-0.4,0.3
			C20.8,19.5,20.9,19.5,21.2,19.5z M18.2,18.4V19c0,0.5,0.1,0.5,0.4,0.5c0.4,0,0.4,0,0.4-0.5v-0.6c0-0.5-0.1-0.5-0.4-0.5
			C18.2,17.9,18.2,17.9,18.2,18.4z M15.1,15.5v-0.6c0-0.5-0.1-0.5-0.4-0.5c-0.4,0-0.4,0-0.4,0.5v0.6c0,0.5,0.1,0.5,0.4,0.5
			C15,16,15.1,16,15.1,15.5z M27.4,15.4c-0.3,0-0.4,0-0.4,0.3c0,0.2,0.1,0.3,0.4,0.3c0.4,0,0.4-0.1,0.4-0.3
			C27.8,15.4,27.8,15.4,27.4,15.4z M27.4,14.9c0.3,0,0.4,0,0.4-0.3c0-0.2,0-0.2-0.4-0.2c-0.3,0-0.4,0-0.4,0.3
			C27.1,14.9,27.2,14.9,27.4,14.9z M13.6,13h0.7v-0.5h0.2V12h-0.2V11c-0.2,0-0.5,0.1-0.7,0.1V12h-0.9l0.6-0.7
			c-0.4,0.1-0.7,0.2-0.9,0.2l-0.2,0.2v0.8h1.4V13z M17,10.7c0.1,0.2,0.1,0.4,0.1,0.7v0.7c0,0.8-0.3,1-1.1,1c-0.6,0-1.1,0-1.1-0.7
			v-0.1h0.7c0,0.3,0.1,0.3,0.4,0.3c0.3,0,0.4,0,0.4-0.4v-0.4h0C16.3,12,16.1,12,15.9,12c-0.6,0-1-0.1-1-0.8c0-0.1,0-0.2,0-0.2
			C15.5,10.8,16.2,10.8,17,10.7z M18.2,12.4h-0.6V13h0.6V12.4z M21,12.5h-1.5c0-0.4,0.2-0.3,0.7-0.4c0.6-0.2,0.8-0.3,0.8-0.9
			c0-0.3-0.1-0.5-0.2-0.6c-0.1,0-0.3,0-0.5,0c-0.5,0-1,0-1.4,0c-0.1,0.1-0.1,0.3-0.1,0.6v0.1h0.7v-0.1c0-0.3,0.1-0.3,0.4-0.3
			c0.3,0,0.4,0,0.4,0.3c0,0.3,0,0.3-0.5,0.4c-0.8,0.2-1,0.3-1,0.9V13H21V12.5z M22.1,12.4h-0.6V13h0.6V12.4z M23.5,11V13h0.7v-2.3
			c-0.4,0-0.8-0.1-1.2-0.1l-0.6,0.5l0.4,0.5L23.5,11z M25.7,11.2c0-0.1,0-0.2,0-0.2c-0.2,0-0.5-0.1-0.7-0.1c0,0.1,0,0.2,0,0.3v0.1
			h0.7V11.2z M27.2,12.5h-1.5c0-0.4,0.2-0.3,0.7-0.4c0.6-0.2,0.7-0.3,0.8-0.8c-0.2,0-0.4-0.1-0.7-0.1c0,0,0,0.1,0,0.1
			c0,0.3,0,0.3-0.5,0.4c-0.8,0.2-1,0.3-1,0.9V13h2.2V12.5z M29,12.5c-0.1,0-0.2,0-0.3,0c-0.3,0-0.4,0-0.4-0.3h-0.7v0.1
			c0,0.7,0.5,0.7,1.1,0.7c0.1,0,0.2,0,0.3,0C29,12.8,29,12.6,29,12.5z M28.6,12c0.1,0,0.3,0,0.4-0.1c0-0.1,0-0.2,0-0.2
			s-0.4-0.2-1.3-0.4C27.7,11.9,28,12,28.6,12z M13.2,15.6v-0.9c0-0.9-0.6-1-1.1-1c-0.1,0-0.2,0-0.3,0c0,0.2,0,0.4,0,0.6
			c0.1,0,0.2,0,0.3,0c0.4,0,0.4,0,0.4,0.5v0.6c0,0.5-0.1,0.5-0.4,0.5c-0.1,0-0.2,0-0.2,0c0,0.2,0,0.4,0.1,0.6c0.1,0,0.1,0,0.2,0
			C12.6,16.6,13.2,16.5,13.2,15.6z M14.7,16.6c-0.6,0-1.1,0-1.1-1v-0.9c0-0.9,0.6-1,1.1-1c0.6,0,1.1,0,1.1,1v0.9
			C15.8,16.5,15.2,16.6,14.7,16.6z M16.9,15.9h-0.6v0.6h0.6V15.9z M18.2,14.5v2.1H19v-2.7h-0.9l-1,0.8l0.4,0.5L18.2,14.5z M22,15.8
			c0-0.3-0.1-0.6-0.5-0.6v0c0.3,0,0.4-0.3,0.4-0.6c0-0.7-0.6-0.7-1-0.7c-0.7,0-1.1,0.1-1.1,0.8v0.1h0.7v-0.1c0-0.3,0.1-0.3,0.4-0.3
			c0.4,0,0.4,0.1,0.4,0.3c0,0.2,0,0.2-0.4,0.2h-0.2v0.5h0.2c0.4,0,0.4,0.1,0.4,0.3c0,0.3-0.1,0.3-0.4,0.3c-0.3,0-0.4,0-0.4-0.3v-0.1
			h-0.7v0.1c0,0.8,0.5,0.8,1.1,0.8C21.5,16.6,22,16.5,22,15.8z M24.5,14.3v-0.5h-2v1.5h0.6c0-0.1,0.1-0.1,0.3-0.1
			c0.4,0,0.4,0.1,0.4,0.4c0,0.4-0.1,0.4-0.4,0.4c-0.2,0-0.3,0-0.3-0.2h-0.7c0,0.7,0.4,0.8,1,0.8c0.8,0,1.1-0.1,1.1-1
			c0-0.6-0.2-0.9-0.9-0.9c-0.3,0-0.4,0-0.6,0.2v-0.5H24.5z M25.7,16.5v-0.6h-0.6v0.6H25.7z M28.5,15.8c0,0.7-0.5,0.8-1.1,0.8
			c-0.6,0-1.1-0.1-1.1-0.8c0-0.3,0.1-0.6,0.5-0.6v0c-0.3-0.1-0.4-0.3-0.4-0.6c0-0.7,0.5-0.7,1.1-0.7c0.6,0,1.1,0.1,1.1,0.8
			c0,0.4-0.1,0.5-0.4,0.6v0C28.4,15.2,28.5,15.5,28.5,15.8z M13.1,19.1c0-0.6-0.2-0.9-0.9-0.9c-0.1,0-0.1,0-0.2,0
			c0,0.2,0.1,0.4,0.1,0.5c0.3,0,0.3,0.1,0.3,0.4c0,0.2,0,0.3-0.1,0.3c0,0.2,0.1,0.4,0.1,0.6C12.9,20,13.1,19.8,13.1,19.1z M13,17.3
			h-1c0,0.2,0,0.4,0.1,0.5h1V17.3z M13.7,20.1h0.6v-0.6h-0.6V20.1z M16.3,19c0.6-0.2,0.8-0.3,0.8-0.9c0-0.8-0.4-0.9-1.1-0.9
			c-0.7,0-1.1,0.1-1.1,0.9v0.1h0.7v-0.1c0-0.3,0.1-0.3,0.4-0.3c0.3,0,0.4,0,0.4,0.3c0,0.3,0,0.3-0.5,0.4c-0.8,0.2-1,0.3-1,0.9v0.6
			H17v-0.6h-1.5C15.6,19.1,15.7,19.2,16.3,19z M18.6,17.3c0.6,0,1.1,0,1.1,1v0.9c0,0.9-0.6,1-1.1,1s-1.1,0-1.1-1v-0.9
			C17.5,17.3,18,17.3,18.6,17.3z M20.6,18.7L20.6,18.7c-0.3-0.1-0.4-0.3-0.4-0.6c0-0.7,0.5-0.7,1.1-0.7c0.6,0,1.1,0.1,1.1,0.8
			c0,0.4-0.1,0.5-0.4,0.6v0c0.4,0,0.5,0.3,0.5,0.6c0,0.7-0.5,0.8-1.1,0.8c-0.6,0-1.1-0.1-1.1-0.8C20.1,19,20.3,18.7,20.6,18.7z
			 M23.5,19.4h-0.6v0.6h0.6V19.4z M24.1,18.6l0.7-0.6v2.1h0.7v-2.7h-0.9l-1,0.8L24.1,18.6z M27.7,19c0.6-0.2,0.8-0.3,0.8-0.9
			c0-0.8-0.4-0.9-1.1-0.9c-0.7,0-1.1,0.1-1.1,0.9v0.1H27v-0.1c0-0.3,0.1-0.3,0.4-0.3c0.3,0,0.4,0,0.4,0.3c0,0.3,0,0.3-0.5,0.4
			c-0.8,0.2-1,0.3-1,0.9v0.6h2.1c0-0.2,0.1-0.4,0.1-0.5v0H27C27,19.1,27.2,19.2,27.7,19z M14.4,23h-1.2c0.1,0.2,0.2,0.4,0.2,0.6h1
			V23z M14.4,21.7c0-0.8-0.4-0.9-1.1-0.9c-0.3,0-0.6,0-0.8,0.1c0.1,0.3,0.1,0.6,0.2,0.9H13v-0.1c0-0.3,0.1-0.3,0.4-0.3
			c0.3,0,0.4,0,0.4,0.3c0,0.3,0,0.3-0.5,0.4c-0.1,0-0.2,0.1-0.3,0.1c0.1,0.2,0.1,0.4,0.2,0.5c0,0,0,0,0,0c0.1-0.1,0.3-0.1,0.6-0.1
			C14.2,22.4,14.4,22.3,14.4,21.7z M14.9,21.4h1.3l-0.9,2.1H16l0.9-2.1v-0.6h-2.1V21.4z M17.9,22.9h-0.6v0.6h0.6V22.9z M18.1,21.6
			l0.4,0.5l0.7-0.6v2.1h0.7v-2.7h-0.9L18.1,21.6z M20.8,22.9v0.6h0.6v-0.6H20.8z M24.2,23h-1.5c0-0.4,0.2-0.3,0.7-0.4
			c0.6-0.2,0.8-0.3,0.8-0.9c0-0.8-0.4-0.9-1.1-0.9c-0.7,0-1.1,0.1-1.1,0.9v0.1h0.7v-0.1c0-0.3,0.1-0.3,0.4-0.3c0.3,0,0.4,0,0.4,0.3
			c0,0.3,0,0.3-0.5,0.4c-0.8,0.2-1,0.3-1,0.9v0.6h2.2V23z M26.4,22.2L26.4,22.2c0.3-0.1,0.4-0.3,0.4-0.6c0-0.7-0.6-0.7-1-0.7
			c-0.7,0-1.1,0.1-1.1,0.8v0.1h0.7v-0.1c0-0.3,0.1-0.3,0.4-0.3c0.4,0,0.4,0.1,0.4,0.3c0,0.2,0,0.2-0.4,0.2h-0.2v0.5h0.2
			c0.4,0,0.4,0.1,0.4,0.3c0,0.3-0.1,0.3-0.4,0.3c-0.3,0-0.4,0-0.4-0.3v-0.1h-0.7v0.1c0,0.8,0.5,0.8,1.1,0.8c0.6,0,1.1-0.1,1.1-0.8
			C26.9,22.5,26.8,22.2,26.4,22.2z M27.3,22.8c0,0.2,0,0.3,0.1,0.4c0.1-0.2,0.2-0.4,0.2-0.5h-0.3V22.8z M27.3,21.7
			c0,0.5,0.1,0.7,0.4,0.7c0.1-0.2,0.2-0.5,0.3-0.8c0-0.1,0-0.2,0.1-0.2c0.1-0.2,0.1-0.4,0.2-0.6C27.6,20.8,27.3,21,27.3,21.7z
			 M14.1,24.7c0.1,0.2,0.2,0.3,0.3,0.5l0.2-0.2v0.5c0.2,0.3,0.5,0.6,0.7,0.8v-1.9h-0.9L14.1,24.7z M16.3,27.1h0.6v-0.6h-0.6V27.1z
			 M19.7,26.5h-1.5c0-0.4,0.2-0.3,0.7-0.4c0.6-0.2,0.8-0.3,0.8-0.9c0-0.8-0.4-0.9-1.1-0.9c-0.7,0-1.1,0.1-1.1,0.9v0.1h0.7v-0.1
			c0-0.3,0.1-0.3,0.4-0.3c0.3,0,0.4,0,0.4,0.3c0,0.3,0,0.3-0.5,0.4c-0.8,0.2-1,0.3-1,0.9v0.6h2.2V26.5z M21.2,26.5
			c-0.2,0-0.3,0-0.3-0.2h-0.7c0,0.7,0.4,0.8,1,0.8c0.8,0,1.1-0.1,1.1-1c0-0.6-0.2-0.9-0.9-0.9c-0.3,0-0.4,0-0.6,0.2v-0.5h1.3v-0.5
			h-2v1.5h0.6c0-0.1,0.1-0.1,0.3-0.1c0.4,0,0.4,0.1,0.4,0.4C21.6,26.5,21.5,26.5,21.2,26.5z M22.9,27.1h0.6v-0.6h-0.6V27.1z
			 M23.7,25.2l0.4,0.5l0.7-0.6v1.8c0.2-0.2,0.5-0.5,0.7-0.8v-1.7h-0.9L23.7,25.2z M26.4,25c0.1-0.2,0.3-0.4,0.4-0.5
			C26.5,24.5,26.4,24.7,26.4,25z M19.3,29.2L19.3,29.2c0.3-0.1,0.4-0.2,0.4-0.6c0-0.7-0.5-0.8-1.1-0.8c-0.4,0-0.9,0-1,0.4
			c0.2,0.2,0.4,0.3,0.6,0.5c0,0,0,0,0,0c0-0.2,0.1-0.3,0.4-0.3c0.4,0,0.4,0.1,0.4,0.2c0,0.3-0.1,0.3-0.4,0.3c0,0,0,0,0,0
			c0.4,0.3,0.8,0.5,1.1,0.7C19.7,29.4,19.5,29.2,19.3,29.2z M20.1,29.7v0.1c0,0,0,0,0,0c0.2,0.1,0.2,0.1,0.2,0.1s0.2-0.1,0.5-0.2
			c0,0,0,0,0,0H20.1z M22.3,28.8c-0.2,0.2-0.5,0.3-0.7,0.5v0h0c0,0,0,0,0,0.1c-0.1,0.1-0.2,0.2-0.3,0.2c0,0-0.1,0-0.1,0
			c-0.6,0-1-0.1-1-0.8c0-0.8,0.3-0.9,1-0.9C22,27.8,22.3,28,22.3,28.8z"/>
	</g>
</g>
</svg>
