<svg width="16" height="16" viewBox="0 0 16 16" fill="none" xmlns="http://www.w3.org/2000/svg">
<path d="M13.4546 3.99999H12.3636H10.7273V2.49999C10.7273 2.22399 10.4835 2 10.1818 2H5.81818C5.51656 2 5.27274 2.22399 5.27274 2.49999V3.99999H3.63637H2.54545C2.24382 3.99999 2 4.22398 2 4.49998C2 4.77598 2.24379 5 2.54545 5H3.0909V12.5C3.0909 13.327 3.82509 14 4.72726 14H11.2727C12.1749 14 12.9091 13.327 12.9091 12.5V5H13.4546C13.7562 5 14 4.77601 14 4.50001C14 4.22401 13.7562 3.99999 13.4546 3.99999ZM6.36363 3.00001H9.63637V4.00002H6.36363V3.00001ZM11.8182 12.5C11.8182 12.7755 11.5738 13 11.2727 13H4.72726C4.42617 13 4.18182 12.7755 4.18182 12.5V5H5.81818H10.1818H11.8182V12.5H11.8182Z" fill="#0094fd"/>
<path d="M6.3643 6C6.06267 6 5.81885 6.22399 5.81885 6.49999V11C5.81885 11.276 6.06267 11.5 6.3643 11.5C6.66592 11.5 6.90974 11.276 6.90974 11V6.49999C6.90974 6.22399 6.66592 6 6.3643 6Z" fill="#0094fd"/>
<path d="M9.63676 6C9.33513 6 9.09131 6.22399 9.09131 6.49999V11C9.09131 11.276 9.33513 11.5 9.63676 11.5C9.93838 11.5 10.1822 11.276 10.1822 11V6.49999C10.1822 6.22399 9.93838 6 9.63676 6Z" fill="#0094fd"/>
</svg>
