<svg width="16" height="16" viewBox="0 0 16 16" fill="none" xmlns="http://www.w3.org/2000/svg">
<path d="M4.03814 9.25473L4.03814 9.25473C4.03739 9.25548 4.03664 9.25623 4.03589 9.25698C4.02563 9.26724 4.01543 9.27742 4.0053 9.28752C3.84284 9.44965 3.69901 9.59317 3.59764 9.7722C3.49628 9.95123 3.44721 10.1484 3.39177 10.3711C3.38807 10.386 3.38433 10.401 3.38055 10.4162L3.05035 11.7369C3.04814 11.7458 3.04591 11.7547 3.04367 11.7637C3.00443 11.9203 2.96252 12.0877 2.94877 12.2282C2.93364 12.3829 2.93716 12.644 3.14658 12.8534C3.35599 13.0628 3.61704 13.0663 3.77177 13.0512C3.91231 13.0375 4.07965 12.9955 4.23634 12.9563C4.24527 12.9541 4.25417 12.9518 4.26303 12.9496L5.58382 12.6194C5.59894 12.6156 5.61395 12.6119 5.62884 12.6082C5.85157 12.5528 6.04875 12.5037 6.22778 12.4023C6.40681 12.301 6.55034 12.1571 6.71247 11.9947C6.7233 11.9838 6.73423 11.9729 6.74525 11.9618L11.3535 7.35355C11.3701 7.33701 11.3865 7.32065 11.4027 7.30446C11.6261 7.08162 11.8193 6.88892 11.9298 6.66602C12.1378 6.24636 12.1378 5.75364 11.9298 5.33398C11.8193 5.11108 11.6261 4.91838 11.4027 4.69555C11.3865 4.67935 11.3701 4.66299 11.3535 4.64645C11.337 4.62991 11.3206 4.61351 11.3044 4.59726C11.0816 4.37384 10.8889 4.18064 10.666 4.07018C10.2463 3.86222 9.75362 3.86222 9.33396 4.07019C9.11105 4.18064 8.91836 4.37384 8.69552 4.59727C8.67932 4.61351 8.66297 4.62991 8.64643 4.64645L4.03814 9.25473Z" stroke="#0094FD" stroke-miterlimit="16"/>
<path d="M8 5.33333L8.66667 5L11 7.33333L10.6667 8L8 5.33333Z" fill="#0094FD"/>
</svg>
