<?xml version="1.0" encoding="utf-8"?>
<!-- Generator: Adobe Illustrator 25.4.1, SVG Export Plug-In . SVG Version: 6.00 Build 0)  -->
<svg version="1.1" id="Layer_1" xmlns="http://www.w3.org/2000/svg" xmlns:xlink="http://www.w3.org/1999/xlink" x="0px" y="0px"
	 viewBox="0 0 64 42" style="enable-background:new 0 0 64 42;" xml:space="preserve">
<style type="text/css">
	.st0{fill:#EAFFDF;}
	.st1{fill:none;stroke:#0F90E7;stroke-width:2.5;stroke-miterlimit:10;}
	.st2{fill:none;stroke:#A7DAFF;stroke-width:2.5;stroke-linecap:round;stroke-miterlimit:10;}
	.st3{fill:none;stroke:#69C536;stroke-width:2.5;stroke-linecap:round;stroke-miterlimit:10;}
</style>
<g>
	<circle class="st0" cx="41.4" cy="18.5" r="18.2"/>
	<path class="st1" d="M46.9,10.1c1.6,0,3,1.3,3,2.9v24.2c0,1.6-1.3,2.9-3,2.9H7.3c-1.6,0-3-1.3-3-2.9V13.1c0-1.6,1.3-2.9,3-2.9
		L46.9,10.1z"/>
	<path class="st2" d="M29.4,20.3h9.9"/>
	<path class="st2" d="M29.4,25.2h13.7"/>
	<path class="st2" d="M29.4,30h13.5"/>
	<path class="st3" d="M16.5,30.4c2.9,0,5.3-2.3,5.3-5.2c0-2.9-2.4-5.2-5.3-5.2s-5.3,2.3-5.3,5.2C11.2,28.1,13.6,30.4,16.5,30.4z"/>
</g>
</svg>
