<svg width="16" height="16" viewBox="0 0 16 16" fill="none" xmlns="http://www.w3.org/2000/svg">
<path d="M7.99998 14.6666C4.31798 14.6666 1.33331 11.682 1.33331 7.99998C1.33331 4.31798 4.31798 1.33331 7.99998 1.33331C11.682 1.33331 14.6666 4.31798 14.6666 7.99998C14.6666 11.682 11.682 14.6666 7.99998 14.6666ZM7.99998 13.3333C9.41447 13.3333 10.771 12.7714 11.7712 11.7712C12.7714 10.771 13.3333 9.41447 13.3333 7.99998C13.3333 6.58549 12.7714 5.22894 11.7712 4.22874C10.771 3.22855 9.41447 2.66665 7.99998 2.66665C6.58549 2.66665 5.22894 3.22855 4.22874 4.22874C3.22855 5.22894 2.66665 6.58549 2.66665 7.99998C2.66665 9.41447 3.22855 10.771 4.22874 11.7712C5.22894 12.7714 6.58549 13.3333 7.99998 13.3333ZM7.99998 6.66665C8.17679 6.66665 8.34636 6.73688 8.47138 6.86191C8.59641 6.98693 8.66665 7.1565 8.66665 7.33331V10.6666C8.66665 10.8435 8.59641 11.013 8.47138 11.1381C8.34636 11.2631 8.17679 11.3333 7.99998 11.3333C7.82317 11.3333 7.6536 11.2631 7.52857 11.1381C7.40355 11.013 7.33331 10.8435 7.33331 10.6666V7.33331C7.33331 7.1565 7.40355 6.98693 7.52857 6.86191C7.6536 6.73688 7.82317 6.66665 7.99998 6.66665ZM7.99998 5.99998C7.82317 5.99998 7.6536 5.92974 7.52857 5.80472C7.40355 5.67969 7.33331 5.51012 7.33331 5.33331C7.33331 5.1565 7.40355 4.98693 7.52857 4.86191C7.6536 4.73688 7.82317 4.66665 7.99998 4.66665C8.17679 4.66665 8.34636 4.73688 8.47138 4.86191C8.59641 4.98693 8.66665 5.1565 8.66665 5.33331C8.66665 5.51012 8.59641 5.67969 8.47138 5.80472C8.34636 5.92974 8.17679 5.99998 7.99998 5.99998Z" fill="#6179A7"/>
</svg>
