<?xml version="1.0" encoding="utf-8"?>
<!-- Generator: Adobe Illustrator 25.4.1, SVG Export Plug-In . SVG Version: 6.00 Build 0)  -->
<svg version="1.1" id="Layer_1" xmlns="http://www.w3.org/2000/svg" xmlns:xlink="http://www.w3.org/1999/xlink" x="0px" y="0px"
	 viewBox="0 0 144.8 39" style="enable-background:new 0 0 144.8 39;" xml:space="preserve">
<g>
	<g>
		<path d="M5.5,21.7h-5V3.2h5V21.7z"/>
		<path d="M29,21.7h-8.4l-2.9-7.8c-0.4-1.1-0.8-2.2-1.2-3.2l-1.1-3.2h-0.2l0.1,1.7c0.1,2.5,0.1,2.9,0.1,5.1v7.4h-4.8V3.2h8.3
			l2.9,7.8c0.4,1.1,0.8,2.1,1.2,3.1c0.4,1.1,0.7,2.1,1.1,3.1h0.2l-0.1-1.7c-0.1-2.4-0.1-2.8-0.1-5V3.2H29V21.7z"/>
		<path d="M50.8,3.2l-5.4,18.5h-7.7L32.5,3.2h5l2.1,7.1c0.3,1.2,0.7,2.4,1,3.5c0.3,1.2,0.6,2.4,0.9,3.6h0.1c0.6-2.3,1.3-4.7,2-7.1
			l2.1-7.1H50.8z"/>
		<path d="M59.4,21.7h-5V3.2h5V21.7z"/>
		<path d="M74.4,8.9V8.6c0-1.5-0.5-1.8-2.6-1.8c-2.4,0-3,0.3-3,1.8c0,0.6,0.1,1.1,0.4,1.3c0.3,0.3,0.5,0.3,2.1,0.4
			c4.5,0.3,4.5,0.3,5.7,0.7c2,0.6,2.7,1.9,2.7,4.8c0,2.5-0.4,3.8-1.3,4.6c-1.2,1.1-2.7,1.4-6.4,1.4c-4.7,0-6.5-0.5-7.4-2
			c-0.6-0.9-0.7-1.9-0.7-4.2h4.7V16c0,0.8,0.2,1.2,0.6,1.5c0.4,0.3,0.6,0.4,2.9,0.4c1.6,0,1.9,0,2.3-0.4c0.4-0.3,0.5-0.7,0.5-1.5
			c0-1.3-0.4-1.6-2.3-1.7c-3-0.2-4.5-0.3-5.5-0.6c-2.3-0.6-3.1-1.9-3.1-5.2c0-2.2,0.5-3.6,1.5-4.4C66.6,3.3,68.2,3,71.8,3
			c3.9,0,5.5,0.4,6.4,1.6c0.7,0.8,1,1.9,1,3.5l0,0.8H74.4z"/>
		<path d="M89.1,21.7h-5V3.2h5V21.7z"/>
		<path d="M110.2,21.7h-3.4L99,9.1L97.7,7l-0.6-1l-0.6-1h-0.1l0,0.7v0.7v1.4v13.9h-2.1V3.2h3.4l6.7,11l1.8,2.9l0.9,1.4l0.9,1.4h0.1
			l0-0.7v-0.7v-1.4v-14h2.1V21.7z"/>
		<path d="M117,11.2h9.4V13H117v6.9h9.8v1.8H115V3.2h11.9V5H117V11.2z"/>
		<path d="M138,21.7h-2.1V5.1h-6V3.2H144v2l-6,0V21.7z"/>
	</g>
	<g>
		<path d="M11.6,35.2h-1.5l-2.3-8h0l-2.4,8H3.9l-2.7-8.9h1l2.4,8.1h0L7,26.3h1.5l2.4,8.1h0l2.5-8.1h1L11.6,35.2z"/>
		<path d="M16.2,29.8L16.2,29.8c0.3-0.7,1.2-0.8,1.9-0.8c1.6,0,2.4,0.4,2.3,2.2v4.1h-0.9V31c0-1.1-0.4-1.3-1.5-1.3
			c-1.5,0-1.9,0.5-1.9,1.9v3.6h-0.9v-8.9h0.9V29.8z"/>
		<path d="M27.4,33.3v0.2c0,1.6-1.3,1.7-2.6,1.7c-2.4,0-2.8-0.8-2.8-3.2c0-2.6,0.6-3.2,2.8-3.2c2,0,2.6,0.5,2.6,2.8v0.6h-4.5
			c0,2,0.1,2.2,1.8,2.2c1.3,0,1.7-0.1,1.7-1v-0.2H27.4z M26.4,31.6c0-1.8-0.3-1.9-1.7-1.9c-1.7,0-1.8,0.4-1.8,1.9H26.4z"/>
		<path d="M29.6,29l0,0.8l0,0c0.3-0.7,1.1-0.9,1.8-0.9c1.2,0,1.7,0.6,1.7,1.8v0.4h-0.9v-0.4c0-0.8-0.3-1-1-1c-1.2,0-1.5,0.6-1.5,1.7
			v3.9h-0.9V29H29.6z"/>
		<path d="M39.3,33.3v0.2c0,1.6-1.3,1.7-2.6,1.7c-2.4,0-2.8-0.8-2.8-3.2c0-2.6,0.6-3.2,2.8-3.2c2,0,2.6,0.5,2.6,2.8v0.6h-4.5
			c0,2,0.1,2.2,1.8,2.2c1.3,0,1.7-0.1,1.7-1v-0.2H39.3z M38.3,31.6c0-1.8-0.3-1.9-1.7-1.9c-1.7,0-1.8,0.4-1.8,1.9H38.3z"/>
		<path d="M51.1,27.3l-5.6,7h5.7v0.9h-6.9v-0.9l5.6-7.1h-5.4v-0.9h6.6V27.3z"/>
		<path d="M57.6,33.3v0.2c0,1.6-1.3,1.7-2.6,1.7c-2.4,0-2.8-0.8-2.8-3.2c0-2.6,0.6-3.2,2.8-3.2c2,0,2.6,0.5,2.6,2.8v0.6h-4.5
			c0,2,0.1,2.2,1.8,2.2c1.3,0,1.7-0.1,1.7-1v-0.2H57.6z M56.6,31.6c0-1.8-0.3-1.9-1.7-1.9c-1.7,0-1.8,0.4-1.8,1.9H56.6z"/>
		<path d="M59.8,29l0,0.8l0,0c0.3-0.7,1.1-0.9,1.8-0.9c1.2,0,1.7,0.6,1.7,1.8v0.4h-0.9v-0.4c0-0.8-0.3-1-1-1c-1.2,0-1.5,0.6-1.5,1.7
			v3.9h-0.9V29H59.8z"/>
		<path d="M66.8,28.9c2.3,0,2.8,0.6,2.8,3.2c0,2.6-0.4,3.2-2.8,3.2c-2.3,0-2.8-0.6-2.8-3.2C64.1,29.5,64.5,28.9,66.8,28.9z
			 M66.8,34.5c1.7,0,1.8-0.3,1.8-2.4c0-2.2-0.1-2.4-1.8-2.4c-1.7,0-1.8,0.3-1.8,2.4C65,34.3,65.1,34.5,66.8,34.5z"/>
		<path d="M78.2,35.2h-1v-8h-2.9v-0.9h6.8v0.9h-2.9V35.2z"/>
		<path d="M81.9,29l0,0.8l0,0c0.3-0.7,1.1-0.9,1.8-0.9c1.2,0,1.7,0.6,1.7,1.8v0.4h-0.9v-0.4c0-0.8-0.3-1-1-1c-1.2,0-1.5,0.6-1.5,1.7
			v3.9H81V29H81.9z"/>
		<path d="M90.5,34.4L90.5,34.4c-0.4,0.8-1.1,0.9-2,0.9c-1.6,0-2.2-0.7-2.2-2.3v-4h0.9v4c0,1,0.1,1.5,1.3,1.5c1.3,0,2-0.2,2-1.7V29
			h0.9v6.2h-0.9V34.4z"/>
		<path d="M98,30.6h-1v-0.2c0-0.6-0.5-0.6-1.5-0.6c-1.2,0-1.7,0-1.7,0.8c0,1.1,0.3,1,1.3,1.1c1.6,0.1,3.1-0.2,3.1,1.9
			c0,1.8-1.2,1.8-2.6,1.8c-1.3,0-2.8-0.1-2.8-1.5v-0.6h1v0.5c0,0.6,0.4,0.7,1.8,0.7c0.6,0,1.6,0.1,1.6-1c0-1.2-0.5-0.9-1.6-1
			c-1.3-0.1-2.7,0-2.7-1.7c0-1.8,1-1.8,2.7-1.8c1.1,0,2.4,0,2.4,1.5V30.6z"/>
		<path d="M102.7,29.8h-2.4v3.9c0,0.7,0.2,0.8,0.9,0.8c0.9,0,0.9-0.5,0.9-1.1V33h0.9v0.5c0,1.2-0.5,1.8-1.8,1.8
			c-1.5,0-1.8-0.4-1.8-1.9v-3.7h-0.8V29h0.8v-1.5h0.9V29h2.4V29.8z"/>
		<path d="M107.8,35.2v-8.9h4.5c1.7,0,2.1,0.8,2.1,2.3c0,0.9-0.2,1.6-1.1,1.9v0c1.2,0.2,1.4,1.1,1.4,2.2c0,1.6-0.6,2.5-2.1,2.5
			H107.8z M108.8,30.2h2.9c1.2,0,1.6-0.3,1.6-1.7c0-1.2-0.5-1.3-1.5-1.3h-3V30.2z M108.8,34.3h3.2c1.1,0,1.6-0.1,1.6-1.5
			c0-1.2-0.2-1.8-1.5-1.7h-3.3V34.3z"/>
		<path d="M121.3,33.3v0.2c0,1.6-1.3,1.7-2.6,1.7c-2.4,0-2.8-0.8-2.8-3.2c0-2.6,0.6-3.2,2.8-3.2c2,0,2.6,0.5,2.6,2.8v0.6h-4.5
			c0,2,0.1,2.2,1.8,2.2c1.3,0,1.7-0.1,1.7-1v-0.2H121.3z M120.3,31.6c0-1.8-0.3-1.9-1.7-1.9c-1.7,0-1.8,0.4-1.8,1.9H120.3z"/>
		<path d="M127.9,36c0,1.7-1.2,2-2.7,2c-1.4,0-2.6-0.2-2.5-2h0.9c0,1.2,0.6,1.3,1.5,1.3c1.1,0,1.8-0.1,1.8-1.3v-1.4h0
			c-0.3,0.8-1.3,0.8-2,0.8c-2,0-2.4-1-2.4-3.2c0-2.1,0.3-3.2,2.4-3.2c0.9,0,1.6,0.1,2,0.9l0,0V29h0.9V36z M127,32.1
			c0-1.7-0.1-2.4-1.8-2.4c-1.7,0-1.7,0.8-1.7,2.4c0,1.5-0.1,2.4,1.7,2.4C127,34.5,127,33.5,127,32.1z"/>
		<path d="M130.4,27.4h-0.9v-1h0.9V27.4z M130.4,35.2h-0.9V29h0.9V35.2z"/>
		<path d="M133,29.8L133,29.8c0.3-0.7,1.2-0.8,1.9-0.8c1.6,0,2.4,0.4,2.3,2.2v4.1h-0.9V31c0-1.1-0.4-1.3-1.5-1.3
			c-1.5,0-1.9,0.5-1.9,1.9v3.6h-0.9V29h0.9V29.8z"/>
		<path d="M143.8,30.6h-1v-0.2c0-0.6-0.5-0.6-1.5-0.6c-1.2,0-1.7,0-1.7,0.8c0,1.1,0.3,1,1.3,1.1c1.6,0.1,3.1-0.2,3.1,1.9
			c0,1.8-1.2,1.8-2.6,1.8c-1.3,0-2.8-0.1-2.8-1.5v-0.6h1v0.5c0,0.6,0.4,0.7,1.8,0.7c0.6,0,1.6,0.1,1.6-1c0-1.2-0.5-0.9-1.6-1
			c-1.3-0.1-2.7,0-2.7-1.7c0-1.8,1-1.8,2.7-1.8c1.1,0,2.4,0,2.4,1.5V30.6z"/>
	</g>
</g>
</svg>
