<svg id="Layer_1" data-name="Layer 1" xmlns="http://www.w3.org/2000/svg" xmlns:xlink="http://www.w3.org/1999/xlink" viewBox="0 0 182.71 35.88"><defs><linearGradient id="linear-gradient" x1="3.21" y1="8.01" x2="20.63" y2="38.17" gradientUnits="userSpaceOnUse"><stop offset="0.09" stop-color="#263081"/><stop offset="0.65" stop-color="#1b75bb"/><stop offset="1" stop-color="#26a9e0"/></linearGradient><linearGradient id="linear-gradient-2" x1="35.61" y1="9.58" x2="1.69" y2="9.58" gradientUnits="userSpaceOnUse"><stop offset="0.12" stop-color="#263081"/><stop offset="0.65" stop-color="#1b75bb"/><stop offset="1" stop-color="#26a9e0"/></linearGradient><linearGradient id="linear-gradient-3" x1="27.35" y1="33.74" x2="27.35" y2="1.55" gradientUnits="userSpaceOnUse"><stop offset="0" stop-color="#263081"/><stop offset="0.46" stop-color="#1b75bb"/><stop offset="1" stop-color="#26a9e0"/></linearGradient><linearGradient id="linear-gradient-4" x1="14.06" y1="8.82" x2="25.41" y2="25.04" gradientUnits="userSpaceOnUse"><stop offset="0" stop-color="#4e4f51"/><stop offset="0.48" stop-color="#7e8081"/><stop offset="0.67" stop-color="#a4a5a7"/><stop offset="0.88" stop-color="#c6c7c9"/><stop offset="1" stop-color="#d3d4d6"/></linearGradient><linearGradient id="linear-gradient-5" x1="14.06" y1="8.75" x2="25.54" y2="25.15" gradientUnits="userSpaceOnUse"><stop offset="0" stop-color="#fff" stop-opacity="0.8"/><stop offset="0.18" stop-color="#fff" stop-opacity="0.62"/><stop offset="0.6" stop-color="#fff" stop-opacity="0.16"/><stop offset="0.74" stop-color="#fff" stop-opacity="0"/></linearGradient></defs><path d="M45.82,21.07h-5V2.59h5Z" transform="translate(-1.64 -1.51)"/><path d="M69.31,21.07H60.92L58,13.29c-.39-1.08-.81-2.16-1.19-3.22L55.71,6.83h-.22l.08,1.72c.11,2.52.14,2.94.14,5.12v7.4H50.86V2.59H59.2l2.93,7.79c.39,1,.78,2.08,1.2,3.13s.72,2.1,1.08,3.13h.19l0-1.66c-.11-2.44-.14-2.8-.14-5V2.59h4.9Z" transform="translate(-1.64 -1.51)"/><path d="M91.14,2.59l-5.4,18.48H78.07L72.83,2.59h5l2,7.12c.34,1.19.67,2.39,1,3.55s.64,2.38.94,3.57H82c.61-2.3,1.28-4.68,2-7.12L86,2.59Z" transform="translate(-1.64 -1.51)"/><path d="M99.76,21.07h-5V2.59h5Z" transform="translate(-1.64 -1.51)"/><path d="M114.8,8.36V8c0-1.47-.5-1.8-2.6-1.8-2.41,0-3,.33-3,1.8a1.6,1.6,0,0,0,.41,1.28c.31.27.47.3,2,.41,4.49.34,4.55.34,5.71.7,2,.63,2.69,1.85,2.69,4.82,0,2.49-.36,3.77-1.3,4.6-1.22,1.05-2.72,1.38-6.38,1.38-4.71,0-6.48-.47-7.42-2-.59-.91-.75-1.91-.75-4.15h4.71v.36a1.71,1.71,0,0,0,.55,1.52c.42.33.64.36,2.91.36,1.61,0,1.86,0,2.27-.39a1.71,1.71,0,0,0,.53-1.46c0-1.31-.39-1.61-2.33-1.72a34.42,34.42,0,0,1-5.48-.56c-2.3-.58-3.13-1.94-3.13-5.23,0-2.25.47-3.63,1.52-4.38,1.22-.86,2.77-1.14,6.37-1.14,3.88,0,5.46.39,6.4,1.58a5.16,5.16,0,0,1,1,3.49l0,.84Z" transform="translate(-1.64 -1.51)"/><path d="M129.46,21.07h-5V2.59h5Z" transform="translate(-1.64 -1.51)"/><path d="M150.52,21.07h-3.41L139.35,8.49,138.1,6.42l-.63-1-.61-1h-.06l0,.69v16h-2.08V2.59h3.41l6.73,11,1.77,2.88.89,1.44.86,1.44h.06l0-.69V2.59h2.08Z" transform="translate(-1.64 -1.51)"/><path d="M157.39,10.65h9.36V12.4h-9.36v6.87h9.78v1.8H155.31V2.59h11.86v1.8h-9.78Z" transform="translate(-1.64 -1.51)"/><path d="M178.33,21.07h-2.08V4.53h-6V2.59h14.08v2l-6,0Z" transform="translate(-1.64 -1.51)"/><path d="M9.41,4.43A17.43,17.43,0,0,0,28.55,33.57a16,16,0,0,1-6.26-.35,15.2,15.2,0,0,1-3.12-1.12,20.65,20.65,0,0,1-3.69-2.28C13.59,28.58,11.27,25.5,10,22.6S8.88,16,8.91,12.71C8.92,10.3,9.25,6.32,9.41,4.43Z" transform="translate(-1.64 -1.51)" style="fill:url(#linear-gradient)"/><path d="M4.59,12.3c1.71-1.7,4.68-4.42,14-4.57,8-.14,14.53,4,17,5.66A17.44,17.44,0,0,0,2,15.29c-.1.45-.28,1.9-.34,2.36A10.45,10.45,0,0,1,4.59,12.3Z" transform="translate(-1.64 -1.51)" style="fill:url(#linear-gradient-2)"/><path d="M20.21,1.55l.19,0c6.61.8,9.18,5.5,9.63,8.16h0C29.89,15.62,30,24.9,18.19,31.62c.29.16.61.32,1,.48a15.2,15.2,0,0,0,3.12,1.12,16,16,0,0,0,6.26.35,17.43,17.43,0,0,0-8.34-32Z" transform="translate(-1.64 -1.51)" style="fill:url(#linear-gradient-3)"/><path d="M8.13,9.69s3.61-2,11-2S30,9.73,30,9.73s.28,8.77-1.47,13.32c-2.36,6.14-9.39,9.05-9.39,9.05s-7.46-3-9.74-9.53C7.83,18,8.13,9.69,8.13,9.69Z" transform="translate(-1.64 -1.51)" style="fill:#fff"/><path d="M10.56,11.27s2.71-1.13,8.55-1.13,8.48,1.13,8.48,1.13S27.85,18.2,26.3,22c-1.84,4.56-7.21,7.26-7.21,7.26s-5.76-3-7.17-7.21A35.63,35.63,0,0,1,10.56,11.27Z" transform="translate(-1.64 -1.51)" style="fill:url(#linear-gradient-4)"/><path d="M20.36,28.18c0,.22-.08.24-.35.24s-.45,0-.45-.23.05-.31.45-.31S20.36,27.93,20.36,28.18ZM14.73,10.24c-.4,0-.45,0-.45.32s.12.23.45.23.35,0,.35-.24S15,10.24,14.73,10.24ZM20,17.83c.31,0,.38,0,.38-.28s0-.25-.38-.25-.37,0-.37.27S19.69,17.83,20,17.83ZM20,19c.41,0,.43-.06.43-.3s-.05-.29-.43-.29-.42,0-.42.3S19.63,19,20,19Zm-3.08-1.14v.63c0,.47.08.47.44.47s.45,0,.45-.47v-.63c0-.47-.08-.48-.45-.48S16.87,17.34,16.87,17.81Zm-3.07-2.9v-.63c0-.47-.08-.48-.45-.48s-.44,0-.44.48v.63c0,.47.08.48.44.48S13.8,15.38,13.8,14.91Zm12.38-.07c-.33,0-.41,0-.41.29s.1.29.41.29.43-.06.43-.3S26.57,14.84,26.18,14.84Zm0-.53c.31,0,.38,0,.38-.29s0-.25-.38-.25-.37,0-.37.28S25.92,14.31,26.19,14.31ZM12.28,12.44H13V11.9h.23v-.53H13v-.94l-.7.13v.81h-.86l.56-.74c-.39.09-.71.18-1,.25l-.18.24v.78h1.44Zm3.4-2.36a2.12,2.12,0,0,1,.09.7v.69c0,.85-.33,1-1.13,1-.57,0-1.08,0-1.08-.75V11.6h.7c0,.28.11.29.38.29s.43,0,.43-.38v-.43h0c-.1.28-.26.28-.5.28-.65,0-1-.07-1-.79a1.66,1.66,0,0,1,0-.24C14.2,10.23,14.89,10.15,15.68,10.08Zm1.24,1.73h-.6v.63h.6Zm2.79.06H18.24c0-.37.16-.29.71-.44s.76-.28.76-.89a.91.91,0,0,0-.16-.59H19.1q-.74,0-1.41,0a1,1,0,0,0-.15.59v.14h.7v-.14c0-.29.05-.32.39-.32s.38,0,.38.31,0,.27-.5.38c-.83.2-1,.3-1,.94v.57h2.17Zm1.17-.06h-.59v.63h.59Zm1.34-1.47v2.1H23V10.12L21.7,10l-.6.5.41.47Zm2.25.22a.54.54,0,0,1,.05-.24l-.71-.1a1.72,1.72,0,0,0,0,.34v.14h.69ZM26,11.87H24.47c0-.37.16-.29.72-.44s.75-.27.75-.85c-.21-.05-.44-.1-.7-.14a.37.37,0,0,1,0,.11c0,.28,0,.27-.5.38-.84.2-1,.3-1,.94v.57H26Zm1.82,0a1.15,1.15,0,0,1-.29,0c-.27,0-.38,0-.38-.29h-.7v.12c0,.72.51.75,1.08.75h.29Zm-.36-.51a.63.63,0,0,0,.35-.06,1.87,1.87,0,0,0,0-.21,10,10,0,0,0-1.32-.4C26.46,11.3,26.8,11.36,27.41,11.36ZM11.86,15v-.87c0-.93-.57-1-1.15-1h-.33c0,.2,0,.41,0,.62a.87.87,0,0,1,.31,0c.37,0,.45,0,.45.48v.63c0,.47-.08.48-.45.48H10.5c0,.2,0,.4.05.61h.16C11.29,16,11.86,16,11.86,15Zm1.49,1c-.58,0-1.14,0-1.14-1v-.87c0-.93.56-1,1.14-1s1.15,0,1.15,1V15C14.5,16,13.93,16,13.35,16Zm2.25-.66H15V16h.6Zm1.34-1.46V16h.73V13.22h-.85l-1,.83.42.47Zm3.76,1.31c0-.32-.1-.58-.45-.59v0c.33-.05.42-.31.42-.62,0-.71-.61-.74-1.05-.74-.71,0-1.12.06-1.12.85v.09h.7v-.05c0-.32.12-.32.39-.32s.38.08.38.3,0,.23-.38.23h-.18v.53h.18c.38,0,.41.07.41.26s-.11.33-.41.33-.42,0-.42-.32V15h-.7v.14c0,.79.51.84,1.15.84S20.7,15.89,20.7,15.18Zm2.5-1.43v-.53h-2v1.54h.63c.05-.13.12-.13.36-.13.41,0,.41.08.41.43s-.09.36-.41.36-.34,0-.36-.25h-.69c0,.68.37.82,1.05.82s1.11-.13,1.11-1c0-.64-.19-.9-.86-.9-.35,0-.42,0-.61.2v-.53ZM24.47,16v-.64h-.59V16Zm2.84-.76c0,.73-.5.78-1.12.78s-1.12-.06-1.12-.78c0-.31.15-.62.5-.63v0a.55.55,0,0,1-.45-.63c0-.67.53-.72,1.07-.72s1.08.05,1.08.76c0,.37-.08.49-.42.59v0C27.21,14.62,27.31,14.89,27.31,15.21Zm-15.52,3.3c0-.64-.19-.91-.86-.91h-.19c0,.18.06.36.08.55.27,0,.28.12.28.42s0,.31-.15.35l.12.57C11.58,19.45,11.79,19.22,11.79,18.51Zm-.11-1.76h-1c0,.17,0,.35.07.53h1Zm.68,2.75H13v-.64h-.6Zm2.63-1c.58-.16.76-.27.76-.89s-.44-.87-1.08-.87-1.09.15-1.09.9v.13h.7v-.13c0-.3.05-.32.39-.32s.38,0,.38.3,0,.28-.5.39c-.83.19-1,.3-1,.93v.58h2.17v-.58H14.28C14.28,18.55,14.44,18.63,15,18.48Zm2.32-1.76c.58,0,1.15,0,1.15,1v.86c0,.93-.57,1-1.15,1s-1.14,0-1.14-1v-.86C16.17,16.76,16.74,16.72,17.31,16.72Zm2,1.38v0a.55.55,0,0,1-.45-.63c0-.67.53-.73,1.07-.73s1.07.06,1.07.76c0,.37-.08.49-.41.6v0c.35,0,.45.31.45.64,0,.72-.5.78-1.11.78s-1.12-.07-1.12-.78C18.84,18.42,19,18.12,19.34,18.1Zm2.86.76h-.59v.64h.59Zm.63-.82.71-.64v2.1h.74V16.75h-.86l-1,.83Zm3.68.44c.58-.16.76-.27.76-.89s-.44-.87-1.09-.87-1.08.15-1.08.9v.13h.7v-.13c0-.3.05-.32.38-.32s.39,0,.39.3,0,.28-.5.39c-.84.19-1,.3-1,.93v.58h2.07c0-.18.07-.36.1-.54v0H25.8C25.8,18.55,26,18.63,26.51,18.48Zm-13.4,4H11.87c.08.19.16.39.25.57h1Zm0-1.33c0-.78-.44-.87-1.08-.87a1.54,1.54,0,0,0-.77.14c.07.3.15.59.24.89h.14v-.14c0-.29,0-.32.39-.32s.38,0,.38.31,0,.27-.5.38l-.32.08c.05.19.11.37.17.55v0a4,4,0,0,1,.58-.15C12.93,21.85,13.11,21.73,13.11,21.12Zm.46-.23h1.32L14,23h.77l.91-2.13v-.62H13.57Zm3,1.5H16V23h.59Zm.22-1.29.41.47.72-.65V23h.73V20.27h-.86Zm2.78,1.29V23h.6v-.63Zm3.39.06H21.49c0-.37.16-.29.71-.44s.76-.28.76-.89c0-.78-.44-.87-1.08-.87s-1.09.14-1.09.89v.14h.7v-.14c0-.29.05-.32.39-.32s.38,0,.38.31,0,.27-.5.38c-.83.2-1,.3-1,.94V23H23Zm2.22-.81v0c.34,0,.42-.31.42-.62,0-.7-.6-.74-1-.74-.71,0-1.12.07-1.12.85v.1h.69v-.06c0-.31.12-.32.39-.32s.39.08.39.31,0,.22-.39.22h-.17v.53h.17c.39,0,.42.07.42.26s-.12.33-.42.33-.42,0-.42-.32v-.09h-.69v.15c0,.78.51.84,1.15.84s1.08-.11,1.08-.82C25.64,21.91,25.53,21.66,25.18,21.64Zm.88.66a.86.86,0,0,0,.09.43c.09-.18.17-.36.25-.55h-.34Zm0-1.15c0,.48.15.67.43.74a7.71,7.71,0,0,0,.26-.77c0-.13,0-.21.08-.25,0-.2.11-.41.16-.62C26.39,20.27,26.08,20.43,26.08,21.15Zm-13.29,3c.11.16.22.32.35.48l.21-.19v.46c.23.29.48.57.73.83V23.8h-.86ZM15,26.55h.6v-.64H15ZM18.39,26H16.92c0-.37.16-.3.71-.45s.76-.27.76-.89-.44-.86-1.08-.86-1.09.14-1.09.89v.13h.7v-.13c0-.29,0-.32.39-.32s.38,0,.38.3,0,.28-.5.39c-.83.19-1,.3-1,.94v.57h2.17Zm1.53,0c-.2,0-.33,0-.35-.25h-.7c0,.68.37.82,1.05.82s1.12-.13,1.12-1c0-.64-.2-.9-.86-.9-.35,0-.43,0-.61.2v-.53h1.36V23.8h-2v1.54h.63c0-.13.12-.13.35-.13.41,0,.42.07.42.43S20.24,26,19.92,26Zm1.69.55h.59v-.64h-.59Zm.81-1.92.41.47.71-.65v1.78c.25-.24.5-.5.74-.77V23.8h-.86Zm2.69-.2c.14-.18.26-.36.38-.55A.67.67,0,0,0,25.11,24.43ZM18,28.68v0c.33-.11.41-.23.41-.6,0-.71-.48-.76-1.08-.76-.43,0-.85,0-1,.4.21.17.43.32.64.47v0c0-.25.07-.27.37-.27s.39.05.39.25-.07.28-.39.28h0c.43.29.82.53,1.12.71A.48.48,0,0,0,18,28.68Zm.86.56v.13l.24.13.45-.25h-.7Zm2.21-.95-.69.46v0h0l0,.06L20,29h-.12c-.65,0-1-.07-1-.78s.35-.91,1.05-.91C20.78,27.3,21,27.47,21.05,28.29Z" transform="translate(-1.64 -1.51)" style="fill:url(#linear-gradient-5)"/><path d="M52,34.63H50.46l-2.32-8h0l-2.35,8H44.26l-2.72-8.87h1L45,33.86h0l2.39-8.1h1.48l2.36,8.1h0l2.47-8.1h1Z" transform="translate(-1.64 -1.51)"/><path d="M56.55,29.18h0c.29-.75,1.2-.83,1.91-.83,1.6,0,2.37.43,2.35,2.15v4.13H59.9v-4.2c0-1.13-.44-1.32-1.49-1.32-1.52,0-1.86.47-1.86,1.9v3.62h-.93V25.76h.93Z" transform="translate(-1.64 -1.51)"/><path d="M67.72,32.75V33c0,1.65-1.26,1.73-2.65,1.73-2.42,0-2.79-.8-2.79-3.17,0-2.58.57-3.18,2.79-3.18,2,0,2.65.46,2.65,2.76v.62H63.25c0,2,.14,2.21,1.82,2.21,1.28,0,1.69-.08,1.69-.95v-.24Zm-1-1.77c0-1.77-.26-1.87-1.68-1.87-1.69,0-1.75.43-1.82,1.87Z" transform="translate(-1.64 -1.51)"/><path d="M70,28.42l0,.77,0,0a1.8,1.8,0,0,1,1.76-.86,1.52,1.52,0,0,1,1.73,1.75v.45h-.89v-.41c0-.77-.26-1-1-1-1.16,0-1.53.55-1.51,1.65v3.87H69V28.42Z" transform="translate(-1.64 -1.51)"/><path d="M79.63,32.75V33c0,1.65-1.26,1.73-2.65,1.73-2.42,0-2.79-.8-2.79-3.17,0-2.58.57-3.18,2.79-3.18,2,0,2.65.46,2.65,2.76v.62H75.16c0,2,.14,2.21,1.82,2.21,1.28,0,1.69-.08,1.69-.95v-.24Zm-1-1.77c0-1.77-.26-1.87-1.68-1.87-1.69,0-1.75.43-1.82,1.87Z" transform="translate(-1.64 -1.51)"/><path d="M91.45,26.69l-5.58,7.05h5.7v.89H84.65v-.88l5.57-7.1H84.81v-.89h6.64Z" transform="translate(-1.64 -1.51)"/><path d="M97.93,32.75V33c0,1.65-1.26,1.73-2.65,1.73-2.42,0-2.79-.8-2.79-3.17,0-2.58.57-3.18,2.79-3.18,2,0,2.65.46,2.65,2.76v.62H93.46c0,2,.14,2.21,1.82,2.21,1.28,0,1.7-.08,1.7-.95v-.24ZM97,31c0-1.77-.26-1.87-1.68-1.87-1.69,0-1.75.43-1.82,1.87Z" transform="translate(-1.64 -1.51)"/><path d="M100.16,28.42l0,.77,0,0a1.81,1.81,0,0,1,1.77-.86c1.19,0,1.72.59,1.72,1.75v.45h-.88v-.41c0-.77-.26-1-1-1-1.16,0-1.54.55-1.52,1.65v3.87h-.93V28.42Z" transform="translate(-1.64 -1.51)"/><path d="M107.16,28.35c2.31,0,2.76.56,2.76,3.18s-.45,3.17-2.76,3.17-2.76-.55-2.76-3.17S104.85,28.35,107.16,28.35Zm0,5.59c1.67,0,1.79-.26,1.79-2.41s-.12-2.42-1.79-2.42-1.79.26-1.79,2.42S105.49,33.94,107.16,33.94Z" transform="translate(-1.64 -1.51)"/><path d="M118.54,34.63h-1v-8h-2.87v-.89h6.75v.89h-2.87Z" transform="translate(-1.64 -1.51)"/><path d="M122.25,28.42l0,.77,0,0a1.8,1.8,0,0,1,1.76-.86,1.52,1.52,0,0,1,1.73,1.75v.45h-.89v-.41c0-.77-.26-1-1-1-1.16,0-1.54.55-1.51,1.65v3.87h-.94V28.42Z" transform="translate(-1.64 -1.51)"/><path d="M130.85,33.8h0c-.33.76-1.12.9-1.94.9-1.64,0-2.22-.66-2.22-2.29v-4h.93v4c0,1,.07,1.53,1.28,1.53s2-.21,2-1.69V28.42h.93v6.21h-1Z" transform="translate(-1.64 -1.51)"/><path d="M138.35,30h-1V29.8c0-.62-.47-.62-1.45-.62-1.17,0-1.74,0-1.74.75,0,1.12.31,1,1.28,1.08,1.6.1,3.05-.15,3.05,1.87,0,1.75-1.21,1.82-2.59,1.82s-2.76-.07-2.76-1.45v-.58h1v.48c0,.59.37.72,1.79.72.64,0,1.62.15,1.62-.95s-.48-1-1.62-1c-1.35-.1-2.71.05-2.71-1.72s1-1.83,2.71-1.83c1.09,0,2.42,0,2.42,1.45Z" transform="translate(-1.64 -1.51)"/><path d="M143.07,29.18h-2.4v3.94c0,.67.19.82.88.82.87,0,.87-.46.87-1v-.46h.89v.46c0,1.23-.51,1.81-1.78,1.81-1.46,0-1.79-.41-1.79-1.87V29.18h-.83v-.76h.83v-1.5h.93v1.5h2.4Z" transform="translate(-1.64 -1.51)"/><path d="M148.11,34.63V25.76h4.5c1.67,0,2.06.79,2.06,2.34,0,.94-.19,1.56-1.11,1.87v0c1.18.22,1.37,1.07,1.37,2.17,0,1.59-.59,2.47-2.1,2.47Zm1-5H152c1.21,0,1.62-.28,1.62-1.66,0-1.19-.46-1.32-1.51-1.32h-3Zm0,4.11h3.18c1.09,0,1.62-.13,1.62-1.49,0-1.17-.18-1.76-1.5-1.74h-3.3Z" transform="translate(-1.64 -1.51)"/><path d="M161.66,32.75V33c0,1.65-1.27,1.73-2.65,1.73-2.43,0-2.79-.8-2.79-3.17,0-2.58.57-3.18,2.79-3.18,2,0,2.65.46,2.65,2.76v.62h-4.47c0,2,.14,2.21,1.82,2.21,1.28,0,1.69-.08,1.69-.95v-.24Zm-1-1.77c-.05-1.77-.26-1.87-1.68-1.87-1.69,0-1.75.43-1.82,1.87Z" transform="translate(-1.64 -1.51)"/><path d="M168.29,35.36c0,1.66-1.23,2-2.73,2s-2.58-.23-2.48-2H164c0,1.2.57,1.27,1.55,1.27s1.79-.12,1.8-1.34V33.86h0c-.26.76-1.27.84-2,.84-2,0-2.45-1-2.45-3.17s.32-3.18,2.45-3.18c.86,0,1.63.12,2,.86h0v-.78h.93Zm-.93-3.83c0-1.73-.12-2.42-1.8-2.42s-1.7.79-1.7,2.42-.11,2.41,1.7,2.41S167.36,32.92,167.36,31.53Z" transform="translate(-1.64 -1.51)"/><path d="M170.8,26.79h-.93v-1h.93Zm0,7.84h-.93V28.42h.93Z" transform="translate(-1.64 -1.51)"/><path d="M173.36,29.18h0c.3-.75,1.21-.83,1.92-.83,1.6,0,2.36.43,2.34,2.15v4.13h-.93v-4.2c0-1.13-.44-1.32-1.49-1.32-1.53,0-1.86.47-1.86,1.9v3.62h-.94V28.42h.94Z" transform="translate(-1.64 -1.51)"/><path d="M184.19,30h-1V29.8c0-.62-.47-.62-1.45-.62-1.17,0-1.74,0-1.74.75,0,1.12.31,1,1.28,1.08,1.59.1,3.05-.15,3.05,1.87,0,1.75-1.21,1.82-2.59,1.82S179,34.63,179,33.25v-.58h1v.48c0,.59.37.72,1.79.72.64,0,1.62.15,1.62-.95s-.49-1-1.62-1c-1.35-.1-2.71.05-2.71-1.72s1-1.83,2.71-1.83c1.09,0,2.42,0,2.42,1.45Z" transform="translate(-1.64 -1.51)"/></svg>