<svg width="16" height="16" viewBox="0 0 16 16" fill="none" xmlns="http://www.w3.org/2000/svg">
<g clip-path="url(#clip0_1545_13131)">
<path d="M8 15.5C3.85786 15.5 0.5 12.1421 0.5 8C0.5 3.85786 3.85786 0.5 8 0.5C12.1421 0.5 15.5 3.85786 15.5 8C15.5 12.1421 12.1421 15.5 8 15.5Z" fill="#018FF600" stroke="white"/>
<path d="M7.99996 5.33341C8.73663 5.33341 9.33329 4.73675 9.33329 4.00008C9.33329 3.26341 8.73663 2.66675 7.99996 2.66675C7.26329 2.66675 6.66663 3.26341 6.66663 4.00008C6.66663 4.73675 7.26329 5.33341 7.99996 5.33341ZM7.99996 6.66675C7.26329 6.66675 6.66663 7.26341 6.66663 8.00008C6.66663 8.73675 7.26329 9.33341 7.99996 9.33341C8.73663 9.33341 9.33329 8.73675 9.33329 8.00008C9.33329 7.26341 8.73663 6.66675 7.99996 6.66675ZM7.99996 10.6667C7.26329 10.6667 6.66663 11.2634 6.66663 12.0001C6.66663 12.7367 7.26329 13.3334 7.99996 13.3334C8.73663 13.3334 9.33329 12.7367 9.33329 12.0001C9.33329 11.2634 8.73663 10.6667 7.99996 10.6667Z" fill="white"/>
</g>
<defs>
<clipPath id="clip0_1545_13131">
<rect width="16" height="16" fill="white"/>
</clipPath>
</defs>
</svg>
