<svg width="150" height="150" viewBox="0 0 150 150" fill="none" xmlns="http://www.w3.org/2000/svg">
    <g style="mix-blend-mode:multiply" opacity="0.2">
        <path d="M74.7404 4.017C91.4629 4.03797 107.639 9.97163 120.409 20.7687C133.179 31.5658 141.719 46.5306 144.52 63.017H148.59C146.148 47.4122 138.791 32.9934 127.59 21.857C120.661 14.9054 112.423 9.39602 103.351 5.64735C94.2799 1.89868 84.5557 -0.0149766 74.7404 0.0169957C64.9268 -0.0010671 55.2069 1.92592 46.1425 5.6866C37.0781 9.44728 28.8488 14.9671 21.9303 21.927C10.7295 33.0634 3.37298 47.4822 0.930314 63.087H5.00026C7.78512 46.5946 16.3135 31.6186 29.0764 20.8083C41.8394 9.99806 58.0145 4.05022 74.7404 4.017ZM149.39 70.727H145.39C145.47 72.067 145.52 73.417 145.52 74.727C145.496 93.4881 138.032 111.474 124.765 124.739C111.498 138.004 93.5114 145.466 74.7503 145.487C55.99 145.466 38.0043 138.004 24.7388 124.738C11.4733 111.473 4.01155 93.4872 3.99037 74.727C3.99037 73.367 3.99025 72.017 4.12025 70.727H0.120255C0.0502551 72.067 0.000259989 73.417 0.000259989 74.727C-0.025726 84.5483 1.89652 94.2772 5.65566 103.351C9.41479 112.424 14.9362 120.662 21.9003 127.587C28.8259 134.551 37.0638 140.072 46.1371 143.831C55.2104 147.59 64.9391 149.512 74.7603 149.487C84.5831 149.513 94.3136 147.591 103.389 143.832C112.464 140.073 120.703 134.551 127.63 127.587C134.594 120.662 140.116 112.424 143.875 103.351C147.634 94.2772 149.556 84.5483 149.53 74.727C149.51 73.437 149.46 72.087 149.39 70.747V70.727Z" fill="black" />
    </g>
</svg>
