<svg width="145" height="124" viewBox="0 0 145 124" fill="none" xmlns="http://www.w3.org/2000/svg">
<path d="M86.6563 100.194H9.31169C4.17711 100.194 0 96.0165 0 90.8824V9.49601C0 4.36165 4.17711 0.184326 9.31169 0.184326H106.757C111.891 0.184326 116.068 4.36165 116.068 9.49601V65.1311H111.467V9.49601C111.467 6.89856 109.354 4.7857 106.757 4.7857H9.31169C6.71423 4.7857 4.60137 6.89856 4.60137 9.49601V90.8824C4.60137 93.4796 6.71423 95.5927 9.31169 95.5927H86.6563V100.194Z" fill="#B7B7B7"/>
<path d="M113.452 18.4066H2.30054V23.008H113.452V18.4066Z" fill="#B7B7B7"/>
<path d="M16.9268 11.7332C16.9268 12.8634 16.0112 13.7803 14.8808 13.7803C13.7504 13.7803 12.8335 12.8637 12.8335 11.7332C12.8335 10.6028 13.7504 9.68613 14.8808 9.68613C16.0112 9.68613 16.9268 10.6028 16.9268 11.7332Z" fill="#B7B7B7"/>
<path d="M27.6156 11.7332C27.6156 12.8634 26.6987 13.7803 25.5683 13.7803C24.438 13.7803 23.5214 12.8637 23.5214 11.7332C23.5214 10.6028 24.438 9.68613 25.5683 9.68613C26.6987 9.68613 27.6156 10.6028 27.6156 11.7332Z" fill="#B7B7B7"/>
<path d="M103.362 9.42004H35.0052V14.0214H103.362V9.42004Z" fill="#B7B7B7"/>
<path d="M115.904 123.061C131.973 123.061 145 110.034 145 93.9651C145 77.8958 131.973 64.8692 115.904 64.8692C99.8349 64.8692 86.8082 77.8958 86.8082 93.9651C86.8082 110.034 99.8349 123.061 115.904 123.061Z" fill="#DD0000"/>
<path d="M40.4601 40.8167H35.8588V53.7873H40.4601V40.8167Z" fill="#B7B7B7"/>
<path d="M80.7737 40.8167H76.1724V53.7873H80.7737V40.8167Z" fill="#B7B7B7"/>
<path d="M119.381 109.255C119.381 111.233 117.776 112.836 115.798 112.836C113.82 112.836 112.216 111.233 112.216 109.255C112.216 107.277 113.82 105.673 115.798 105.673C117.776 105.673 119.381 107.277 119.381 109.255Z" fill="white"/>
<path d="M115.848 102.481C114.577 102.481 113.547 101.451 113.547 100.18V76.7825C113.547 75.512 114.577 74.4814 115.848 74.4814C117.118 74.4814 118.148 75.512 118.148 76.7825V100.18C118.148 101.451 117.118 102.481 115.848 102.481Z" fill="white"/>
<path d="M81.6288 72.8699H35.3557V77.4715H81.6288V72.8699Z" fill="#B7B7B7"/>
</svg>
