<svg width="16" height="16" viewBox="0 0 16 16" fill="none" xmlns="http://www.w3.org/2000/svg">
<g clip-path="url(#clip0_1757_12334)">
<rect width="16" height="16" fill="#0094fd00"/>
<path d="M2.66663 5.33329L2.20701 5.79291L1.74739 5.33329L2.20701 4.87367L2.66663 5.33329ZM5.99996 13.3166C5.64097 13.3166 5.34996 13.0256 5.34996 12.6666C5.34996 12.3076 5.64097 12.0166 5.99996 12.0166L5.99996 13.3166ZM5.54034 9.12625L2.20701 5.79291L3.12624 4.87367L6.45958 8.20701L5.54034 9.12625ZM2.20701 4.87367L5.54034 1.54034L6.45958 2.45958L3.12624 5.79291L2.20701 4.87367ZM2.66663 4.68329L9.66662 4.68329L9.66662 5.98329L2.66663 5.98329L2.66663 4.68329ZM9.66663 13.3166L5.99996 13.3166L5.99996 12.0166L9.66663 12.0166L9.66663 13.3166ZM13.9833 8.99996C13.9833 11.384 12.0507 13.3166 9.66663 13.3166L9.66663 12.0166C11.3327 12.0166 12.6833 10.666 12.6833 8.99996L13.9833 8.99996ZM9.66662 4.68329C12.0507 4.68329 13.9833 6.61593 13.9833 8.99996L12.6833 8.99996C12.6833 7.3339 11.3327 5.98329 9.66662 5.98329L9.66662 4.68329Z" fill="#0094fd"/>
</g>
<defs>
<clipPath id="clip0_1757_12334">
<rect width="16" height="16" fill="#0094fd00"/>
</clipPath>
</defs>
</svg>
