<svg width="59" height="46" viewBox="0 0 59 46" fill="none" xmlns="http://www.w3.org/2000/svg">
<path d="M1.316 14V4.2H3.136V12.46H8.26V14H1.316ZM12.8205 14.098C12.0552 14.098 11.3738 13.9347 10.7765 13.608C10.1792 13.272 9.70783 12.8147 9.3625 12.236C9.01717 11.6573 8.8445 10.9993 8.8445 10.262C8.8445 9.51533 9.01717 8.85733 9.3625 8.288C9.70783 7.70933 10.1792 7.25667 10.7765 6.93C11.3738 6.60333 12.0552 6.44 12.8205 6.44C13.5952 6.44 14.2812 6.60333 14.8785 6.93C15.4852 7.25667 15.9565 7.70467 16.2925 8.274C16.6378 8.84333 16.8105 9.506 16.8105 10.262C16.8105 10.9993 16.6378 11.6573 16.2925 12.236C15.9565 12.8147 15.4852 13.272 14.8785 13.608C14.2812 13.9347 13.5952 14.098 12.8205 14.098ZM12.8205 12.6C13.2498 12.6 13.6325 12.5067 13.9685 12.32C14.3045 12.1333 14.5658 11.8627 14.7525 11.508C14.9485 11.1533 15.0465 10.738 15.0465 10.262C15.0465 9.77667 14.9485 9.36133 14.7525 9.016C14.5658 8.66133 14.3045 8.39067 13.9685 8.204C13.6325 8.01733 13.2545 7.924 12.8345 7.924C12.4052 7.924 12.0225 8.01733 11.6865 8.204C11.3598 8.39067 11.0985 8.66133 10.9025 9.016C10.7065 9.36133 10.6085 9.77667 10.6085 10.262C10.6085 10.738 10.7065 11.1533 10.9025 11.508C11.0985 11.8627 11.3598 12.1333 11.6865 12.32C12.0225 12.5067 12.4005 12.6 12.8205 12.6ZM22.9942 14V12.488L22.8962 12.166V9.52C22.8962 9.00667 22.7422 8.61 22.4342 8.33C22.1262 8.04067 21.6596 7.896 21.0342 7.896C20.6142 7.896 20.1989 7.96133 19.7882 8.092C19.3869 8.22267 19.0462 8.40467 18.7662 8.638L18.0802 7.364C18.4816 7.056 18.9576 6.82733 19.5082 6.678C20.0682 6.51933 20.6469 6.44 21.2442 6.44C22.3269 6.44 23.1622 6.70133 23.7502 7.224C24.3476 7.73733 24.6462 8.53533 24.6462 9.618V14H22.9942ZM20.6422 14.098C20.0822 14.098 19.5922 14.0047 19.1722 13.818C18.7522 13.622 18.4256 13.356 18.1922 13.02C17.9682 12.6747 17.8562 12.2873 17.8562 11.858C17.8562 11.438 17.9542 11.06 18.1502 10.724C18.3556 10.388 18.6869 10.122 19.1442 9.926C19.6016 9.73 20.2082 9.632 20.9642 9.632H23.1342V10.794H21.0902C20.4929 10.794 20.0916 10.892 19.8862 11.088C19.6809 11.2747 19.5782 11.508 19.5782 11.788C19.5782 12.1053 19.7042 12.3573 19.9562 12.544C20.2082 12.7307 20.5582 12.824 21.0062 12.824C21.4356 12.824 21.8182 12.726 22.1542 12.53C22.4996 12.334 22.7469 12.0447 22.8962 11.662L23.1902 12.712C23.0222 13.1507 22.7189 13.4913 22.2802 13.734C21.8509 13.9767 21.3049 14.098 20.6422 14.098ZM30.0698 14.098C29.3511 14.098 28.7025 13.9393 28.1238 13.622C27.5545 13.2953 27.1065 12.8473 26.7798 12.278C26.4531 11.7087 26.2898 11.0367 26.2898 10.262C26.2898 9.48733 26.4531 8.81533 26.7798 8.246C27.1065 7.67667 27.5545 7.23333 28.1238 6.916C28.7025 6.59867 29.3511 6.44 30.0698 6.44C30.6951 6.44 31.2551 6.58 31.7498 6.86C32.2445 7.13067 32.6365 7.546 32.9258 8.106C33.2151 8.666 33.3598 9.38467 33.3598 10.262C33.3598 11.13 33.2198 11.8487 32.9398 12.418C32.6598 12.978 32.2725 13.398 31.7778 13.678C31.2831 13.958 30.7138 14.098 30.0698 14.098ZM30.2798 12.6C30.6998 12.6 31.0731 12.5067 31.3998 12.32C31.7358 12.1333 32.0018 11.8627 32.1978 11.508C32.4031 11.1533 32.5058 10.738 32.5058 10.262C32.5058 9.77667 32.4031 9.36133 32.1978 9.016C32.0018 8.66133 31.7358 8.39067 31.3998 8.204C31.0731 8.01733 30.6998 7.924 30.2798 7.924C29.8598 7.924 29.4818 8.01733 29.1458 8.204C28.8191 8.39067 28.5531 8.66133 28.3478 9.016C28.1518 9.36133 28.0538 9.77667 28.0538 10.262C28.0538 10.738 28.1518 11.1533 28.3478 11.508C28.5531 11.8627 28.8191 12.1333 29.1458 12.32C29.4818 12.5067 29.8598 12.6 30.2798 12.6ZM32.5478 14V12.236L32.6178 10.248L32.4778 8.26V3.612H34.2138V14H32.5478ZM36.5171 14V6.524H38.2671V14H36.5171ZM37.3991 5.292C37.0725 5.292 36.8018 5.18933 36.5871 4.984C36.3818 4.77867 36.2791 4.53133 36.2791 4.242C36.2791 3.94333 36.3818 3.696 36.5871 3.5C36.8018 3.29467 37.0725 3.192 37.3991 3.192C37.7258 3.192 37.9918 3.29 38.1971 3.486C38.4118 3.67267 38.5191 3.91067 38.5191 4.2C38.5191 4.508 38.4165 4.76933 38.2111 4.984C38.0058 5.18933 37.7351 5.292 37.3991 5.292ZM44.806 6.44C45.4033 6.44 45.9353 6.55667 46.402 6.79C46.878 7.02333 47.2513 7.38267 47.522 7.868C47.7927 8.344 47.928 8.96 47.928 9.716V14H46.178V9.94C46.178 9.27733 46.0193 8.78267 45.702 8.456C45.394 8.12933 44.96 7.966 44.4 7.966C43.9893 7.966 43.6253 8.05 43.308 8.218C42.9907 8.386 42.7433 8.638 42.566 8.974C42.398 9.30067 42.314 9.716 42.314 10.22V14H40.564V6.524H42.23V8.54L41.936 7.924C42.1973 7.448 42.5753 7.084 43.07 6.832C43.574 6.57067 44.1527 6.44 44.806 6.44ZM53.5497 16.814C52.859 16.814 52.1823 16.7207 51.5197 16.534C50.8663 16.3567 50.3297 16.0953 49.9097 15.75L50.6937 14.434C51.0203 14.7047 51.431 14.9193 51.9257 15.078C52.4297 15.246 52.9383 15.33 53.4517 15.33C54.273 15.33 54.875 15.1387 55.2577 14.756C55.6403 14.3827 55.8317 13.818 55.8317 13.062V11.732L55.9717 10.038L55.9157 8.344V6.524H57.5817V12.866C57.5817 14.2193 57.2363 15.2133 56.5457 15.848C55.855 16.492 54.8563 16.814 53.5497 16.814ZM53.3257 13.664C52.6163 13.664 51.9723 13.5147 51.3937 13.216C50.8243 12.908 50.3717 12.4833 50.0357 11.942C49.709 11.4007 49.5457 10.766 49.5457 10.038C49.5457 9.31933 49.709 8.68933 50.0357 8.148C50.3717 7.60667 50.8243 7.18667 51.3937 6.888C51.9723 6.58933 52.6163 6.44 53.3257 6.44C53.9603 6.44 54.5297 6.566 55.0337 6.818C55.5377 7.07 55.939 7.462 56.2377 7.994C56.5457 8.526 56.6997 9.20733 56.6997 10.038C56.6997 10.8687 56.5457 11.5547 56.2377 12.096C55.939 12.628 55.5377 13.0247 55.0337 13.286C54.5297 13.538 53.9603 13.664 53.3257 13.664ZM53.5917 12.18C54.0303 12.18 54.4223 12.0913 54.7677 11.914C55.113 11.7273 55.379 11.4753 55.5657 11.158C55.7617 10.8313 55.8597 10.458 55.8597 10.038C55.8597 9.618 55.7617 9.24933 55.5657 8.932C55.379 8.60533 55.113 8.358 54.7677 8.19C54.4223 8.01267 54.0303 7.924 53.5917 7.924C53.153 7.924 52.7563 8.01267 52.4017 8.19C52.0563 8.358 51.7857 8.60533 51.5897 8.932C51.403 9.24933 51.3097 9.618 51.3097 10.038C51.3097 10.458 51.403 10.8313 51.5897 11.158C51.7857 11.4753 52.0563 11.7273 52.4017 11.914C52.7563 12.0913 53.153 12.18 53.5917 12.18Z" fill="#018FF6"/>
<circle cx="15.5" cy="39.5" r="4" transform="rotate(180 15.5 39.5)" fill="#2D2D2D"/>
<circle cx="29.5" cy="39.5" r="4" transform="rotate(180 29.5 39.5)" fill="#D9D9D9"/>
<circle cx="43.5" cy="39.5" r="4" transform="rotate(180 43.5 39.5)" fill="#D9D9D9"/>
</svg>
