<?xml version="1.0" encoding="utf-8"?>
<!-- Generator: Adobe Illustrator 25.4.1, SVG Export Plug-In . SVG Version: 6.00 Build 0)  -->
<svg version="1.1" id="Layer_1" xmlns="http://www.w3.org/2000/svg" xmlns:xlink="http://www.w3.org/1999/xlink" x="0px" y="0px"
	 viewBox="0 0 58 72" style="enable-background:new 0 0 58 72;" xml:space="preserve">
<style type="text/css">
	.st0{fill:#FFEEC8;}
	.st1{fill:#0094FD;stroke:#FFFFFF;stroke-width:0.8;stroke-linecap:round;stroke-linejoin:round;}
	.st2{fill:#F5B31F;}
</style>
<g>
	<rect x="20.5" y="11.7" class="st0" width="22" height="28"/>
	<path class="st1" d="M47.3,27.2c0,0.1,0,0.1,0,0.2l8.3,16.6V53l-9,17.9H28l-4.8-9.6v-9.1l2.8-5.7c0.1-0.1,0.1-0.3,0-0.4
		c-0.1-0.1-0.2-0.2-0.3-0.2H14.9V29.6c0-0.2-0.1-0.4-0.3-0.4c-6.9-1-12.1-6.9-12.1-14c0-7.8,6.3-14.1,14.1-14.1c3.8,0,7.3,1.5,9.9,4
		c0.1,0.1,0.2,0.1,0.3,0.1h20.6V27.2z M18.2,42.2c0,0.2,0.2,0.4,0.4,0.4h8.3c0.2,0,0.4-0.2,0.4-0.4V31.8c0-3.2,2.6-5.8,5.8-5.8
		s5.8,2.6,5.8,5.8v10.4c0,0.2,0.2,0.4,0.4,0.4h4.2c0.2,0,0.4-0.2,0.4-0.4V9c0-0.2-0.2-0.4-0.4-0.4H29.7c-0.1,0-0.3,0.1-0.3,0.2
		c-0.1,0.1-0.1,0.3,0,0.4c0.9,1.8,1.4,3.9,1.4,6.1c0,7.1-5.3,13-12.1,14c-0.2,0-0.3,0.2-0.3,0.4V42.2z M52.2,52.3c0-0.1,0-0.1,0-0.2
		v-7.3c0-0.1,0-0.1,0-0.2l-4.2-8.4c-0.1-0.2-0.3-0.3-0.4-0.2c-0.2,0-0.3,0.2-0.3,0.4V46h-6.6c-0.1,0-0.3,0.1-0.3,0.2
		c-0.1,0.1-0.1,0.3,0,0.4l2.5,5l-3,1.5l-4.2-8.3V31.8c0-1.4-1.1-2.5-2.5-2.5s-2.5,1.1-2.5,2.5v12.9l-4.1,8.2c0,0.1,0,0.1,0,0.2v7.3
		c0,0.1,0,0.1,0,0.2l3.4,6.7c0.1,0.1,0.2,0.2,0.4,0.2h14.1c0.2,0,0.3-0.1,0.4-0.2L52.2,52.3z M16.5,4.4c-6,0-10.8,4.8-10.8,10.8
		c0,6,4.8,10.8,10.8,10.8c6,0,10.8-4.8,10.8-10.8C27.3,9.2,22.5,4.4,16.5,4.4z"/>
	<path class="st2" d="M16.1,18.3c-0.6,0-1.1-0.5-1.1-1.1V8.4c0-0.6,0.5-1.1,1.1-1.1s1.1,0.5,1.1,1.1v8.8
		C17.2,17.8,16.7,18.3,16.1,18.3z"/>
	<path class="st2" d="M16.1,23.3c0.9,0,1.6-0.7,1.6-1.5s-0.7-1.5-1.6-1.5s-1.6,0.7-1.6,1.5S15.2,23.3,16.1,23.3z"/>
</g>
</svg>
