<svg id="Layer_1" data-name="Layer 1" xmlns="http://www.w3.org/2000/svg" xmlns:xlink="http://www.w3.org/1999/xlink" viewBox="0 0 150 150"><defs><linearGradient id="linear-gradient" x1="45.91" y1="125" x2="187.98" y2="125" gradientUnits="userSpaceOnUse"><stop offset="0.62" stop-color="#fff"/><stop offset="0.64" stop-color="#f1f1f1" stop-opacity="0.99"/><stop offset="0.69" stop-color="#cecece" stop-opacity="0.98"/><stop offset="0.76" stop-color="#949494" stop-opacity="0.96"/><stop offset="0.84" stop-color="#454545" stop-opacity="0.93"/><stop offset="0.91" stop-opacity="0.9"/></linearGradient><mask id="mask" x="-2" y="-2" width="204.6" height="250" maskUnits="userSpaceOnUse"><g transform="translate(-2 -2)"><rect width="200" height="250" style="opacity:0.25;fill:url(#linear-gradient)"/></g></mask><linearGradient id="linear-gradient-2" x1="11.1" y1="210.36" x2="112.16" y2="35.32" gradientTransform="matrix(1, 0, 0, -1, 0, 250)" gradientUnits="userSpaceOnUse"><stop offset="0.09" stop-color="#263081"/><stop offset="0.65" stop-color="#1b75bb"/><stop offset="1" stop-color="#26a9e0"/></linearGradient><linearGradient id="linear-gradient-3" x1="199.35" y1="201.29" x2="2.58" y2="201.29" gradientTransform="matrix(1, 0, 0, -1, 0, 250)" gradientUnits="userSpaceOnUse"><stop offset="0.12" stop-color="#263081"/><stop offset="0.65" stop-color="#1b75bb"/><stop offset="1" stop-color="#26a9e0"/></linearGradient><linearGradient id="linear-gradient-4" x1="151.47" y1="61.22" x2="151.47" y2="248" gradientTransform="matrix(1, 0, 0, -1, 0, 250)" gradientUnits="userSpaceOnUse"><stop offset="0" stop-color="#263081"/><stop offset="0.46" stop-color="#1b75bb"/><stop offset="1" stop-color="#26a9e0"/></linearGradient><linearGradient id="linear-gradient-5" x1="74.05" y1="205.61" x2="139.95" y2="111.51" gradientTransform="matrix(1, 0, 0, -1, 0, 250)" gradientUnits="userSpaceOnUse"><stop offset="0" stop-color="#4e4f51"/><stop offset="0.48" stop-color="#7e8081"/><stop offset="0.67" stop-color="#a4a5a7"/><stop offset="0.88" stop-color="#c6c7c9"/><stop offset="1" stop-color="#d3d4d6"/></linearGradient><linearGradient id="linear-gradient-6" x1="74.1" y1="206.04" x2="140.71" y2="110.91" gradientTransform="matrix(1, 0, 0, -1, 0, 250)" gradientUnits="userSpaceOnUse"><stop offset="0" stop-color="#fff" stop-opacity="0.8"/><stop offset="0.74" stop-color="#fff" stop-opacity="0"/></linearGradient></defs><g style="mask:url(#mask)"><path d="M47,18.93A101,101,0,0,0,103,204a97.91,97.91,0,0,0,54.88-16.35c-14,2.34-27.44,0-36.2-1.75-8.17-1.75-13.42-4.67-18.1-6.42-9.92-4.67-14-8.18-21.6-13.43-11.09-7-24.52-25.11-31.53-42S44,85.49,44,66.81C44.62,52.8,46.37,30,47,18.93Z" transform="translate(-2 -2)" style="fill:url(#linear-gradient-2)"/><path d="M19.52,64.47C29.44,54.55,47,38.78,100.67,38.2c46.13-.58,84.08,23.36,98.68,32.7A101.3,101.3,0,0,0,4.34,82,104.65,104.65,0,0,0,2.58,95.42C4.92,85.49,8.42,75,19.52,64.47Z" transform="translate(-2 -2)" style="fill:url(#linear-gradient-3)"/><path d="M110,2h1.16c38.54,4.67,53.14,32.11,56.06,47.29h0c-.59,33.87-.59,88.17-68.9,127.29a53.71,53.71,0,0,0,5.84,2.92c4.67,1.75,9.92,4.67,18.1,6.42a88.83,88.83,0,0,0,36.2,1.75A100.08,100.08,0,0,0,204.6,103C204.6,49.29,162.57,5.5,110,2Z" transform="translate(-2 -2)" style="fill:url(#linear-gradient-4)"/><path d="M40,49.29s21-11.67,63.64-11.67,63.06,11.67,63.06,11.67,1.75,50.8-8.76,77.08c-13.42,35.61-54.3,52.54-54.3,52.54S60.39,161.4,47,123.45C38.2,97.17,40,49.29,40,49.29Z" transform="translate(-2 -2)" style="fill:#fff"/><path d="M54,58.64s15.77-6.43,49.63-6.43,49,6.43,49,6.43,1.75,40.28-7.59,62.47c-10.51,26.27-42,42-42,42s-33.28-16.93-41.45-42C52.21,93.67,54,58.64,54,58.64Z" transform="translate(-2 -2)" style="fill:url(#linear-gradient-5)"/><path d="M110.6,156.73c0,1.16-.58,1.16-1.75,1.16-1.75,0-2.34,0-2.34-1.16,0-1.75.59-1.75,2.34-1.75S110.6,155,110.6,156.73ZM77.9,52.8c-2.33,0-2.33,0-2.33,1.75,0,1.17.58,1.17,2.33,1.17s1.76,0,1.76-1.17C80.24,52.8,79.66,52.8,77.9,52.8Zm30.37,43.79c1.75,0,2.33,0,2.33-1.75,0-1.17,0-1.17-2.33-1.17-1.76,0-2.34,0-2.34,1.75C106.51,96.59,107.1,96.59,108.27,96.59Zm0,6.42c2.33,0,2.33-.58,2.33-1.75,0-1.75,0-1.75-2.33-1.75-1.76,0-2.34,0-2.34,1.75S106.51,103,108.27,103ZM90.75,96.59v3.5c0,2.92.58,2.92,2.33,2.92,2.34,0,2.34,0,2.34-2.92v-3.5c0-2.92-.58-2.92-2.34-2.92C90.75,93.67,90.75,93.67,90.75,96.59ZM72.65,79.66V76.15c0-2.92-.59-2.92-2.34-2.92-2.33,0-2.33,0-2.33,2.92v3.51c0,2.91.58,2.91,2.33,2.91S72.65,82.57,72.65,79.66Zm71.82-.59c-1.76,0-2.34,0-2.34,1.75,0,1.17.58,1.75,2.34,1.75,2.33,0,2.33-.58,2.33-1.75C146.8,79.07,146.8,79.07,144.47,79.07Zm0-2.92c1.75,0,2.33,0,2.33-1.75,0-1.17,0-1.17-2.33-1.17-1.76,0-2.34,0-2.34,1.75C142.71,76.15,143.3,76.15,144.47,76.15ZM63.89,65.06H68V62.14h1.17V59.22H68V53.38c-1.17,0-2.92.58-4.09.58v5.26H58.64l3.5-4.09a29.19,29.19,0,0,1-5.26,1.17l-1.16,1.17v4.67h8.17ZM83.74,51.63a8.58,8.58,0,0,1,.59,4.09V59.8c0,4.67-1.76,5.84-6.43,5.84-3.5,0-6.42,0-6.42-4.08V61h4.09c0,1.75.58,1.75,2.33,1.75s2.34,0,2.34-2.33V58.05h0c-.58,1.17-1.75,1.17-2.92,1.17-3.5,0-5.84-.58-5.84-4.67V53.38C75,52.21,79.07,52.21,83.74,51.63Zm7,9.93h-3.5v3.5h3.5Zm16.35.58H98.34c0-2.34,1.17-1.75,4.09-2.34,3.5-1.16,4.67-1.75,4.67-5.25a4.94,4.94,0,0,0-1.17-3.5H94.84c-.59.58-.59,1.75-.59,3.5v.58h4.09v-.58c0-1.75.58-1.75,2.33-1.75s2.34,0,2.34,1.75,0,1.75-2.92,2.33c-4.67,1.17-5.84,1.76-5.84,5.26v2.92H107.1Zm6.42-.58H110v3.5h3.5Zm8.17-8.18V65.06h4.09V51.63c-2.33,0-4.67-.58-7-.58L115.27,54l2.34,2.92Zm12.85,1.17V53.38c-1.17,0-2.92-.58-4.09-.58v2.33h4.09Zm8.76,7.59h-8.76c0-2.34,1.17-1.75,4.09-2.34,3.5-1.16,4.08-1.75,4.67-4.67-1.17,0-2.34-.58-4.09-.58v.58c0,1.75,0,1.75-2.92,2.34-4.67,1.17-5.84,1.75-5.84,5.25v2.34H143.3Zm10.51,0h-1.75c-1.76,0-2.34,0-2.34-1.75h-4.09V61c0,4.09,2.92,4.09,6.43,4.09h1.75Zm-2.34-2.92a3.54,3.54,0,0,0,2.34-.58V57.47a36.62,36.62,0,0,0-7.59-2.34C146.22,58.64,148,59.22,151.47,59.22Zm-89.91,21V75c0-5.25-3.51-5.83-6.43-5.83H53.38v3.5h1.75c2.34,0,2.34,0,2.34,2.92v3.5c0,2.92-.59,2.92-2.34,2.92H54a7.3,7.3,0,0,0,.59,3.5h1.17C58.05,86.08,61.56,85.49,61.56,80.24Zm8.75,5.84c-3.5,0-6.42,0-6.42-5.84V75c0-5.25,3.5-5.83,6.42-5.83,3.51,0,6.43,0,6.43,5.83v5.26C76.74,85.49,73.23,86.08,70.31,86.08ZM83.16,82h-3.5v3.5h3.5Zm7.59-8.17V86.08h4.67V70.31H90.17L84.33,75l2.33,2.92Zm22.19,7.59c0-1.75-.59-3.51-2.92-3.51h0c1.75,0,2.33-1.75,2.33-3.5,0-4.09-3.5-4.09-5.84-4.09-4.08,0-6.42.59-6.42,4.67v.59h4.09V75c0-1.75.58-1.75,2.33-1.75,2.34,0,2.34.59,2.34,1.75s0,1.17-2.34,1.17h-1.16v2.92h1.16c2.34,0,2.34.59,2.34,1.75,0,1.75-.58,1.75-2.34,1.75s-2.33,0-2.33-1.75v-.58h-4.09v.58c0,4.67,2.92,4.67,6.42,4.67C110,86.08,112.94,85.49,112.94,81.41Zm14.59-8.76V69.73H115.86v8.76h3.5c0-.59.58-.59,1.75-.59,2.34,0,2.34.59,2.34,2.34,0,2.33-.59,2.33-2.34,2.33-1.17,0-1.75,0-1.75-1.16h-4.09c0,4.08,2.34,4.67,5.84,4.67,4.67,0,6.42-.59,6.42-5.84,0-3.5-1.16-5.26-5.25-5.26-1.75,0-2.34,0-3.51,1.17V73.23h8.76Zm7,12.84V82H131v3.5Zm16.35-4.08c0,4.08-2.92,4.67-6.42,4.67S138,85.49,138,81.41c0-1.75.59-3.51,2.92-3.51h0c-1.75-.58-2.33-1.75-2.33-3.5,0-4.09,2.92-4.09,6.42-4.09s6.42.59,6.42,4.67c0,2.34-.58,2.92-2.33,3.51h0C150.3,77.9,150.89,79.66,150.89,81.41ZM61,100.67c0-3.5-1.17-5.25-5.25-5.25H54.55a25.18,25.18,0,0,0,.58,2.92c1.75,0,1.75.58,1.75,2.33,0,1.17,0,1.76-.58,1.76,0,1.16.58,2.33.58,3.5C59.8,105.93,61,104.76,61,100.67Zm-.58-10.5H54.55c0,1.16,0,2.33.58,2.91H61V90.17Zm4.08,16.34H68V103H64.47Zm15.19-6.42c3.5-1.17,4.67-1.75,4.67-5.25,0-4.67-2.34-5.26-6.43-5.26s-6.42.59-6.42,5.26v.58h4.09v-.58c0-1.76.58-1.76,2.33-1.76s2.34,0,2.34,1.76,0,1.75-2.92,2.33c-4.67,1.17-5.84,1.75-5.84,5.26v3.5H83.74v-3.5H75C75.57,100.67,76.15,101.26,79.66,100.09Zm13.42-9.92c3.51,0,6.43,0,6.43,5.83v5.26c0,5.25-3.51,5.84-6.43,5.84s-6.42,0-6.42-5.84V96C86.66,90.17,89.58,90.17,93.08,90.17Zm11.68,8.17h0c-1.75-.58-2.33-1.75-2.33-3.5,0-4.09,2.92-4.09,6.42-4.09s6.42.58,6.42,4.67c0,2.34-.58,2.92-2.33,3.5h0c2.33,0,2.92,1.75,2.92,3.51,0,4.08-2.92,4.67-6.43,4.67s-6.42-.59-6.42-4.67C101.84,100.09,103,98.34,104.76,98.34Zm16.93,4.09h-3.5v3.5h3.5Zm3.51-4.67,4.08-3.51v12.26h4.09V90.75h-5.25l-5.84,4.67Zm21,2.33c3.5-1.17,4.67-1.75,4.67-5.25,0-4.67-2.34-5.26-6.42-5.26s-6.43.59-6.43,5.26v.58h4.09v-.58c0-1.76.58-1.76,2.34-1.76s2.33,0,2.33,1.76,0,1.75-2.92,2.33c-4.67,1.17-5.84,1.75-5.84,5.26v3.5H150.3a24.8,24.8,0,0,1,.59-2.92h-8.76C142.13,100.67,143.3,101.26,146.22,100.09ZM68.56,123.45h-7a8.28,8.28,0,0,1,1.16,3.5h5.84Zm0-7.59c0-4.68-2.33-5.26-6.42-5.26a11.46,11.46,0,0,0-4.67.58c.58,1.76.58,3.51,1.17,5.26h1.75v-.58c0-1.76.58-1.76,2.33-1.76s2.34,0,2.34,1.76,0,1.75-2.92,2.33c-.58,0-1.17.58-1.75.58.58,1.17.58,2.34,1.17,2.92h0c.58-.58,1.75-.58,3.5-.58C67.39,119.94,68.56,119.36,68.56,115.86Zm2.92-1.76h7.59l-5.25,12.27H77.9l5.26-12.27v-3.5H70.9v3.5ZM89,122.86H85.49v3.51H89Zm1.17-7.59,2.33,2.92,4.09-3.5V127h4.08V111.18H95.42Zm15.76,7.59v3.51h3.5v-3.51Zm19.85.59H117c0-2.34,1.17-1.76,4.09-2.34,3.5-1.17,4.67-1.75,4.67-5.25,0-4.68-2.33-5.26-6.42-5.26s-6.42.58-6.42,5.26v.58H117v-.58c0-1.76.59-1.76,2.34-1.76s2.33,0,2.33,1.76,0,1.75-2.92,2.33c-4.67,1.17-5.83,1.75-5.83,5.26V127h12.84Zm12.85-4.68h0c1.75-.58,2.33-1.75,2.33-3.5,0-4.09-3.5-4.09-5.84-4.09-4.08,0-6.42.59-6.42,4.68v.58h4.09v-.58c0-1.76.58-1.76,2.33-1.76,2.34,0,2.34.59,2.34,1.76s0,1.16-2.34,1.16H134v2.92h1.16c2.34,0,2.34.59,2.34,1.75,0,1.76-.58,1.76-2.34,1.76s-2.33,0-2.33-1.76v-.58H128.7v.58c0,4.68,2.92,4.68,6.42,4.68s6.43-.59,6.43-4.68A2.73,2.73,0,0,0,138.63,118.77Zm5.25,3.51c0,1.17,0,1.75.59,2.33a9.76,9.76,0,0,0,1.16-2.92h-1.75Zm0-6.42c0,2.91.59,4.08,2.34,4.08a42.45,42.45,0,0,0,1.75-4.67c0-.58,0-1.17.58-1.17.59-1.16.59-2.33,1.17-3.5C145.63,110.6,143.88,111.77,143.88,115.86ZM66.81,133.37c.58,1.17,1.17,1.75,1.75,2.92l1.17-1.17V138a33,33,0,0,0,4.09,4.67V131.62H68.56Zm12.85,14h3.5v-3.5h-3.5Zm19.85-3.5H90.75c0-2.33,1.17-1.75,4.09-2.33,3.5-1.17,4.67-1.76,4.67-5.26,0-4.67-2.34-5.25-6.43-5.25s-6.42.58-6.42,5.25v.59h4.09v-.59c0-1.75.58-1.75,2.33-1.75s2.34,0,2.34,1.75,0,1.75-2.92,2.34c-4.67,1.16-5.84,1.75-5.84,5.25v3.5H99.51Zm8.76,0c-1.17,0-1.76,0-1.76-1.17h-4.08c0,4.09,2.33,4.67,5.84,4.67,4.67,0,6.42-.58,6.42-5.83,0-3.51-1.17-5.26-5.26-5.26-1.75,0-2.33,0-3.5,1.17v-2.92h7.59v-2.92H101.84v8.76h3.51c0-.59.58-.59,1.75-.59,2.33,0,2.33.59,2.33,2.34C110.6,143.88,110,143.88,108.27,143.88Zm9.92,3.5h3.5v-3.5h-3.5Zm4.67-11.09,2.34,2.92,4.08-3.5v10.51a33.59,33.59,0,0,0,4.09-4.67v-9.93h-5.25Zm15.77-1.17A13,13,0,0,1,141,132.2C139.21,132.2,138.63,133.37,138.63,135.12ZM97.17,159.65h0c1.75-.59,2.34-1.17,2.34-3.51,0-4.08-2.92-4.67-6.43-4.67-2.33,0-5.25,0-5.83,2.34,1.16,1.17,2.33,1.75,3.5,2.92h0c0-1.17.58-1.75,2.33-1.75,2.34,0,2.34.58,2.34,1.16,0,1.75-.58,1.75-2.34,1.75h0c2.34,1.76,4.68,2.92,6.43,4.09A2.51,2.51,0,0,0,97.17,159.65Zm4.67,2.92v.58h0l1.17.58a24.83,24.83,0,0,1,2.92-1.16h-4.09Zm12.85-5.26c-1.17,1.17-2.92,1.75-4.09,2.92h0v.58c-.58.59-1.17,1.17-1.75,1.17h-.58c-3.51,0-5.84-.58-5.84-4.67,0-4.67,1.75-5.25,5.84-5.25C112.94,151.47,114.69,152.64,114.69,157.31Z" transform="translate(-2 -2)" style="fill:url(#linear-gradient-6)"/></g></svg>
