<svg width="58" height="58" viewBox="0 0 58 58" fill="none" xmlns="http://www.w3.org/2000/svg">
<g clip-path="url(#clip0_1_22)">
<path opacity="0.2" d="M12.9195 4.87924C6.67315 9.17819 2.35903 15.7527 0.901509 23.194C-0.556016 30.6353 0.959002 38.3516 5.12195 44.6894C9.28489 51.0272 15.7646 55.4824 23.1727 57.1004C30.5808 58.7184 38.328 57.3705 44.7543 53.3455C41.277 53.836 37.7373 53.6389 34.336 52.7655C32.5493 52.3221 30.8124 51.6978 29.1522 50.9022C26.3247 49.6407 25.1793 48.5315 23.026 47.1105C19.8868 45.0297 16.0153 39.9185 13.9345 35.09C11.8538 30.2615 12.0423 24.0337 12.0785 18.6542C12.1075 14.6232 12.6368 7.99674 12.9195 4.87924Z" fill="url(#paint0_linear_1_22)"/>
<path d="M4.89375 17.9293C7.743 15.1163 12.6875 10.585 28.2098 10.3313C41.441 10.1065 52.3885 16.9433 56.4848 19.7563C54.4544 13.7415 50.5065 8.55903 45.2469 5.00424C39.9873 1.44945 33.7066 -0.281298 27.3685 0.0775858C21.0304 0.436469 14.9852 2.86516 10.1605 6.99095C5.33575 11.1168 1.99812 16.7117 0.659751 22.9173C0.500251 23.6423 0.195751 26.071 0.101501 26.8323C0.787822 23.4576 2.45488 20.3606 4.89375 17.9293Z" fill="url(#paint1_linear_1_22)"/>
<path opacity="0.2" d="M30.885 0.0652466H31.204C42.195 1.42825 46.4725 9.22925 47.2192 13.6735C46.9872 23.461 47.096 38.9035 27.5283 50.0902C28.0068 50.3512 28.536 50.6195 29.1523 50.895C30.8124 51.6906 32.5493 52.3149 34.336 52.7582C37.7373 53.6316 41.277 53.8287 44.7543 53.3382C49.8676 50.0241 53.8071 45.1835 56.0135 39.5036C58.2199 33.8237 58.5812 27.5931 57.046 21.6963C55.5108 15.7995 52.1571 10.536 47.4611 6.65314C42.765 2.77025 36.9653 0.465216 30.885 0.0652466Z" fill="url(#paint2_linear_1_22)"/>
</g>
<defs>
<linearGradient id="paint0_linear_1_22" x1="2.60275" y1="10.817" x2="31.581" y2="61.0015" gradientUnits="userSpaceOnUse">
<stop offset="0.09" stop-color="#2C347F"/>
<stop offset="0.65" stop-color="#1D76BB"/>
<stop offset="1" stop-color="#28A8E0"/>
</linearGradient>
<linearGradient id="paint1_linear_1_22" x1="56.4993" y1="13.427" x2="0.0797505" y2="13.427" gradientUnits="userSpaceOnUse">
<stop offset="0.12" stop-color="#2C347F"/>
<stop offset="0.65" stop-color="#1D76BB"/>
<stop offset="1" stop-color="#28A8E0"/>
</linearGradient>
<linearGradient id="paint2_linear_1_22" x1="42.7605" y1="53.6282" x2="42.7605" y2="0.0652466" gradientUnits="userSpaceOnUse">
<stop stop-color="#2C347F"/>
<stop offset="0.46" stop-color="#1D76BB"/>
<stop offset="1" stop-color="#28A8E0"/>
</linearGradient>
<clipPath id="clip0_1_22">
<rect width="58" height="58" fill="white"/>
</clipPath>
</defs>
</svg>
