<svg width="14" height="14" viewBox="0 0 14 14" fill="none" xmlns="http://www.w3.org/2000/svg">
<g clip-path="url(#clip0_628_1098)">
<path d="M7 14C10.866 14 14 10.866 14 7C14 3.13401 10.866 0 7 0C3.13401 0 0 3.13401 0 7C0 10.866 3.13401 14 7 14Z" fill="#505050"/>
<path d="M7 13.5C10.5899 13.5 13.5 10.5899 13.5 7C13.5 3.41015 10.5899 0.5 7 0.5C3.41015 0.5 0.5 3.41015 0.5 7C0.5 10.5899 3.41015 13.5 7 13.5Z" fill="url(#paint0_linear_628_1098)"/>
<path opacity="0.95" d="M6.75 7.25C8.95914 7.25 10.75 5.90685 10.75 4.25C10.75 2.59315 8.95914 1.25 6.75 1.25C4.54086 1.25 2.75 2.59315 2.75 4.25C2.75 5.90685 4.54086 7.25 6.75 7.25Z" fill="url(#paint1_linear_628_1098)"/>
</g>
<defs>
<linearGradient id="paint0_linear_628_1098" x1="7" y1="0.57" x2="7" y2="13.48" gradientUnits="userSpaceOnUse">
<stop stop-color="#c0c0c0"/>
<stop offset="0.57" stop-color="#757373"/>
<stop offset="1" stop-color="#d2d2d2"/>
</linearGradient>
<linearGradient id="paint1_linear_628_1098" x1="6.75" y1="1.28" x2="6.75" y2="7.24" gradientUnits="userSpaceOnUse">
<stop stop-color="#E7FDFB"/>
<stop offset="0.57" stop-color="#c6c6c6"/>
<stop offset="1" stop-color="#f5fff8"/>
</linearGradient>
<clipPath id="clip0_628_1098">
<rect width="14" height="14" fill="white"/>
</clipPath>
</defs>
</svg>
