<?xml version="1.0" encoding="utf-8"?>
<!-- Generator: Adobe Illustrator 25.4.1, SVG Export Plug-In . SVG Version: 6.00 Build 0)  -->
<svg version="1.1" id="Layer_1" xmlns="http://www.w3.org/2000/svg" xmlns:xlink="http://www.w3.org/1999/xlink" x="0px" y="0px"
	 viewBox="0 0 24 24" style="enable-background:new 0 0 24 24;" xml:space="preserve">
<style type="text/css">
	.st0{fill:#0094FD;}
	.st1{fill:#3DDEED;}
</style>
<g>
	<path class="st0" d="M12,1.3C5.9,1.3,1,6.1,1,12c0,5.9,4.9,10.7,11,10.7S23,17.9,23,12C23,6.1,18.1,1.3,12,1.3z M12,20.4
		c-4.7,0-8.6-3.8-8.6-8.4c0-4.6,3.9-8.4,8.6-8.4c4.7,0,8.6,3.8,8.6,8.4C20.6,16.6,16.7,20.4,12,20.4z"/>
	<path class="st1" d="M13,12V7.5C13,7,12.5,6.6,12,6.6c-0.5,0-0.9,0.4-0.9,0.9v4.8c0,0,0,0,0,0c0,0.2,0.1,0.5,0.3,0.7l3.5,3.4
		c0.4,0.4,1,0.4,1.3,0c0.4-0.4,0.4-0.9,0-1.3L13,12z"/>
</g>
</svg>
