<?xml version="1.0" encoding="utf-8"?>
<!-- Generator: Adobe Illustrator 25.4.1, SVG Export Plug-In . SVG Version: 6.00 Build 0)  -->
<svg version="1.1" id="Layer_1" xmlns="http://www.w3.org/2000/svg" xmlns:xlink="http://www.w3.org/1999/xlink" x="0px" y="0px"
	 viewBox="0 0 24 24" style="enable-background:new 0 0 24 24;" xml:space="preserve">
<style type="text/css">
	.st0{fill:#0094FD;}
	.st1{fill:#3DDEED;}
</style>
<g>
	<path class="st0" d="M19.8,4.4c-4.3-4.2-11.3-4.2-15.6,0c-4.3,4.2-4.3,10.9,0,15.1c4.3,4.2,11.3,4.2,15.6,0
		C24.1,15.4,24.1,8.6,19.8,4.4z M19.3,18c-0.5-0.4-1.1-0.8-1.6-1.2c0.4-1.3,0.6-2.7,0.7-4.2h3.2C21.4,14.7,20.6,16.5,19.3,18z
		 M2.4,12.7h3.2c0.1,1.5,0.3,2.9,0.7,4.2c-0.6,0.3-1.1,0.7-1.6,1.2C3.4,16.5,2.6,14.7,2.4,12.7z M4.7,6c0.5,0.4,1.1,0.8,1.6,1.2
		c-0.4,1.3-0.6,2.7-0.7,4.2H2.4C2.6,9.3,3.4,7.5,4.7,6z M11.3,7.3C10.2,7.2,9.1,6.9,8,6.5C8.6,5,9.7,3.2,11.3,2.8V7.3z M11.3,8.7
		v2.7H7.1c0-1.2,0.2-2.4,0.5-3.5C8.8,8.3,10,8.6,11.3,8.7z M11.3,12.7v2.7c-1.3,0.1-2.5,0.4-3.7,0.9c-0.3-1.1-0.5-2.3-0.5-3.5H11.3z
		 M11.3,16.7v4.5C9.7,20.8,8.6,19,8,17.5C9.1,17.1,10.2,16.8,11.3,16.7z M12.7,16.7c1.1,0.1,2.2,0.4,3.3,0.8
		c-0.6,1.5-1.7,3.3-3.3,3.7V16.7z M12.7,15.3v-2.7h4.2c0,1.2-0.2,2.4-0.5,3.5C15.2,15.7,14,15.4,12.7,15.3z M12.7,11.3V8.7
		c1.3-0.1,2.5-0.4,3.7-0.9c0.3,1.1,0.5,2.3,0.5,3.5H12.7z M12.7,7.3V2.8C14.3,3.2,15.4,5,16,6.5C14.9,6.9,13.8,7.2,12.7,7.3z
		 M15.8,3.4c0.9,0.4,1.7,0.9,2.5,1.5c-0.4,0.3-0.7,0.6-1.1,0.8C16.9,5,16.4,4.2,15.8,3.4z M6.8,5.8C6.4,5.6,6,5.3,5.7,5
		c0.8-0.6,1.6-1.2,2.5-1.5C7.6,4.2,7.1,5,6.8,5.8z M6.8,18.2c0.3,0.8,0.8,1.7,1.4,2.4c-0.9-0.4-1.7-0.9-2.5-1.5
		C6,18.7,6.4,18.4,6.8,18.2z M17.2,18.2c0.4,0.2,0.8,0.5,1.1,0.8c-0.8,0.6-1.6,1.2-2.5,1.5C16.4,19.8,16.9,19,17.2,18.2z M18.3,11.3
		c-0.1-1.5-0.3-2.9-0.7-4.2c0.6-0.3,1.1-0.7,1.6-1.2c1.3,1.5,2.1,3.4,2.3,5.4H18.3z"/>
	<path class="st1" d="M4.7,6l1-1c5.4,4.1,10.6,1.8,12.7,0l1,1C12.9,11.2,6.4,7.8,4.7,6z"/>
	<path class="st1" d="M4.7,18.1l1,1c5.4-4.1,10.6-1.8,12.7,0l1-1C13.4,12.8,6.2,16.3,4.7,18.1z"/>
	<path class="st1" d="M2.4,12.7c-0.2-0.6-0.1-1.2,0-1.4h19.1c0.2,0.9,0.1,1.3,0,1.4H2.4z"/>
</g>
</svg>
