<svg id="Layer_1" data-name="Layer 1" xmlns="http://www.w3.org/2000/svg" viewBox="0 0 22 21.4"><defs><style>.cls-1,.cls-2{fill:#0094fd;}.cls-1{stroke:#0094fd;}.cls-2{stroke:#3ddeed;}</style></defs><path class="cls-1" d="M19.19,20.69h.36l.11-.34a1.46,1.46,0,0,1,1.38-1,1.4,1.4,0,1,1-1.36,1.87l-.13-.33h-6l-.12.33a1.48,1.48,0,0,1-2.74,0l-.12-.33H4.45l-.13.33A1.44,1.44,0,0,1,3,22.2a1.4,1.4,0,1,1,0-2.8,1.46,1.46,0,0,1,1.38,1l.11.34h6.07l.12-.34a1.43,1.43,0,0,1,.88-.87l.34-.12V17.14H4.27A.14.14,0,0,1,4.12,17V1.93a.14.14,0,0,1,.15-.13H19.73a.14.14,0,0,1,.15.13V17a.14.14,0,0,1-.15.13H12.14v2.22l.35.11a1.42,1.42,0,0,1,.91.88l.12.34h5.67ZM4.91,7.11h-.5v4.76H19.59V7.11H4.91ZM19.59,2.56v-.5H4.41v4.8H19.59V2.56ZM4.91,12.13h-.5v4.76H19.59V12.13H4.91ZM1.79,20.8A1.17,1.17,0,1,0,3,19.65,1.15,1.15,0,0,0,1.79,20.8Zm9.07,0A1.17,1.17,0,1,0,12,19.65,1.15,1.15,0,0,0,10.86,20.8Zm9,0A1.17,1.17,0,1,0,21,19.65,1.15,1.15,0,0,0,19.88,20.8Z" transform="translate(-1 -1.3)"/><path class="cls-2" d="M7,4.48a.14.14,0,0,1-.15.12.13.13,0,1,1,0-.25A.14.14,0,0,1,7,4.48Z" transform="translate(-1 -1.3)"/><path class="cls-2" d="M7,9.49a.14.14,0,0,1-.15.13.13.13,0,1,1,0-.25A.14.14,0,0,1,7,9.49Z" transform="translate(-1 -1.3)"/><path class="cls-2" d="M7,14.51a.14.14,0,0,1-.15.12.13.13,0,1,1,0-.25A.14.14,0,0,1,7,14.51Z" transform="translate(-1 -1.3)"/><path class="cls-2" d="M17.16,4.6H9.42a.13.13,0,1,1,0-.25h7.74a.13.13,0,1,1,0,.25Z" transform="translate(-1 -1.3)"/><path class="cls-2" d="M9.42,9.37h7.74a.13.13,0,1,1,0,.25H9.42a.13.13,0,1,1,0-.25Z" transform="translate(-1 -1.3)"/><path class="cls-2" d="M17.16,14.38a.13.13,0,1,1,0,.25H9.42a.13.13,0,1,1,0-.25Z" transform="translate(-1 -1.3)"/></svg>