<?xml version="1.0" encoding="utf-8"?>
<!-- Generator: Adobe Illustrator 25.4.1, SVG Export Plug-In . SVG Version: 6.00 Build 0)  -->
<svg version="1.1" id="Layer_1" xmlns="http://www.w3.org/2000/svg" xmlns:xlink="http://www.w3.org/1999/xlink" x="0px" y="0px"
	 viewBox="0 0 24 24" style="enable-background:new 0 0 24 24;" xml:space="preserve">
<style type="text/css">
	.st0{fill:#3DDEED;}
	.st1{fill:#0094FD;stroke:#0094FD;stroke-width:0.8;}
</style>
<g>
	<path class="st0" d="M8,12.9H6.8V7.2H8V12.9z M10.3,10.9v2H9.1V7.2h2.2c0.4,0,0.8,0.1,1.1,0.2c0.3,0.2,0.6,0.4,0.8,0.7
		c0.2,0.3,0.3,0.6,0.3,1c0,0.6-0.2,1-0.6,1.3c-0.4,0.3-0.9,0.5-1.6,0.5H10.3z M10.3,10h1c0.3,0,0.5-0.1,0.7-0.2
		c0.2-0.1,0.2-0.4,0.2-0.6c0-0.3-0.1-0.5-0.2-0.7c-0.2-0.2-0.4-0.3-0.7-0.3h-1.1V10z M17.2,7.2v0.9h-0.1c-0.5,0-0.9,0.1-1.2,0.4
		c-0.3,0.3-0.5,0.6-0.6,1.1c0.3-0.3,0.7-0.5,1.1-0.5c0.5,0,0.9,0.2,1.2,0.5c0.3,0.4,0.4,0.8,0.4,1.4c0,0.4-0.1,0.7-0.2,1
		c-0.2,0.3-0.4,0.5-0.7,0.7c-0.3,0.2-0.6,0.2-1,0.2c-0.6,0-1.1-0.2-1.5-0.6c-0.4-0.4-0.6-1-0.6-1.7v-0.4c0-0.6,0.1-1.2,0.3-1.6
		c0.2-0.5,0.6-0.8,1-1.1c0.4-0.3,0.9-0.4,1.5-0.4H17.2z M16.1,10c-0.2,0-0.3,0-0.5,0.1c-0.1,0.1-0.3,0.2-0.3,0.4v0.3
		c0,0.4,0.1,0.7,0.2,0.9c0.1,0.2,0.4,0.3,0.6,0.3c0.2,0,0.4-0.1,0.6-0.3c0.2-0.2,0.2-0.4,0.2-0.7c0-0.3-0.1-0.6-0.2-0.8
		C16.6,10.1,16.4,10,16.1,10z"/>
	<path class="st1" d="M18.9,3.3c-1.9-1.8-4.3-2.8-6.9-2.8c-2.6,0-5.1,1-6.9,2.8c-1.9,1.8-2.9,4.3-2.9,6.9c0,2.3,0.8,4.5,2.3,6.2v0
		c0.4,0.4,0.8,0.9,1.2,1.2l5.8,5.8c0.1,0.1,0.3,0.2,0.5,0.2s0.4-0.1,0.5-0.2l5.8-5.8c0.4-0.4,0.9-0.8,1.2-1.2
		c1.5-1.7,2.3-3.9,2.3-6.2C21.8,7.6,20.8,5.1,18.9,3.3z M17.4,16.6L12,21.9l-5.4-5.3c0,0,0,0,0,0c-0.4-0.3-0.8-0.7-1.1-1.1
		c-1.3-1.5-2-3.4-2-5.3c0-4.6,3.8-8.3,8.4-8.3c4.7,0,8.4,3.7,8.4,8.3c0,1.9-0.7,3.8-2,5.3C18.2,15.9,17.8,16.2,17.4,16.6
		C17.4,16.6,17.4,16.6,17.4,16.6z"/>
</g>
</svg>
