<?xml version="1.0" encoding="utf-8"?>
<!-- Generator: Adobe Illustrator 25.4.1, SVG Export Plug-In . SVG Version: 6.00 Build 0)  -->
<svg version="1.1" id="Layer_1" xmlns="http://www.w3.org/2000/svg" xmlns:xlink="http://www.w3.org/1999/xlink" x="0px" y="0px"
	 viewBox="0 0 24 24" style="enable-background:new 0 0 24 24;" xml:space="preserve">
<style type="text/css">
	.st0{fill:none;stroke:#0094FD;stroke-width:2;}
	.st1{fill:none;stroke:#3DDEED;stroke-width:2;}
</style>
<g>
	<path class="st0" d="M6.5,22.8c1.5,0,2.8-1.2,2.8-2.8c0-1.6-1.3-2.8-2.8-2.8S3.6,18.5,3.6,20C3.6,21.6,4.9,22.8,6.5,22.8z"/>
	<line class="st0" x1="6.6" y1="6.6" x2="6.6" y2="17.4"/>
	<path class="st0" d="M6.5,17.4c0.6-1.3,2.8-4.2,6.4-4.9c3.7-0.7,4.6-2.4,4.6-3.1"/>
	<path class="st1" d="M17.5,9.4c1.5,0,2.8-1.2,2.8-2.8c0-1.6-1.3-2.8-2.8-2.8c-1.5,0-2.8,1.2-2.8,2.8C14.7,8.2,16,9.4,17.5,9.4z"/>
	<path class="st1" d="M6.5,6.7C8,6.7,9.3,5.5,9.3,4S8,1.2,6.5,1.2S3.6,2.4,3.6,4S4.9,6.7,6.5,6.7z"/>
</g>
</svg>
