<?xml version="1.0" encoding="utf-8"?>
<!-- Generator: Adobe Illustrator 25.4.1, SVG Export Plug-In . SVG Version: 6.00 Build 0)  -->
<svg version="1.1" id="Layer_1" xmlns="http://www.w3.org/2000/svg" xmlns:xlink="http://www.w3.org/1999/xlink" x="0px" y="0px"
	 viewBox="0 0 64 64" style="enable-background:new 0 0 64 64;" xml:space="preserve">
<style type="text/css">
	.st0{fill:#EAF6FF;}
	.st1{fill:#0094FD;stroke:#0094FD;stroke-width:0.3;}
	.st2{fill:#FF3D3D;stroke:#FF3D3D;stroke-width:0.3;}
	.st3{fill:#0094FD;}
	.st4{fill:none;stroke:#0094FD;}
</style>
<g>
	<circle class="st0" cx="32" cy="32" r="29"/>
	<path class="st1" d="M31,29.1L31,29.1l0.1-0.1V18.5v-0.1l-0.1,0l-7.9-4.5l-0.1,0l-0.1,0L15,18.4l-0.1,0v0.1v10.4V29l0.1,0l7.9,4.5
		l0.1,0l0.1,0L31,29.1z M29.6,28.1l-5.9,3.4v-7.9l5.9-3.4V28.1z M23,15.5l5.8,3.4L23,22.3l-5.8-3.4L23,15.5z M16.4,28.1v-7.9
		l5.9,3.4v7.9L16.4,28.1z"/>
	<path class="st2" d="M41.1,30.8L41.1,30.8H41l-7.9,4.5l-0.1,0v0.1v10.4v0.1l0.1,0l7.9,4.5l0.1,0l0.1,0L49,46l0.1,0v-0.1V35.4v-0.1
		l-0.1,0L41.1,30.8z M41,32.4l5.8,3.4L41,39.2l-5.8-3.4L41,32.4z M34.4,45v-7.9l5.9,3.4v7.9L34.4,45z M47.7,45l-5.9,3.4v-7.9
		l5.9-3.4V45z"/>
	<path class="st1" d="M44.8,22.5v4.8l-1.5-1.5l-0.1-0.1l-0.1,0.1l-0.8,0.9l-0.1,0.1l0.1,0.1l3.1,3.3l0.1,0.1l0.1-0.1l3.3-3.3
		l0.1-0.1l-0.1-0.1l-0.8-0.9L48,25.7l-0.1,0.1l-1.7,1.6v-4.8v0c0-2.4-1.8-4.4-4.1-4.4h0h-9H33v0.1v1.2v0.1h0.2h9
		C43.6,19.7,44.8,20.9,44.8,22.5z"/>
	<path class="st1" d="M19.2,37v4.8v0 M19.2,37v4.8 M19.2,37l1.3,1.3l0.1,0.1l0.1-0.1l0.8-0.9l0.1-0.1l-0.1-0.1l-2.9-3l-0.1-0.1
		l-0.1,0.1l-3.1,3l-0.1,0.1l0.1,0.1l0.8,0.9l0.1,0.1l0.1-0.1l1.5-1.3v4.8v0c0,2.4,1.8,4.4,4.1,4.4h0h9H31v-0.2v-1.2v-0.1h-0.1h-9
		 M19.2,37l2.7,7.7 M19.2,41.8c0,1.6,1.2,2.9,2.7,2.9 M19.2,41.8l2.7,2.9"/>
	<path class="st3" d="M33.7,32.2c0-1-0.8-1.8-1.7-1.8c-0.9,0-1.7,0.8-1.7,1.8c0,1,0.8,1.8,1.7,1.8C32.9,34,33.7,33.2,33.7,32.2z
		 M32,32.8c-0.3,0-0.6-0.3-0.6-0.6c0-0.3,0.3-0.6,0.6-0.6c0.3,0,0.6,0.3,0.6,0.6C32.6,32.5,32.3,32.8,32,32.8z"/>
	<path class="st4" d="M33.7,32.2c0-1-0.8-1.8-1.7-1.8c-0.9,0-1.7,0.8-1.7,1.8c0,1,0.8,1.8,1.7,1.8C32.9,34,33.7,33.2,33.7,32.2z
		 M32,32.8c-0.3,0-0.6-0.3-0.6-0.6c0-0.3,0.3-0.6,0.6-0.6c0.3,0,0.6,0.3,0.6,0.6C32.6,32.5,32.3,32.8,32,32.8z"/>
</g>
</svg>
