<?xml version="1.0" encoding="utf-8"?>
<!-- Generator: Adobe Illustrator 25.4.1, SVG Export Plug-In . SVG Version: 6.00 Build 0)  -->
<svg version="1.1" id="Layer_1" xmlns="http://www.w3.org/2000/svg" xmlns:xlink="http://www.w3.org/1999/xlink" x="0px" y="0px"
	 viewBox="0 0 64 64" style="enable-background:new 0 0 64 64;" xml:space="preserve">
<style type="text/css">
	.st0{fill:#EAF6FF;}
	.st1{fill:#00FDC0;stroke:#EAF6FF;stroke-width:0.2;}
	.st2{fill:#0094FD;stroke:#EAF6FF;stroke-width:0.2;}
</style>
<g>
	<circle class="st0" cx="32" cy="32" r="29"/>
	<path class="st1" d="M30.3,32L30.3,32c0-0.9,0.8-1.7,1.7-1.7c1,0,1.7,0.8,1.7,1.7l0,0c0,0.9-0.8,1.7-1.7,1.7
		C31,33.7,30.3,32.9,30.3,32z"/>
	<path class="st2" d="M42.8,41.4L42.8,41.4l0.1,0c0.6-0.3,1.2-0.5,1.9-0.5c2.2,0,4,1.8,4,4c0,2.2-1.8,4-4,4c-2.2,0-4-1.8-4-4
		c0-0.8,0.2-1.6,0.7-2.2l0-0.1l-0.1-0.1l-3.2-3.2l-0.1-0.1l-0.1,0.1c-1.7,1.4-3.9,2.3-6.3,2.3c-2.3,0-4.4-0.8-6.1-2.1l-0.1-0.1
		l-0.1,0.1l-3,3l-0.1,0.1l0,0.1c0.4,0.6,0.6,1.3,0.6,2.1c0,2.2-1.8,4-4,4c-2.2,0-4-1.8-4-4c0-2.2,1.8-4,4-4c0.7,0,1.4,0.2,2,0.5
		l0.1,0l0.1-0.1l3-3l0.1-0.1l-0.1-0.1c-1.5-1.7-2.4-4-2.4-6.4c0-2.4,0.9-4.6,2.3-6.3l0.1-0.1l-0.1-0.1l-2.9-2.9l-0.1-0.1l-0.1,0
		c-0.6,0.4-1.3,0.6-2.1,0.6c-2.2,0-4-1.8-4-4s1.8-4,4-4c2.2,0,4,1.8,4,4c0,0.7-0.2,1.4-0.5,2l0,0.1l0.1,0.1l2.9,2.9l0.1,0.1l0.1-0.1
		c1.7-1.4,3.8-2.2,6.2-2.2c2.4,0,4.7,0.9,6.4,2.4l0.1,0.1l0.1-0.1l3-3l0.1-0.1l0-0.1c-0.4-0.6-0.6-1.3-0.6-2.1c0-2.2,1.8-4,4-4
		s4,1.8,4,4c0,2.2-1.8,4-4,4c-0.7,0-1.4-0.2-2-0.6l-0.1,0l-0.1,0.1l-3,3l-0.1,0.1l0.1,0.1c1.3,1.7,2.1,3.8,2.1,6.1
		c0,2.3-0.8,4.5-2.2,6.2l-0.1,0.1l0.1,0.1L42.8,41.4z M24.2,31.9L24.2,31.9v0.1c0.5,0.5,1.2,1.1,2.1,1.8l0.2,0.2l-0.1-0.3
		c-0.2-0.6-0.3-1.1-0.3-1.8c0-0.6,0.1-1.2,0.3-1.7l0.1-0.3l-0.2,0.2C25.3,30.8,24.6,31.4,24.2,31.9z M37.6,30.2L37.3,30l0.1,0.3
		c0.2,0.5,0.2,1.1,0.2,1.7c0,0.6-0.1,1.1-0.2,1.7l-0.1,0.3l0.2-0.2c0.8-0.6,1.5-1.3,2-1.7l0.1-0.1l-0.1-0.1
		C39.1,31.5,38.4,30.8,37.6,30.2z M39.3,29.3l0.3,0.2l-0.1-0.3c-1.1-3.2-4.1-5.4-7.6-5.4c-3.5,0-6.5,2.3-7.6,5.4l-0.1,0.3l0.3-0.2
		c1.8-1.4,4.4-3.1,7.5-3.1C34.9,26.2,37.6,27.8,39.3,29.3z M24.5,34.8l-0.2,0.1c1.2,2.9,4.1,5,7.5,5c3.4,0,6.2-2.1,7.5-5l-0.2-0.1
		c-1.8,1.4-4.4,2.9-7.3,2.9C28.9,37.8,26.3,36.2,24.5,34.8z M47,19.1c0-1.2-1-2.2-2.2-2.2s-2.2,1-2.2,2.2c0,1.2,1,2.2,2.2,2.2
		S47,20.3,47,19.1z M17,19.1c0,1.2,1,2.2,2.2,2.2c1.2,0,2.2-1,2.2-2.2c0-1.2-1-2.2-2.2-2.2C18,16.9,17,17.9,17,19.1z M17,44.9
		c0,1.2,1,2.2,2.2,2.2c1.2,0,2.2-1,2.2-2.2c0-1.2-1-2.2-2.2-2.2C18,42.7,17,43.7,17,44.9z M42.6,44.9c0,1.2,1,2.2,2.2,2.2
		s2.2-1,2.2-2.2c0-1.2-1-2.2-2.2-2.2S42.6,43.7,42.6,44.9z M31.9,36c2.2,0,4-1.8,4-4c0-2.2-1.8-4-4-4s-4,1.8-4,4S29.7,36,31.9,36z"
		/>
</g>
</svg>
