<?xml version="1.0" encoding="utf-8"?>
<!-- Generator: Adobe Illustrator 25.4.1, SVG Export Plug-In . SVG Version: 6.00 Build 0)  -->
<svg version="1.1" id="Layer_1" xmlns="http://www.w3.org/2000/svg" xmlns:xlink="http://www.w3.org/1999/xlink" x="0px" y="0px"
	 viewBox="0 0 64 64" style="enable-background:new 0 0 64 64;" xml:space="preserve">
<style type="text/css">
	.st0{fill:#EAF6FF;}
	.st1{fill:#F5B31F;}
	.st2{fill:#0094FD;}
</style>
<g>
	<circle class="st0" cx="32" cy="32" r="29"/>
	<path class="st1" d="M46.9,47.8H31.3c-1.2,0-2.1-0.9-2.1-2.1c0-0.4,0.1-0.8,0.3-1.1l7.8-12.4c0.4-0.6,1.1-1,1.8-1s1.4,0.4,1.8,1
		l7.8,12.4c0.2,0.3,0.3,0.7,0.3,1.1C49,46.9,48,47.8,46.9,47.8z M39.1,32.7c-0.2,0-0.5,0.1-0.6,0.3l-7.8,12.4
		c-0.1,0.1-0.1,0.2-0.1,0.4c0,0.4,0.3,0.7,0.7,0.7h15.6c0.4,0,0.7-0.3,0.7-0.7c0-0.1,0-0.2-0.1-0.3L39.7,33
		C39.6,32.8,39.3,32.7,39.1,32.7z"/>
	<path class="st1" d="M39.1,42.3c-0.4,0-0.7-0.3-0.7-0.7v-5.5c0-0.4,0.3-0.7,0.7-0.7c0.4,0,0.7,0.3,0.7,0.7v5.5
		C39.8,42,39.5,42.3,39.1,42.3z"/>
	<path class="st1" d="M39.1,45.1c0.4,0,0.7-0.3,0.7-0.7s-0.3-0.7-0.7-0.7c-0.4,0-0.7,0.3-0.7,0.7S38.7,45.1,39.1,45.1z"/>
	<path class="st2" d="M41.2,25.8H20c-2.7,0-5-2.2-5-4.8s2.2-4.8,5-4.8h21.3c2.7,0,5,2.2,5,4.8S43.9,25.8,41.2,25.8z M20,17.6
		c-2,0-3.5,1.5-3.5,3.4s1.6,3.4,3.5,3.4h21.3c2,0,3.5-1.5,3.5-3.4s-1.6-3.4-3.5-3.4H20z"/>
	<path class="st2" d="M21.4,23.1c-1.2,0-2.1-0.9-2.1-2.1s1-2.1,2.1-2.1s2.1,0.9,2.1,2.1S22.5,23.1,21.4,23.1z M21.4,20.3
		c-0.4,0-0.7,0.3-0.7,0.7s0.3,0.7,0.7,0.7s0.7-0.3,0.7-0.7S21.8,20.3,21.4,20.3z"/>
	<path class="st2" d="M28.5,23.1c-1.2,0-2.1-0.9-2.1-2.1s1-2.1,2.1-2.1c1.2,0,2.1,0.9,2.1,2.1S29.6,23.1,28.5,23.1z M28.5,20.3
		c-0.4,0-0.7,0.3-0.7,0.7s0.3,0.7,0.7,0.7c0.4,0,0.7-0.3,0.7-0.7S28.8,20.3,28.5,20.3z"/>
	<path class="st2" d="M32.7,34.1H20c-2.7,0-5-2.2-5-4.8c0-1.3,0.5-2.5,1.5-3.4c0.9-0.9,2.2-1.4,3.5-1.4h21.3c2.7,0,5,2.2,5,4.8
		c0,1-0.3,2-0.9,2.8c-0.2,0.3-0.7,0.4-1,0.1c-0.3-0.2-0.4-0.7-0.2-1c0.4-0.6,0.7-1.3,0.7-2c0-1.9-1.6-3.4-3.5-3.4H20
		c-0.9,0-1.8,0.4-2.5,1c-0.7,0.6-1,1.5-1,2.4c0,1.9,1.6,3.4,3.5,3.4h12.8c0.4,0,0.7,0.3,0.7,0.7S33.1,34.1,32.7,34.1z"/>
	<path class="st2" d="M21.4,31.3c-1.2,0-2.1-0.9-2.1-2.1s1-2.1,2.1-2.1s2.1,0.9,2.1,2.1S22.5,31.3,21.4,31.3z M21.4,28.6
		c-0.4,0-0.7,0.3-0.7,0.7s0.3,0.7,0.7,0.7s0.7-0.3,0.7-0.7S21.8,28.6,21.4,28.6z"/>
	<path class="st2" d="M28.5,31.3c-1.2,0-2.1-0.9-2.1-2.1s1-2.1,2.1-2.1c1.2,0,2.1,0.9,2.1,2.1S29.6,31.3,28.5,31.3z M28.5,28.6
		c-0.4,0-0.7,0.3-0.7,0.7s0.3,0.7,0.7,0.7c0.4,0,0.7-0.3,0.7-0.7S28.8,28.6,28.5,28.6z"/>
	<path class="st2" d="M27,42.3H20c-2.7,0-5-2.2-5-4.8c0-1.3,0.5-2.5,1.5-3.4c0.9-0.9,2.2-1.4,3.5-1.4h12.8c0.4,0,0.7,0.3,0.7,0.7
		s-0.3,0.7-0.7,0.7H20c-0.9,0-1.8,0.4-2.5,1c-0.7,0.6-1,1.5-1,2.4c0,1.9,1.6,3.4,3.5,3.4H27c0.4,0,0.7,0.3,0.7,0.7
		S27.4,42.3,27,42.3z"/>
	<path class="st2" d="M21.4,39.6c-1.2,0-2.1-0.9-2.1-2.1s1-2.1,2.1-2.1s2.1,0.9,2.1,2.1S22.5,39.6,21.4,39.6z M21.4,36.8
		c-0.4,0-0.7,0.3-0.7,0.7s0.3,0.7,0.7,0.7s0.7-0.3,0.7-0.7S21.8,36.8,21.4,36.8z"/>
	<path class="st2" d="M28.5,39.6c-1.2,0-2.1-0.9-2.1-2.1s1-2.1,2.1-2.1c1.2,0,2.1,0.9,2.1,2.1S29.6,39.6,28.5,39.6z M28.5,36.8
		c-0.4,0-0.7,0.3-0.7,0.7s0.3,0.7,0.7,0.7c0.4,0,0.7-0.3,0.7-0.7S28.8,36.8,28.5,36.8z"/>
</g>
</svg>
