<?xml version="1.0" encoding="utf-8"?>
<!-- Generator: Adobe Illustrator 25.4.1, SVG Export Plug-In . SVG Version: 6.00 Build 0)  -->
<svg version="1.1" id="Layer_1" xmlns="http://www.w3.org/2000/svg" xmlns:xlink="http://www.w3.org/1999/xlink" x="0px" y="0px"
	 viewBox="0 0 24 24" style="enable-background:new 0 0 24 24;" xml:space="preserve">
<style type="text/css">
	.st0{fill:none;stroke:#3DDEED;stroke-width:1.25;stroke-miterlimit:10;}
	.st1{fill:none;stroke:#0094FD;stroke-width:1.25;stroke-miterlimit:10;}
	.st2{fill:#0094FD;}
</style>
<g>
	<path class="st0" d="M12.6,2.6c2,0,3.6,1.5,3.8,3.5c0.1,0,0.1,0,0.2,0c1.8,0,3.4,1.5,3.4,3.4c0,0.2,0,0.4-0.1,0.7
		c1.2,0.2,2.2,1.3,2.2,2.6c0,1.4-1.2,2.6-2.6,2.6H4.6c-1.4,0-2.6-1.2-2.6-2.6c0-1.3,1-2.5,2.3-2.6C4.1,9.5,4,8.9,4,8.3
		c0-2.1,1.7-3.8,3.8-3.8c0.5,0,1,0.1,1.4,0.3C9.8,3.4,11.2,2.6,12.6,2.6"/>
	<circle class="st1" cx="4.2" cy="18.8" r="1.6"/>
	<circle class="st1" cx="11.4" cy="19.1" r="1.5"/>
	<circle class="st1" cx="9.4" cy="11.1" r="1.5"/>
	<circle class="st1" cx="15.2" cy="10.3" r="1.5"/>
	<line class="st1" x1="1.1" y1="23.2" x2="3.1" y2="20.3"/>
	<line class="st1" x1="5.9" y1="18.9" x2="9.5" y2="19"/>
	<line class="st1" x1="10.3" y1="11" x2="13.8" y2="10.5"/>
	<g>
		<g>
			<line class="st1" x1="16.3" y1="9.1" x2="21.8" y2="1.8"/>
			<g>
				<polygon class="st2" points="22,5.1 21.5,2.1 18.6,2.5 19.6,1.1 22.6,0.7 23,3.6 				"/>
			</g>
		</g>
	</g>
	<line class="st1" x1="9.6" y1="12.1" x2="11.3" y2="18.1"/>
</g>
</svg>
