<svg width="49" height="48" viewBox="0 0 49 48" fill="none" xmlns="http://www.w3.org/2000/svg">
<path fill-rule="evenodd" clip-rule="evenodd" d="M45.0515 24.474C45.0125 24.669 44.9675 24.863 44.9355 25.059C44.3065 28.977 40.9365 32.063 36.6435 32.047C33.9975 32.036 31.3505 32.044 28.7045 32.045C28.3135 32.046 27.9735 31.971 27.8505 31.532C27.7495 31.171 27.9425 30.807 28.3095 30.714C28.4905 30.668 28.6835 30.662 28.8715 30.661C31.6265 30.651 34.3815 30.691 37.1345 30.628C40.3985 30.553 43.2235 27.885 43.5975 24.625C44.0725 20.496 41.0545 16.997 36.8985 16.854C36.1545 16.829 35.9175 16.552 35.9935 15.801C36.5355 10.484 32.9485 5.627 27.7115 4.586C22.4665 3.545 17.3155 6.648 15.7675 11.782C15.7365 11.885 15.7055 11.988 15.6725 12.091C15.5005 12.618 15.3145 12.763 14.7515 12.733C13.6525 12.675 12.5745 12.755 11.5035 13.038C8.25348 13.895 5.62048 16.874 5.08148 20.206C4.37348 24.58 6.92748 28.789 11.0675 30.192C12.0755 30.533 13.1135 30.664 14.1725 30.662C16.0495 30.658 17.9265 30.659 19.8035 30.663C19.9915 30.664 20.1855 30.669 20.3645 30.719C20.6895 30.809 20.8495 31.05 20.8375 31.386C20.8235 31.722 20.6445 31.939 20.3135 32.014C20.2095 32.038 20.0985 32.046 19.9915 32.045C17.7775 32.037 15.5605 32.094 13.3495 31.999C10.2665 31.868 7.75948 30.503 5.82648 28.113C4.51848 26.497 3.79648 24.632 3.62248 22.556C3.61448 22.465 3.58348 22.376 3.56348 22.286C3.56348 21.882 3.56348 21.476 3.56348 21.071C3.63248 20.607 3.68548 20.139 3.77548 19.679C4.73848 14.786 9.03548 11.285 14.0315 11.332C14.3645 11.335 14.4885 11.235 14.5985 10.933C16.0675 6.926 18.8805 4.392 23.0105 3.33C23.6195 3.174 24.2525 3.107 24.8745 3C25.4415 3 26.0085 3 26.5755 3C27.1835 3.11 27.7995 3.189 28.3985 3.337C33.1785 4.511 36.5825 8.24 37.3075 13.114C37.4215 13.884 37.4215 14.669 37.4775 15.479C37.5945 15.5 37.7365 15.53 37.8795 15.552C40.9635 16.039 43.1485 17.723 44.3785 20.574C44.7295 21.387 44.8335 22.305 45.0505 23.176C45.0515 23.61 45.0515 24.042 45.0515 24.474Z" fill="#0094FD"/>
<path fill-rule="evenodd" clip-rule="evenodd" d="M23.5784 44.4886C23.5904 44.3426 23.6124 44.1946 23.6124 44.0486C23.6144 35.7176 23.6134 27.3866 23.6134 19.0556C23.6134 18.9216 23.6134 18.7886 23.6134 18.6726C21.4324 20.8536 19.2584 23.0286 17.0704 25.2156C16.6714 24.8026 16.3654 24.4866 16.0874 24.1986C18.8284 21.4556 21.5824 18.6996 24.3064 15.9746C27.0304 18.6986 29.7854 21.4536 32.5504 24.2186C32.2684 24.4886 31.9574 24.7856 31.6284 25.1016C29.4674 22.9446 27.2894 20.7676 25.1104 18.5916C25.0744 18.6066 25.0384 18.6206 25.0024 18.6356C25.0024 18.7756 25.0024 18.9146 25.0024 19.0546C25.0024 27.3846 25.0014 35.7156 25.0034 44.0466C25.0034 44.1936 25.0254 44.3406 25.0374 44.4876C24.5504 44.4886 24.0644 44.4886 23.5784 44.4886Z" fill="#0094FD"/>
</svg>
