<?xml version="1.0" encoding="utf-8"?>
<!-- Generator: Adobe Illustrator 16.0.0, SVG Export Plug-In . SVG Version: 6.00 Build 0)  -->
<!DOCTYPE svg PUBLIC "-//W3C//DTD SVG 1.1//EN" "http://www.w3.org/Graphics/SVG/1.1/DTD/svg11.dtd">
<svg version="1.1" id="Layer_1" xmlns="http://www.w3.org/2000/svg" xmlns:xlink="http://www.w3.org/1999/xlink" x="0px" y="0px"
	 width="48px" height="48px" viewBox="0 0 48 48" enable-background="new 0 0 48 48" xml:space="preserve">
<g display="none">
	
		<polyline display="inline" fill="none" stroke="#0094FD" stroke-width="1.4" stroke-linecap="round" stroke-linejoin="round" stroke-miterlimit="10" points="
		39.134,20.248 39.134,14.863 29.106,4.836 8.866,4.743 8.866,20.646 	"/>
	
		<polyline display="inline" fill="none" stroke="#0094FD" stroke-width="1.4" stroke-linecap="round" stroke-linejoin="round" stroke-miterlimit="10" points="
		8.866,36.572 8.866,43.258 39.134,43.258 39.134,36.67 	"/>
	
		<polyline display="inline" fill="none" stroke="#0094FD" stroke-width="1.4" stroke-linecap="round" stroke-linejoin="round" stroke-miterlimit="10" points="
		28.639,4.93 28.639,15.051 38.321,15.051 	"/>
	
		<rect x="5.167" y="21.008" display="inline" fill="none" stroke="#0094FD" stroke-width="1.4" stroke-linecap="round" stroke-linejoin="round" stroke-miterlimit="10" width="37.666" height="15.22"/>
	<text transform="matrix(1 0 0 1 13.9941 33.0205)" display="inline" fill="#0094FD" font-family="'ArialMT'" font-size="12">ZIP</text>
</g>
<g display="none">
	<path display="inline" fill="#0094FD" d="M-4.473,24.73c-0.039,0.195-0.084,0.389-0.115,0.584c-0.629,3.918-4,7.004-8.293,6.988
		c-2.645-0.011-5.293-0.003-7.938-0.002c-0.393,0.001-0.732-0.074-0.855-0.513c-0.1-0.361,0.092-0.726,0.459-0.818
		c0.182-0.046,0.375-0.052,0.563-0.053c2.756-0.011,5.51,0.03,8.264-0.033c3.264-0.075,6.088-2.743,6.463-6.003
		c0.475-4.129-2.543-7.628-6.699-7.771c-0.744-0.025-0.98-0.302-0.904-1.053c0.541-5.317-3.045-10.174-8.283-11.215
		c-5.245-1.041-10.396,2.062-11.944,7.196c-0.031,0.103-0.062,0.206-0.095,0.309c-0.172,0.527-0.358,0.672-0.921,0.642
		c-1.099-0.058-2.177,0.022-3.248,0.305c-3.25,0.857-5.883,3.836-6.422,7.168c-0.708,4.374,1.846,8.583,5.986,9.985
		c1.008,0.342,2.046,0.473,3.105,0.471c1.877-0.004,3.754-0.003,5.631,0.001c0.188,0.001,0.382,0.006,0.561,0.056
		c0.325,0.09,0.485,0.331,0.473,0.667c-0.014,0.337-0.193,0.554-0.524,0.628c-0.104,0.024-0.215,0.032-0.322,0.031
		c-2.214-0.008-4.431,0.049-6.642-0.046c-3.083-0.131-5.59-1.496-7.523-3.886c-1.308-1.616-2.03-3.481-2.204-5.557
		c-0.008-0.091-0.039-0.18-0.059-0.27c0-0.404,0-0.81,0-1.215c0.069-0.464,0.122-0.932,0.212-1.392
		c0.963-4.893,5.26-8.394,10.256-8.347c0.333,0.003,0.457-0.097,0.567-0.399c1.469-4.007,4.282-6.541,8.412-7.603
		c0.609-0.156,1.242-0.223,1.864-0.33c0.567,0,1.134,0,1.702,0c0.607,0.11,1.223,0.189,1.822,0.337
		c4.779,1.174,8.184,4.903,8.908,9.777c0.115,0.77,0.115,1.555,0.17,2.365c0.117,0.021,0.26,0.051,0.402,0.073
		c3.084,0.487,5.27,2.171,6.5,5.022c0.35,0.813,0.455,1.731,0.672,2.602C-4.473,23.866-4.473,24.298-4.473,24.73z"/>
	<path display="inline" fill="#0094FD" d="M-25.945,44.744c0.012-0.146,0.034-0.293,0.034-0.439
		c0.002-8.331,0.001-16.662,0.001-24.993c0-0.134,0-0.267,0-0.383c-2.181,2.181-4.355,4.356-6.543,6.543
		c-0.399-0.413-0.705-0.729-0.983-1.017c2.741-2.743,5.495-5.499,8.219-8.224c2.723,2.724,5.479,5.479,8.245,8.244
		c-0.283,0.27-0.594,0.566-0.922,0.883c-2.162-2.157-4.34-4.334-6.519-6.51c-0.036,0.015-0.071,0.029-0.108,0.044
		c0,0.14,0,0.279,0,0.419c0,8.33,0,16.661,0.002,24.992c0,0.146,0.021,0.294,0.033,0.441
		C-24.974,44.744-25.459,44.744-25.945,44.744z"/>
</g>
<g display="none">
	
		<polygon display="inline" fill="none" stroke="#0094FD" stroke-width="1.4" stroke-linecap="round" stroke-linejoin="round" stroke-miterlimit="10" points="
		8.866,4.743 8.866,43.257 39.133,43.257 39.133,14.863 29.107,4.837 	"/>
	
		<polyline display="inline" fill="none" stroke="#0094FD" stroke-width="1.4" stroke-linecap="round" stroke-linejoin="round" stroke-miterlimit="10" points="
		28.639,4.931 28.639,15.051 38.32,15.051 	"/>
	
		<line display="inline" fill="none" stroke="#0094FD" stroke-width="1.4" stroke-linecap="square" stroke-linejoin="round" stroke-miterlimit="10" x1="15.863" y1="5.985" x2="18.19" y2="5.985"/>
	
		<line display="inline" fill="none" stroke="#0094FD" stroke-width="1.4" stroke-linecap="square" stroke-linejoin="round" stroke-miterlimit="10" x1="15.863" y1="10.333" x2="18.19" y2="10.333"/>
	
		<line display="inline" fill="none" stroke="#0094FD" stroke-width="1.4" stroke-linecap="square" stroke-linejoin="round" stroke-miterlimit="10" x1="15.863" y1="14.68" x2="18.19" y2="14.68"/>
	
		<line display="inline" fill="none" stroke="#0094FD" stroke-width="1.4" stroke-linecap="square" stroke-linejoin="round" stroke-miterlimit="10" x1="15.863" y1="19.027" x2="18.19" y2="19.027"/>
	
		<line display="inline" fill="none" stroke="#0094FD" stroke-width="1.4" stroke-linecap="square" stroke-linejoin="round" stroke-miterlimit="10" x1="15.863" y1="23.374" x2="18.19" y2="23.374"/>
	
		<line display="inline" fill="none" stroke="#0094FD" stroke-width="1.4" stroke-linecap="square" stroke-linejoin="round" stroke-miterlimit="10" x1="15.863" y1="27.722" x2="18.19" y2="27.722"/>
	
		<circle display="inline" fill="none" stroke="#0094FD" stroke-width="1.4" stroke-linecap="round" stroke-linejoin="round" stroke-miterlimit="10" cx="18.271" cy="32.479" r="2.784"/>
	
		<line display="inline" fill="none" stroke="#0094FD" stroke-width="1.4" stroke-linecap="square" stroke-linejoin="round" stroke-miterlimit="10" x1="18.656" y1="8.345" x2="20.983" y2="8.345"/>
	
		<line display="inline" fill="none" stroke="#0094FD" stroke-width="1.4" stroke-linecap="square" stroke-linejoin="round" stroke-miterlimit="10" x1="18.656" y1="12.691" x2="20.983" y2="12.691"/>
	
		<line display="inline" fill="none" stroke="#0094FD" stroke-width="1.4" stroke-linecap="square" stroke-linejoin="round" stroke-miterlimit="10" x1="18.656" y1="17.039" x2="20.983" y2="17.039"/>
	
		<line display="inline" fill="none" stroke="#0094FD" stroke-width="1.4" stroke-linecap="square" stroke-linejoin="round" stroke-miterlimit="10" x1="18.656" y1="21.386" x2="20.983" y2="21.386"/>
	
		<line display="inline" fill="none" stroke="#0094FD" stroke-width="1.4" stroke-linecap="square" stroke-linejoin="round" stroke-miterlimit="10" x1="18.656" y1="25.733" x2="20.983" y2="25.733"/>
</g>
<g>
	
		<polygon fill="none" stroke="#0094FD" stroke-width="1.4" stroke-linecap="round" stroke-linejoin="round" stroke-miterlimit="10" points="
		8.866,4.743 8.866,43.257 39.135,43.257 39.135,14.863 29.107,4.837 	"/>
	
		<polyline fill="none" stroke="#0094FD" stroke-width="1.4" stroke-linecap="round" stroke-linejoin="round" stroke-miterlimit="10" points="
		28.639,4.931 28.639,15.051 38.322,15.051 	"/>
	
		<line fill="none" stroke="#0094FD" stroke-width="1.4" stroke-linecap="round" stroke-linejoin="round" stroke-miterlimit="10" x1="17.206" y1="5.556" x2="17.206" y2="29.575"/>
	
		<line fill="none" stroke="#0094FD" stroke-width="1.4" stroke-linecap="round" stroke-linejoin="round" stroke-miterlimit="10" x1="13.807" y1="9.616" x2="17.19" y2="9.616"/>
	
		<line fill="none" stroke="#0094FD" stroke-width="1.4" stroke-linecap="round" stroke-linejoin="round" stroke-miterlimit="10" x1="13.807" y1="15.707" x2="17.19" y2="15.707"/>
	
		<line fill="none" stroke="#0094FD" stroke-width="1.4" stroke-linecap="round" stroke-linejoin="round" stroke-miterlimit="10" x1="13.807" y1="21.704" x2="17.19" y2="21.704"/>
	
		<line fill="none" stroke="#0094FD" stroke-width="1.4" stroke-linecap="round" stroke-linejoin="round" stroke-miterlimit="10" x1="17.19" y1="12.616" x2="20.486" y2="12.616"/>
	
		<line fill="none" stroke="#0094FD" stroke-width="1.4" stroke-linecap="round" stroke-linejoin="round" stroke-miterlimit="10" x1="17.19" y1="18.707" x2="20.486" y2="18.707"/>
	
		<line fill="none" stroke="#0094FD" stroke-width="1.4" stroke-linecap="round" stroke-linejoin="round" stroke-miterlimit="10" x1="17.19" y1="24.704" x2="20.486" y2="24.704"/>
	
		<rect x="14.957" y="29.856" fill="none" stroke="#0094FD" stroke-width="1.4" stroke-linecap="round" stroke-linejoin="round" stroke-miterlimit="10" width="4.779" height="4.873"/>
</g>
<g display="none">
	
		<rect x="3.744" y="15.145" display="inline" fill="none" stroke="#0094FD" stroke-width="1.4" stroke-linecap="round" stroke-linejoin="round" stroke-miterlimit="10" width="40.512" height="25.271"/>
	
		<polyline display="inline" fill="none" stroke="#0094FD" stroke-width="1.4" stroke-linecap="round" stroke-linejoin="round" stroke-miterlimit="10" points="
		6.939,14.284 6.939,7.584 23.113,7.584 24.454,10.058 39.205,10.058 40.76,14.651 	"/>
	
		<line display="inline" fill="none" stroke="#0094FD" stroke-width="1.4" stroke-linecap="round" stroke-linejoin="round" stroke-miterlimit="10" x1="29.039" y1="20.925" x2="31.366" y2="20.925"/>
	
		<line display="inline" fill="none" stroke="#0094FD" stroke-width="1.4" stroke-linecap="round" stroke-linejoin="round" stroke-miterlimit="10" x1="29.191" y1="24.033" x2="31.519" y2="24.033"/>
	
		<line display="inline" fill="none" stroke="#0094FD" stroke-width="1.4" stroke-linecap="round" stroke-linejoin="round" stroke-miterlimit="10" x1="29.191" y1="27.224" x2="31.519" y2="27.224"/>
	
		<line display="inline" fill="none" stroke="#0094FD" stroke-width="1.4" stroke-linecap="round" stroke-linejoin="round" stroke-miterlimit="10" x1="29.131" y1="30.534" x2="31.458" y2="30.534"/>
	
		<line display="inline" fill="none" stroke="#0094FD" stroke-width="1.4" stroke-linecap="round" stroke-linejoin="round" stroke-miterlimit="10" x1="31.984" y1="19.271" x2="34.312" y2="19.271"/>
	
		<line display="inline" fill="none" stroke="#0094FD" stroke-width="1.4" stroke-linecap="round" stroke-linejoin="round" stroke-miterlimit="10" x1="31.984" y1="22.436" x2="34.312" y2="22.436"/>
	
		<line display="inline" fill="none" stroke="#0094FD" stroke-width="1.4" stroke-linecap="round" stroke-linejoin="round" stroke-miterlimit="10" x1="31.984" y1="25.662" x2="34.312" y2="25.662"/>
	
		<line display="inline" fill="none" stroke="#0094FD" stroke-width="1.4" stroke-linecap="round" stroke-linejoin="round" stroke-miterlimit="10" x1="31.984" y1="28.852" x2="34.312" y2="28.852"/>
	
		<line display="inline" fill="none" stroke="#0094FD" stroke-width="1.4" stroke-linecap="round" stroke-linejoin="round" stroke-miterlimit="10" x1="31.984" y1="32.042" x2="34.312" y2="32.042"/>
	
		<line display="inline" fill="none" stroke="#0094FD" stroke-width="1.4" stroke-linecap="round" stroke-linejoin="round" stroke-miterlimit="10" x1="29.191" y1="33.618" x2="31.519" y2="33.618"/>
	
		<line display="inline" fill="none" stroke="#0094FD" stroke-width="1.4" stroke-linecap="round" stroke-linejoin="round" stroke-miterlimit="10" x1="29.131" y1="36.929" x2="31.458" y2="36.929"/>
	
		<line display="inline" fill="none" stroke="#0094FD" stroke-width="1.4" stroke-linecap="round" stroke-linejoin="round" stroke-miterlimit="10" x1="31.984" y1="35.246" x2="34.312" y2="35.246"/>
</g>
</svg>
